<svg height="512pt" viewBox="0 0 512 512" width="512pt" xmlns="http://www.w3.org/2000/svg"><path d="m482 196v256h-452v-256c0-8.402344 6.597656-15 15-15h422c8.402344 0 15 6.597656 15 15zm0 0" fill="#64e1dc"/><path d="m482 196v256h-226v-271h211c8.402344 0 15 6.597656 15 15zm0 0" fill="#00c8c8"/><path d="m497 422h-482c-8.402344 0-15 6.597656-15 15 0 41.398438 33.601562 75 75 75h362c41.398438 0 75-33.601562 75-75 0-8.402344-6.597656-15-15-15zm0 0" fill="#deecf1"/><path d="m512 437c0 41.398438-33.601562 75-75 75h-181v-90h241c8.402344 0 15 6.597656 15 15zm0 0" fill="#c6e2e7"/><path d="m422 15v121c0 8.289062 6.710938 15 15 15s15-6.710938 15-15v-121zm0 0" fill="#ffc473"/><path d="m437 0h-362c-8.402344 0-15 6.597656-15 15s6.597656 15 15 15h76v106c0 6.597656 4.199219 12.300781 10.199219 14.097656l90 30c1.5.601563 3.300781.902344 4.800781.902344s3.300781-.300781 4.800781-.902344l91-30c6-1.796875 10.199219-7.5 10.199219-14.097656v-106h75c8.402344 0 15-6.597656 15-15s-6.597656-15-15-15zm0 0" fill="#474f54"/><path d="m437 0h-181v181c1.5 0 3.300781-.300781 4.800781-.902344l91-30c6-1.796875 10.199219-7.5 10.199219-14.097656v-106h75c8.402344 0 15-6.597656 15-15s-6.597656-15-15-15zm0 0" fill="#32393f"/></svg>