<svg height="512pt" viewBox="0 -16 512.00124 512" width="512pt" xmlns="http://www.w3.org/2000/svg"><path d="m300.097656 119.695312-65.695312 131.695313c-20.699219 12.296875-44.398438 18.597656-68.398438 18.597656h-150.992187c-6 0-11.398438-3.597656-13.800781-9.300781-2.398438-5.699219-1.1992192-12 3.300781-16.195312l43.898437-43.199219c-11.398437-20.101563-17.402344-42.898438-17.402344-66.296875 0-74.398438 60.601563-134.996094 134.996094-134.996094 68.699219 0 126.59375 51.597656 134.09375 119.695312zm0 0" fill="#fdbf00"/><path d="m300.097656 119.695312-65.695312 131.695313c-20.699219 12.296875-44.398438 18.597656-68.398438 18.597656v-269.988281c68.699219 0 126.59375 51.597656 134.09375 119.695312zm0 0" fill="#ff9100"/><path d="m507.488281 334.488281-43.898437-43.199219c11.398437-20.101562 17.402344-42.898437 17.402344-66.296874 0-74.398438-60.601563-134.996094-134.996094-134.996094-74.394532 0-134.992188 60.597656-134.992188 134.996094 0 74.394531 60.597656 134.992187 134.992188 134.992187h150.996094c5.996093 0 11.398437-3.597656 13.796874-9.296875 2.402344-5.703125 1.199219-12-3.300781-16.199219zm0 0" fill="#64e1dc"/><path d="m510.789062 350.6875c-2.398437 5.699219-7.796874 9.296875-13.796874 9.296875h-150.996094v-269.988281c74.394531 0 134.996094 60.597656 134.996094 134.996094 0 23.398437-6 46.195312-17.402344 66.296874l43.898437 43.199219c4.5 4.199219 5.703125 10.496094 3.300781 16.199219zm0 0" fill="#00c8c8"/><path d="m211.003906 104.996094c0 16.800781-9.300781 32.097656-24 39.898437-3.601562 1.800781-6 6.597657-6 12 0 8.101563-6.597656 15-15 15-8.398437 0-15-6.898437-15-15 0-13.5 5.402344-25.800781 15-33.898437 2.101563-1.800782 4.5-3.601563 6.898438-4.800782 5.101562-2.398437 8.101562-7.5 8.101562-13.199218 0-8.398438-6.597656-15-15-15-8.398437 0-15 6.601562-15 15 0 8.402344-6.597656 15-15 15-8.398437 0-14.996094-6.597656-14.996094-15 0-24.898438 20.097657-44.996094 44.996094-44.996094 24.902344 0 45 20.097656 45 44.996094zm0 0" fill="#474f54"/><path d="m181.003906 194.992188c0 8.402343-6.597656 15-15 15-8.398437 0-15-6.597657-15-15 0-8.402344 6.601563-15 15-15 8.402344 0 15 6.597656 15 15zm0 0" fill="#474f54"/><path d="m390.996094 419.984375v29.996094l-30 30h-239.988282l-30-30v-29.996094l30-30h239.988282zm0 0" fill="#ff641a"/><path d="m390.996094 434.980469v15l-30 30h-239.988282l-30-30v-15zm0 0" fill="#f03800"/><path d="m121.007812 389.984375v89.996094h-45c-8.398437 0-15-6.597657-15-15v-59.996094c0-8.402344 6.601563-15 15-15zm0 0" fill="#676e74"/><path d="m450.992188 434.980469c0 5.703125-3.300782 10.800781-8.402344 13.5l-59.996094 30c-2.097656.898437-4.199219 1.5-6.597656 1.5h-15v-89.996094h15c2.398437 0 4.5.601563 6.597656 1.5l59.996094 30c5.105468 2.699219 8.402344 7.796875 8.402344 13.496094zm0 0" fill="#ffe1ba"/><path d="m61.007812 434.980469h60v45h-45c-8.398437 0-15-6.597657-15-15zm0 0" fill="#474f54"/><path d="m450.992188 434.980469c0 5.703125-3.300782 10.800781-8.402344 13.5l-59.996094 30c-2.097656.898437-4.199219 1.5-6.597656 1.5h-15v-45zm0 0" fill="#ffc473"/><path d="m360.996094 284.988281c0 8.402344-6.597656 15-15 15-8.398438 0-15-6.597656-15-15 0-8.402343 6.601562-15 15-15 8.402344 0 15 6.597657 15 15zm0 0" fill="#474f54"/><path d="m360.996094 164.992188v60c0 8.398437-6.597656 15-15 15-8.398438 0-15-6.601563-15-15v-60c0-8.398438 6.601562-14.996094 15-14.996094 8.402344 0 15 6.597656 15 14.996094zm0 0" fill="#474f54"/><g fill="#32393f"><path d="m360.996094 284.988281c0 8.402344-6.597656 15-15 15v-30c8.402344 0 15 6.597657 15 15zm0 0"/><path d="m360.996094 164.992188v60c0 8.398437-6.597656 15-15 15v-89.996094c8.402344 0 15 6.597656 15 14.996094zm0 0"/><path d="m181.003906 194.992188c0 8.402343-6.597656 15-15 15v-30c8.402344 0 15 6.597656 15 15zm0 0"/><path d="m211.003906 104.996094c0 16.800781-9.300781 32.097656-24 39.898437-3.601562 1.800781-6 6.597657-6 12 0 8.101563-6.597656 15-15 15v-48.898437c2.101563-1.800782 4.5-3.601563 6.898438-4.800782 5.101562-2.398437 8.101562-7.5 8.101562-13.199218 0-8.398438-6.597656-15-15-15v-29.996094c24.902344-.003906 45 20.097656 45 44.996094zm0 0"/></g></svg>