<svg height="512pt" viewBox="0 0 512 512" width="512pt" xmlns="http://www.w3.org/2000/svg"><path d="m510.5 189.402344-95.199219 228.296875h-318.601562l-95.199219-228.296875c1.199219-2.101563 2.699219-3.902344 4.5-5.402344l91-67.5h318l91 67.5c1.800781 1.5 3.300781 3.300781 4.5 5.402344zm0 0" fill="#ffe1ba"/><path d="m510.5 189.402344-95.199219 228.296875h-159.300781v-301.199219h159l91 67.5c1.800781 1.5 3.300781 3.300781 4.5 5.402344zm0 0" fill="#ffc473"/><path d="m421 15v406h-330v-406c0-8.402344 6.597656-15 15-15h300c8.402344 0 15 6.597656 15 15zm0 0" fill="#ff641a"/><path d="m421 15v406h-165v-421h150c8.402344 0 15 6.597656 15 15zm0 0" fill="#f03800"/><path d="m512 196v295l-23.101562 21h-465.796876l-23.101562-21v-295c0-2.402344.601562-4.800781 1.5-6.597656l245.199219 198.296875c2.703125 2.101562 6 3.300781 9.300781 3.300781s6.597656-1.199219 9.300781-3.300781l245.199219-198.296875c.898438 1.796875 1.5 4.195312 1.5 6.597656zm0 0" fill="#fff4ca"/><path d="m512 196v295l-23.101562 21h-232.898438v-121c3.300781 0 6.597656-1.199219 9.300781-3.300781l245.199219-198.300781c.898438 1.800781 1.5 4.199218 1.5 6.601562zm0 0" fill="#ffe1ba"/><path d="m316 316c-8.289062 0-15-6.710938-15-15v-75c0-8.289062 6.710938-15 15-15s15 6.710938 15 15v75c0 8.289062-6.710938 15-15 15zm0 0" fill="#ff9100"/><path d="m361 76v150c0 8.402344-6.597656 15-15 15h-17.699219c-22.800781 0-45.300781 9.300781-61.800781 25.5-2.699219 3-6.601562 4.5-10.5 4.5s-7.800781-1.5-10.5-4.5c-16.5-16.199219-39-25.5-61.800781-25.5h-17.699219c-8.402344 0-15-6.597656-15-15v-150c0-8.402344 6.597656-15 15-15h15l30 30h90l30-30h15c8.402344 0 15 6.597656 15 15zm0 0" fill="#474f54"/><path d="m361 76v150c0 8.402344-6.597656 15-15 15h-17.699219c-22.800781 0-45.300781 9.300781-61.800781 25.5-2.699219 3-6.601562 4.5-10.5 4.5v-180h45l30-30h15c8.402344 0 15 6.597656 15 15zm0 0" fill="#32393f"/><path d="m331 61v150h-2.699219c-26.101562 0-51.902343 9-72.300781 24.902344-20.398438-15.902344-46.199219-24.902344-72.300781-24.902344h-2.699219v-150h2.699219c26.101562 0 51.902343 9 72.300781 24.902344 20.398438-15.902344 46.199219-24.902344 72.300781-24.902344zm0 0" fill="#fff4ca"/><path d="m331 61v150h-2.699219c-26.101562 0-51.902343 9-72.300781 24.902344v-150c20.398438-15.902344 46.199219-24.902344 72.300781-24.902344zm0 0" fill="#ffe1ba"/><path d="m172.710938 398.046875c-4.398438-7.019531-13.640626-9.1875-20.671876-4.761719l-152.039062 97.824219v5.890625c0 8.289062 6.710938 15 15 15h7.988281l144.960938-93.285156c7.015625-4.378906 9.15625-13.636719 4.761719-20.667969zm0 0" fill="#ffe1ba"/><path d="m512 497v-5.890625l-152.039062-97.824219c-7.0625-4.425781-16.289063-2.257812-20.671876 4.761719-4.394531 7.03125-2.253906 16.289063 4.761719 20.667969l144.960938 93.285156h7.988281c8.289062 0 15-6.710938 15-15zm0 0" fill="#ffc473"/></svg>