<svg height="512pt" viewBox="-61 0 512 512" width="512pt" xmlns="http://www.w3.org/2000/svg"><path d="m195 0c-107.402344 0-195 88.597656-195 196 0 42.597656 13.5 83.101562 39 117l144 193c2.699219 3.898438 7.203125 6 12 6 4.800781 0 9.300781-2.101562 12.003906-6l144-193c25.496094-33.898438 39-74.398438 39-117-.003906-107.402344-87.601562-196-195.003906-196zm0 0" fill="#ff641a"/><path d="m390 196c0 42.597656-13.5 83.101562-39 117l-144 193c-2.699219 3.898438-7.199219 6-12 6v-512c107.402344 0 195 88.597656 195 196zm0 0" fill="#f03800"/><path d="m255 331c-8.289062 0-15-6.710938-15-15v-60c0-8.289062 6.710938-15 15-15s15 6.710938 15 15v60c0 8.289062-6.710938 15-15 15zm0 0" fill="#ff9100"/><path d="m300 106v150c0 8.402344-6.597656 15-15 15h-17.699219c-22.800781 0-45.300781 9.300781-61.800781 25.5-2.699219 3-6.601562 4.5-10.5 4.5s-7.800781-1.5-10.5-4.5c-16.5-16.199219-39-25.5-61.800781-25.5h-17.699219c-8.402344 0-15-6.597656-15-15v-150c0-8.402344 6.597656-15 15-15h15l30 30h90l30-30h15c8.402344 0 15 6.597656 15 15zm0 0" fill="#474f54"/><path d="m300 106v150c0 8.402344-6.597656 15-15 15h-17.699219c-22.800781 0-45.300781 9.300781-61.800781 25.5-2.699219 3-6.601562 4.5-10.5 4.5v-180h45l30-30h15c8.402344 0 15 6.597656 15 15zm0 0" fill="#32393f"/><path d="m270 91v150h-2.699219c-26.101562 0-51.902343 9-72.300781 24.902344-20.398438-15.902344-46.199219-24.902344-72.300781-24.902344h-2.699219v-150h2.699219c26.101562 0 51.902343 9 72.300781 24.902344 20.398438-15.902344 46.199219-24.902344 72.300781-24.902344zm0 0" fill="#fff4ca"/><path d="m270 91v150h-2.699219c-26.101562 0-51.902343 9-72.300781 24.902344v-150c20.398438-15.902344 46.199219-24.902344 72.300781-24.902344zm0 0" fill="#ffe1ba"/></svg>