<svg height="512pt" viewBox="-16 0 512 512" width="512pt" xmlns="http://www.w3.org/2000/svg"><path d="m330 347v105l-120 60-150-15-60-105v-45c0-41.398438 33.601562-75 75-75h180c41.398438 0 75 33.601562 75 75zm0 0" fill="#ff641a"/><path d="m330 347v105l-120 60-45-4.5v-235.5h90c41.398438 0 75 33.601562 75 75zm0 0" fill="#f03800"/><path d="m465 332h-240c-8.402344 0-15 6.597656-15 15v165h255c8.402344 0 15-6.597656 15-15v-150c0-8.402344-6.597656-15-15-15zm0 0" fill="#deecf1"/><path d="m210 497v15h-195c-8.285156 0-15-6.714844-15-15v-105h45c8.285156 0 15 6.714844 15 15v45h105c24.851562 0 45 20.148438 45 45zm0 0" fill="#ffe1ba"/><path d="m240 166v30c0 24.601562-12 46.902344-30 60.699219v30.300781c0 3.898438-1.5 7.800781-4.5 10.5l-30 30c-2.699219 3-6.601562 4.5-10.5 4.5s-7.800781-1.5-10.5-4.5l-30-30c-3-2.699219-4.5-6.601562-4.5-10.5v-30.300781c-18-13.796875-30-36.097657-30-60.699219v-30c0-41.398438 33.601562-75 75-75s75 33.601562 75 75zm0 0" fill="#ffe1ba"/><path d="m360 407c0 8.402344-6.597656 15-15 15s-15-6.597656-15-15 6.597656-15 15-15 15 6.597656 15 15zm0 0" fill="#c6e2e7"/><path d="m435 241c-8.289062 0-15-6.710938-15-15v-60c0-8.289062 6.710938-15 15-15s15 6.710938 15 15v60c0 8.289062-6.710938 15-15 15zm0 0" fill="#ff9100"/><path d="m480 15v151c0 8.402344-6.597656 15-15 15h-17.699219c-22.800781 0-45.300781 9.300781-61.800781 25.5-2.699219 3-6.601562 4.5-10.5 4.5s-7.800781-1.5-10.5-4.5c-16.5-16.199219-39-25.5-61.800781-25.5h-17.699219c-8.402344 0-15-6.597656-15-15v-151c0-8.402344 6.597656-15 15-15h15l30 30h90l30-30h15c8.402344 0 15 6.597656 15 15zm0 0" fill="#474f54"/><path d="m480 15v151c0 8.402344-6.597656 15-15 15h-17.699219c-22.800781 0-45.300781 9.300781-61.800781 25.5-2.699219 3-6.601562 4.5-10.5 4.5v-181h45l30-30h15c8.402344 0 15 6.597656 15 15zm0 0" fill="#32393f"/><path d="m450 0v151h-2.699219c-26.101562 0-51.902343 9-72.300781 24.902344-20.398438-15.902344-46.199219-24.902344-72.300781-24.902344h-2.699219v-151h2.699219c26.101562 0 51.902343 9 72.300781 24.902344 20.398438-15.902344 46.199219-24.902344 72.300781-24.902344zm0 0" fill="#fff4ca"/><path d="m450 0v151h-2.699219c-26.101562 0-51.902343 9-72.300781 24.902344v-151c20.398438-15.902344 46.199219-24.902344 72.300781-24.902344zm0 0" fill="#ffe1ba"/><path d="m480 347v150c0 8.402344-6.597656 15-15 15h-120v-180h120c8.402344 0 15 6.597656 15 15zm0 0" fill="#c6e2e7"/><path d="m360 407c0 8.402344-6.597656 15-15 15v-30c8.402344 0 15 6.597656 15 15zm0 0" fill="#a8d3d8"/><g fill="#ffc473"><path d="m240 166v30c0 24.601562-12 46.902344-30 60.699219v30.300781c0 3.898438-1.5 7.800781-4.5 10.5l-30 30c-2.699219 3-6.601562 4.5-10.5 4.5v-241c41.398438 0 75 33.601562 75 75zm0 0"/><path d="m210 497v15h-45v-60c24.902344 0 45 20.097656 45 45zm0 0"/></g></svg>