<svg height="512pt" viewBox="-61 0 512 512" width="512pt" xmlns="http://www.w3.org/2000/svg"><path d="m390 316c0 107.699219-87.300781 196-195 196s-195-88.300781-195-196 87.300781-195 195-195 195 87.300781 195 195zm0 0" fill="#9bfcff"/><path d="m390 316c0 107.699219-87.300781 196-195 196v-391c107.699219 0 195 87.300781 195 195zm0 0" fill="#76e2f8"/><path d="m360 316c0 90.902344-74.097656 166-165 166s-165-75.097656-165-166 74.097656-165 165-165 165 74.097656 165 165zm0 0" fill="#64e1dc"/><path d="m360 316c0 90.902344-74.097656 166-165 166v-331c90.902344 0 165 74.097656 165 165zm0 0" fill="#00c8c8"/><g fill="#9bfcff"><path d="m379.800781 256c0 8.402344-6.902343 15-15 15h-339.601562c-8.097657 0-15-6.597656-15-15s6.902343-15 15-15h339.601562c8.097657 0 15 6.597656 15 15zm0 0"/><path d="m379.800781 376c0 8.402344-6.902343 15-15 15h-339.601562c-8.097657 0-15-6.597656-15-15s6.902343-15 15-15h339.601562c8.097657 0 15 6.597656 15 15zm0 0"/><path d="m285 316c0 111.300781-38.699219 196-90 196s-90-84.699219-90-196c0-72 17.402344-137.402344 45-170.699219 5.398438-6.300781 14.699219-7.199219 21.300781-2.101562 6.300781 5.402343 7.199219 15 1.800781 21.300781-23.101562 27.601562-38.101562 87-38.101562 151.5 0 94.5 31.800781 166 60 166s60-71.5 60-166c0-64.5-15-123.898438-38.101562-151.5-5.398438-6.300781-4.5-15.902344 1.800781-21.300781 6.601562-5.097657 15.902343-4.199219 21.300781 2.101562 27.597656 33.296875 45 98.699219 45 170.699219zm0 0"/></g><path d="m285 316c0 111.300781-38.699219 196-90 196v-30c28.199219 0 60-71.5 60-166 0-64.5-15-123.898438-38.101562-151.5-5.398438-6.300781-4.5-15.902344 1.800781-21.300781 6.601562-5.097657 15.902343-4.199219 21.300781 2.101562 27.597656 33.296875 45 98.699219 45 170.699219zm0 0" fill="#76e2f8"/><path d="m379.800781 376c0 8.402344-6.902343 15-15 15h-169.800781v-30h169.800781c8.097657 0 15 6.597656 15 15zm0 0" fill="#76e2f8"/><path d="m364.800781 271h-169.800781v-30h169.800781c8.097657 0 15 6.597656 15 15s-6.902343 15-15 15zm0 0" fill="#76e2f8"/><path d="m360 15v121c0 8.289062 6.710938 15 15 15s15-6.710938 15-15v-121zm0 0" fill="#ffc473"/><path d="m375 0h-360c-8.402344 0-15 6.597656-15 15s6.597656 15 15 15h75v106c0 6.597656 4.199219 12.300781 10.199219 14.097656l90 30c1.5.601563 3.300781.902344 4.800781.902344s3.300781-.300781 4.800781-.902344l90-30c6-1.796875 10.199219-7.5 10.199219-14.097656v-106h75c8.402344 0 15-6.597656 15-15s-6.597656-15-15-15zm0 0" fill="#474f54"/><path d="m375 0h-180v181c1.5 0 3.300781-.300781 4.800781-.902344l90-30c6-1.796875 10.199219-7.5 10.199219-14.097656v-106h75c8.402344 0 15-6.597656 15-15s-6.597656-15-15-15zm0 0" fill="#32393f"/></svg>