<svg height="512pt" viewBox="0 0 512 512" width="512pt" xmlns="http://www.w3.org/2000/svg"><path d="m512 241c0 66.300781-54.699219 120-121 120h-255c-74.398438 0-136-60.601562-136-135 0-64.199219 45.097656-118.199219 107.199219-131.398438 27.601562-57.300781 84.902343-94.601562 148.800781-94.601562 75.300781 0 140.699219 52 159.601562 124 54.898438 11.398438 96.398438 60 96.398438 117zm0 0" fill="#deecf1"/><path d="m512 241c0 66.300781-54.699219 120-121 120h-135v-361c75.300781 0 140.699219 52 159.601562 124 54.898438 11.398438 96.398438 60 96.398438 117zm0 0" fill="#c6e2e7"/><path d="m361 286c0-57.898438-47.101562-105-105-105s-105 47.101562-105 105c0 52.808594 39.183594 96.625 90 103.925781v107.074219c0 8.402344 6.597656 15 15 15s15-6.597656 15-15v-107.074219c50.816406-7.300781 90-51.117187 90-103.925781zm0 0" fill="#676e74"/><path d="m361 286c0-57.898438-47.101562-105-105-105v331c8.402344 0 15-6.597656 15-15v-107.074219c50.816406-7.300781 90-51.117187 90-103.925781zm0 0" fill="#474f54"/><path d="m256 211c-41.398438 0-75 33.601562-75 75s33.601562 75 75 75 75-33.601562 75-75-33.601562-75-75-75zm0 0" fill="#9bfcff"/><path d="m331 286c0 41.398438-33.601562 75-75 75v-150c41.398438 0 75 33.601562 75 75zm0 0" fill="#76e2f8"/></svg>