<svg height="512pt" viewBox="-46 0 512 512" width="512pt" xmlns="http://www.w3.org/2000/svg"><path d="m270 15v407l-30 30h-210l-30-30v-407c0-8.402344 6.597656-15 15-15h240c8.402344 0 15 6.597656 15 15zm0 0" fill="#64e1dc"/><path d="m270 15v407l-30 30h-105v-452h120c8.402344 0 15 6.597656 15 15zm0 0" fill="#00c8c8"/><path d="m270 422v75c0 8.402344-6.597656 15-15 15h-240c-8.402344 0-15-6.597656-15-15v-75h120l15 15 15-15zm0 0" fill="#deecf1"/><path d="m270 422v75c0 8.402344-6.597656 15-15 15h-120v-75l15-15zm0 0" fill="#c6e2e7"/><path d="m150 422v15c0 8.402344-6.597656 15-15 15s-15-6.597656-15-15v-15zm0 0" fill="#c6e2e7"/><path d="m150 422v15c0 8.402344-6.597656 15-15 15v-30zm0 0" fill="#a8d3d8"/><path d="m165 121h-60c-8.402344 0-15 6.597656-15 15v60c0 8.402344 6.597656 15 15 15h60c8.402344 0 15-6.597656 15-15v-60c0-8.402344-6.597656-15-15-15zm0 0" fill="#fdbf00"/><path d="m285 211h-60c-8.289062 0-15-6.710938-15-15v-60c0-8.289062 6.710938-15 15-15h60c8.289062 0 15 6.710938 15 15v60c0 8.289062-6.710938 15-15 15zm0 0" fill="#ff9100"/><path d="m165 241h-60c-8.402344 0-15 6.597656-15 15v60c0 8.402344 6.597656 15 15 15h60c8.402344 0 15-6.597656 15-15v-60c0-8.402344-6.597656-15-15-15zm0 0" fill="#fdbf00"/><g fill="#ff9100"><path d="m285 331h-60c-8.289062 0-15-6.710938-15-15v-60c0-8.289062 6.710938-15 15-15h60c8.289062 0 15 6.710938 15 15v60c0 8.289062-6.710938 15-15 15zm0 0"/><path d="m405 211h-60c-8.289062 0-15-6.710938-15-15v-60c0-8.289062 6.710938-15 15-15h60c8.289062 0 15 6.710938 15 15v60c0 8.289062-6.710938 15-15 15zm0 0"/><path d="m405 331h-60c-8.289062 0-15-6.710938-15-15v-60c0-8.289062 6.710938-15 15-15h60c8.289062 0 15 6.710938 15 15v60c0 8.289062-6.710938 15-15 15zm0 0"/><path d="m180 136v60c0 8.402344-6.597656 15-15 15h-30v-90h30c8.402344 0 15 6.597656 15 15zm0 0"/><path d="m180 256v60c0 8.402344-6.597656 15-15 15h-30v-90h30c8.402344 0 15 6.597656 15 15zm0 0"/></g></svg>