<svg height="512pt" viewBox="-61 0 512 512" width="512pt" xmlns="http://www.w3.org/2000/svg"><path d="m270 15v407l-30 30h-210l-30-30v-407c0-8.402344 6.597656-15 15-15h240c8.402344 0 15 6.597656 15 15zm0 0" fill="#64e1dc"/><path d="m270 15v407l-30 30h-105v-452h120c8.402344 0 15 6.597656 15 15zm0 0" fill="#00c8c8"/><path d="m270 422v75c0 8.402344-6.597656 15-15 15h-240c-8.402344 0-15-6.597656-15-15v-75h120l15 15 15-15zm0 0" fill="#deecf1"/><path d="m270 422v75c0 8.402344-6.597656 15-15 15h-120v-75l15-15zm0 0" fill="#c6e2e7"/><path d="m150 422v15c0 8.402344-6.597656 15-15 15s-15-6.597656-15-15v-15zm0 0" fill="#c6e2e7"/><path d="m150 422v15c0 8.402344-6.597656 15-15 15v-30zm0 0" fill="#a8d3d8"/><path d="m255 61c-74.398438 0-135 60.601562-135 135 0 23.402344 6 46.199219 17.402344 66.300781l-42.902344 43.199219c-4.5 4.199219-5.699219 10.5-3.300781 16.199219 2.402343 5.699219 7.800781 9.300781 13.800781 9.300781h150c74.398438 0 135-60.601562 135-135s-60.601562-135-135-135zm0 0" fill="#ff641a"/><path d="m390 196c0 74.398438-60.601562 135-135 135v-270c74.398438 0 135 60.601562 135 135zm0 0" fill="#f03800"/><path d="m323.402344 183.402344-90-60c-4.800782-3.003906-10.503906-3.300782-15.601563-.601563-4.800781 2.699219-7.800781 7.800781-7.800781 13.199219v120c0 5.398438 3 10.5 7.800781 13.199219 4.796875 2.703125 10.800781 2.402343 15.601563-.601563l90-60c4.195312-2.996094 6.597656-7.5 6.597656-12.597656s-2.402344-9.601562-6.597656-12.597656zm0 0" fill="#fff4ca"/><path d="m330 196c0 5.097656-2.402344 9.601562-6.597656 12.597656l-68.402344 45.601563v-116.398438l68.402344 45.601563c4.195312 2.996094 6.597656 7.5 6.597656 12.597656zm0 0" fill="#ffe1ba"/></svg>