<svg height="512pt" viewBox="0 0 512.001 512" width="512pt" xmlns="http://www.w3.org/2000/svg"><path d="m391.992188 76v39.996094c0 8.402344-6.597657 15-15 15-8.402344 0-15-6.597656-15-15v-39.996094c0-8.402344 6.597656-15 15-15 8.402343 0 15 6.597656 15 15zm0 0" fill="#676e74"/><path d="m391.992188 76v39.996094c0 8.402344-6.597657 15-15 15v-69.996094c8.402343 0 15 6.597656 15 15zm0 0" fill="#474f54"/><path d="m417.488281 95.5c-12.898437-4.800781-26.996093-3.902344-40.496093 2.398438-13.5-6.300782-27.597657-7.199219-40.5-2.398438-31.199219 11.398438-44.996094 53.199219-30.898438 91.894531 13.800781 37.5 45 55.800781 71.398438 52.5 29.398437 3.898438 58.800781-18 71.398437-52.5 14.097656-38.695312.300781-80.496093-30.902344-91.894531zm0 0" fill="#ff641a"/><path d="m448.390625 187.394531c-12.597656 34.5-42 56.398438-71.398437 52.5v-141.996093c13.5-6.300782 27.597656-7.199219 40.496093-2.398438 31.203125 11.398438 45 53.199219 30.902344 91.894531zm0 0" fill="#f03800"/><path d="m271.996094 15v406.992188l-30 30h-211.996094l-30-30v-406.992188c0-8.402344 6.597656-15 15-15h241.996094c8.398437 0 15 6.597656 15 15zm0 0" fill="#64e1dc"/><path d="m271.996094 15v406.992188l-30 30h-106v-451.992188h121c8.398437 0 15 6.597656 15 15zm0 0" fill="#00c8c8"/><path d="m271.996094 421.992188v74.996093c0 8.402344-6.601563 15-15 15h-241.996094c-8.402344 0-15-6.597656-15-15v-74.996093h120.996094l15 15 15-15zm0 0" fill="#deecf1"/><path d="m271.996094 421.992188v74.996093c0 8.402344-6.601563 15-15 15h-121v-74.996093l15-15zm0 0" fill="#c6e2e7"/><path d="m150.996094 421.992188v15c0 8.398437-6.597656 15-15 15-8.398438 0-15-6.601563-15-15v-15zm0 0" fill="#c6e2e7"/><path d="m150.996094 421.992188v15c0 8.398437-6.597656 15-15 15v-30zm0 0" fill="#a8d3d8"/><path d="m477.488281 486.488281c4.5 4.199219 5.699219 10.5 3.300781 16.199219-2.398437 5.699219-7.800781 9.300781-13.800781 9.300781h-209.992187c-41.402344 0-75-33.597656-75-75 0-41.398437 33.597656-74.996093 75-74.996093l99.371094-30 80.632812 30h29.988281c6 0 11.402344 3.597656 13.800781 9.300781 2.402344 5.699219 1.199219 12-3.300781 16.195312-1.199219 1.503907-2.398437 3.003907-3.597656 4.503907l-36.898437 30v29.996093l36.898437 30c1.199219 1.5 2.398437 3 3.597656 4.5zm0 0" fill="#ff641a"/><path d="m480.789062 502.691406c-2.398437 5.699219-7.796874 9.296875-13.800781 9.296875h-209.992187c-41.402344 0-75-33.597656-75-74.996093h254.996094v15l36.898437 29.996093c1.199219 1.5 2.398437 3 3.597656 4.503907 4.5 4.195312 5.699219 10.496093 3.300781 16.199218zm0 0" fill="#f03800"/><path d="m459.191406 451.992188c2.398438 10.796874 7.199219 21 14.699219 29.996093h-216.894531c-24.902344 0-45-20.097656-45-44.996093 0-24.902344 20.097656-45 45-45h216.894531c-7.5 9-12.300781 19.199218-14.703125 30l-37.199219 15zm0 0" fill="#fff4ca"/><path d="m473.890625 481.988281h-216.894531c-24.902344 0-45-20.097656-45-44.996093h209.996094l37.199218 15c2.398438 10.796874 7.199219 21 14.699219 29.996093zm0 0" fill="#ffe1ba"/><path d="m457.691406 436.992188c0 5.097656.296875 10.199218 1.5 15h-142.199218c-8.398438 0-15-6.601563-15-15 0-8.402344 6.601562-15 15-15h142.199218c-1.203125 4.796874-1.5 9.898437-1.5 15zm0 0" fill="#ffe1ba"/><path d="m459.191406 451.992188h-142.199218c-8.398438 0-15-6.601563-15-15h155.699218c0 5.097656.296875 10.199218 1.5 15zm0 0" fill="#ffc473"/><path d="m216.507812 336.492188c-4.5 4.199218-5.699218 10.5-3.300781 16.199218 2.398438 5.699219 7.800781 9.300782 13.800781 9.300782h209.996094c41.398438 0 74.996094-33.601563 74.996094-75 0-41.398438-33.597656-74.996094-74.996094-74.996094h-209.996094c-6 0-11.402343 3.597656-13.800781 9.296875-2.398437 5.703125-1.199219 12.003906 3.300781 16.199219 1.199219 1.503906 2.398438 3.003906 3.597657 4.503906l36.898437 29.996094v30l-36.898437 30c-1.199219 1.5-2.398438 3-3.597657 4.5zm0 0" fill="#676e74"/><path d="m213.207031 352.691406c2.398438 5.703125 7.800781 9.300782 13.800781 9.300782h209.996094c41.398438 0 74.996094-33.597657 74.996094-74.996094h-254.992188v14.996094l-36.898437 30c-1.203125 1.5-2.402344 3-3.601563 4.503906-4.5 4.195312-5.699218 10.496094-3.300781 16.195312zm0 0" fill="#474f54"/><path d="m234.808594 301.992188c-2.402344 10.800781-7.203125 21-14.703125 30h216.894531c24.902344 0 45-20.097657 45-44.996094 0-24.902344-20.097656-45-45-45h-216.894531c7.5 9 12.300781 19.199218 14.703125 30l37.199218 15zm0 0" fill="#fff4ca"/><path d="m220.105469 331.992188h216.894531c24.902344 0 45-20.097657 45-44.996094h-209.996094l-37.199218 14.996094c-2.398438 10.800781-7.199219 21-14.699219 30zm0 0" fill="#ffe1ba"/><path d="m236.304688 286.996094c0 5.097656-.296876 10.199218-1.5 14.996094h142.199218c8.398438 0 15-6.597657 15-14.996094 0-8.402344-6.601562-15-15-15h-142.199218c1.203124 4.796875 1.5 9.898437 1.5 15zm0 0" fill="#ffe1ba"/><path d="m234.808594 301.992188h142.195312c8.402344 0 15-6.597657 15-14.996094h-155.695312c-.003906 5.097656-.300782 10.199218-1.5 14.996094zm0 0" fill="#ffc473"/></svg>