<svg height="512pt" viewBox="0 0 512 512" width="512pt" xmlns="http://www.w3.org/2000/svg"><path d="m452 256v60c0 8.398438-6.597656 15-15 15s-15-6.601562-15-15v-60c0-24.902344-20.097656-45-45-45s-45 20.097656-45 45v120c0 41.398438-33.601562 75-75 75s-75-33.601562-75-75v-60c0-8.402344 6.597656-15 15-15s15 6.597656 15 15v60c0 24.898438 20.097656 45 45 45s45-20.101562 45-45v-120c0-41.398438 33.601562-75 75-75 24.601562 0 46.5 12 60 30.300781 9.601562 12.296875 15 27.898438 15 44.699219zm0 0" fill="#deecf1"/><path d="m452 256v60c0 8.398438-6.597656 15-15 15v-119.699219c9.601562 12.296875 15 27.898438 15 44.699219zm0 0" fill="#c6e2e7"/><path d="m512 376v15l-30 30h-90l-30-30v-15c0-36.300781 25.800781-66.601562 60-73.5l15 30 15-30c34.199219 6.898438 60 37.199219 60 73.5zm0 0" fill="#e0f4ff"/><path d="m512 376v15l-30 30h-45v-88.5l15-30c34.199219 6.898438 60 37.199219 60 73.5zm0 0" fill="#bbdcff"/><path d="m452 302.5v118.5h-30v-118.5c4.800781-.902344 9.902344-1.5 15-1.5s10.199219.597656 15 1.5zm0 0" fill="#bbdcff"/><path d="m452 302.5v118.5h-15v-120c5.097656 0 10.199219.597656 15 1.5zm0 0" fill="#9abadb"/><path d="m212 15v241c0 8.398438-6.597656 15-15 15h-182c-8.402344 0-15-6.601562-15-15v-241c0-8.402344 6.597656-15 15-15h182c8.402344 0 15 6.597656 15 15zm0 0" fill="#fdbf00"/><path d="m212 15v241c0 8.398438-6.597656 15-15 15h-91v-271h91c8.402344 0 15 6.597656 15 15zm0 0" fill="#ff9100"/><path d="m272 181v135c0 8.398438-6.597656 15-15 15h-181c-8.402344 0-15-6.601562-15-15v-240c0-8.402344 6.597656-15 15-15h76zm0 0" fill="#fff4ca"/><path d="m272 181v135c0 8.398438-6.597656 15-15 15h-90v-255zm0 0" fill="#ffe1ba"/><path d="m272 166v15h-105c-8.402344 0-15-6.601562-15-15v-105h15c3.898438.902344 7.5 1.5 10.5 4.5l90 90c3.300781 3 3.898438 7.199219 4.5 10.5zm0 0" fill="#ffe1ba"/><path d="m272 166v15h-105v-120c3.898438.902344 7.5 1.5 10.5 4.5l90 90c3.300781 3 3.898438 7.199219 4.5 10.5zm0 0" fill="#ffc473"/><path d="m512 391v45c0 41.398438-33.601562 76-75 76s-75-34.601562-75-76v-45zm0 0" fill="#ff641a"/><path d="m512 391v45c0 41.398438-33.601562 76-75 76v-121zm0 0" fill="#f03800"/></svg>