<svg height="512pt" viewBox="0 0 512 512" width="512pt" xmlns="http://www.w3.org/2000/svg"><path d="m476.605469 365.394531-25.605469-25.605469v-83.789062c0-8.289062-6.710938-15-15-15s-15 6.710938-15 15v83.789062l-25.605469 25.605469c-5.859375 5.859375-5.859375 15.351563 0 21.210938s15.351563 5.859375 21.210938 0l4.394531-4.394531v38.789062h-113.027344c-8.289062 0-15 6.710938-15 15s6.710938 15 15 15h128.027344c8.289062 0 15-6.710938 15-15v-53.789062l4.394531 4.394531c5.859375 5.859375 15.351563 5.859375 21.210938 0s5.859375-15.351563 0-21.210938zm0 0" fill="#76e2f8"/><path d="m204.027344 421h-113.027344v-38.789062l4.394531 4.394531c5.859375 5.859375 15.351563 5.859375 21.210938 0s5.859375-15.351563 0-21.210938l-25.605469-25.605469v-83.789062c0-8.289062-6.710938-15-15-15s-15 6.710938-15 15v83.789062l-25.605469 25.605469c-5.859375 5.859375-5.859375 15.351563 0 21.210938s15.351563 5.859375 21.210938 0l4.394531-4.394531v53.789062c0 8.289062 6.710938 15 15 15h128.027344c8.289062 0 15-6.710938 15-15s-6.710938-15-15-15zm0 0" fill="#9bfcff"/><path d="m211 120v136c0 8.398438-6.597656 15-15 15h-181c-8.402344 0-15-6.601562-15-15v-241c0-8.402344 6.597656-15 15-15h76zm0 0" fill="#fff4ca"/><path d="m211 120v136c0 8.398438-6.597656 15-15 15h-90v-256zm0 0" fill="#ffe1ba"/><path d="m211 105v15h-105c-8.402344 0-15-6.601562-15-15v-105h15c3.898438.902344 7.5 1.5 10.5 4.5l90 90c3.300781 3 3.898438 7.199219 4.5 10.5zm0 0" fill="#ffe1ba"/><path d="m211 105v15h-105v-120c3.898438.902344 7.5 1.5 10.5 4.5l90 90c3.300781 3 3.898438 7.199219 4.5 10.5zm0 0" fill="#ffc473"/><path d="m512 120v136c0 8.398438-6.601562 15-15 15h-181c-8.398438 0-15-6.601562-15-15v-241c0-8.398438 6.601562-15 15-15h75l15 14.878906zm0 0" fill="#fff4ca"/><path d="m512 120v136c0 8.398438-6.601562 15-15 15h-91v-256.121094zm0 0" fill="#ffe1ba"/><path d="m512 105v15h-106c-8.402344 0-15-6.601562-15-15v-105h15c3.898438.902344 7.5 1.5 10.5 4.5l91 90c3.300781 3 3.898438 7.199219 4.5 10.5zm0 0" fill="#ffe1ba"/><path d="m512 105v15h-106v-120c3.898438.902344 7.5 1.5 10.5 4.5l91 90c3.300781 3 3.898438 7.199219 4.5 10.5zm0 0" fill="#ffc473"/><path d="m256 301c-24.902344 0-45 20.097656-45 45 0 24.898438 20.097656 45 45 45s45-20.101562 45-45c0-24.902344-20.097656-45-45-45zm0 0" fill="#64e1dc"/><path d="m256 391c-41.398438 0-75 33.601562-75 75v31c0 8.398438 6.597656 15 15 15h120c8.402344 0 15-6.601562 15-15v-31c0-41.398438-33.601562-75-75-75zm0 0" fill="#64e1dc"/><g fill="#00c8c8"><path d="m256 391v-90c24.902344 0 45 20.097656 45 45 0 24.898438-20.097656 45-45 45zm0 0"/><path d="m331 466v31c0 8.398438-6.597656 15-15 15h-60v-121c41.398438 0 75 33.601562 75 75zm0 0"/></g></svg>