<svg height="512pt" viewBox="0 0 512 512.001" width="512pt" xmlns="http://www.w3.org/2000/svg"><path d="m301.980469 435.003906c0 8.285156-6.714844 15-15 15-8.285157 0-15-6.714844-15-15 0-8.28125 6.714843-14.996094 15-14.996094 8.285156 0 15 6.714844 15 14.996094zm0 0" fill="#ffc473"/><path d="m241.984375 75.027344c0 8.285156-6.714844 15-15 15s-15-6.714844-15-15c0-8.28125 6.714844-14.996094 15-14.996094s15 6.714844 15 14.996094zm0 0" fill="#ffe1ba"/><path d="m436.972656 360.011719h-15v-15c0-8.292969-6.710937-15-15-15-8.289062 0-15 6.707031-15 15v15h-14.996094c-8.292968 0-15 6.707031-15 14.996093 0 8.292969 6.707032 15 15 15h14.996094v15c0 8.289063 6.710938 15 15 15 8.289063 0 15-6.710937 15-15v-15h15c8.289063 0 14.996094-6.707031 14.996094-15 0-8.289062-6.707031-14.996093-14.996094-14.996093zm0 0" fill="#ffc473"/><path d="m136.992188 120.027344h-15v-15c0-8.289063-6.710938-15-15-15-8.289063 0-15 6.710937-15 15v15h-14.996094c-8.292969 0-15 6.707031-15 14.996094 0 8.292968 6.707031 15 15 15h14.996094v15c0 8.289062 6.710937 15 15 15 8.289062 0 15-6.710938 15-15v-15h15c8.289062 0 14.996093-6.707032 14.996093-15 0-8.289063-6.707031-14.996094-14.996093-14.996094zm0 0" fill="#ffe1ba"/><path d="m240.910156 271.09375-53.03125-53.035156-151.664062 151.664062.003906 42.429688 31.816406 31.816406 31.816406 31.820312h42.425782l151.660156-151.664062zm0 0" fill="#ff641a"/><path d="m142.277344 475.789062 151.660156-151.664062-53.027344-53.03125-172.875 172.875 31.816406 31.820312zm0 0" fill="#f03800"/><path d="m239.730469 272.277344-10.609375-10.609375-171.691406 171.695312 21.210937 21.210938 171.695313-171.691407zm0 0" fill="#ff9100"/><path d="m68.03125 443.96875 171.691406-171.691406 10.605469 10.605468-171.691406 171.691407zm0 0" fill="#ff641a"/><path d="m306.976562 308.847656 20.402344-61.210937-63-63.015625-61.222656 20.40625c-2.210938.730468-4.21875 1.964844-5.859375 3.617187l-9.414063 9.414063c-.308593 27.265625 9.832032 54.625 30.636719 75.429687 20.800781 20.804688 48.15625 30.945313 75.421875 30.636719l9.417969-9.417969c1.652344-1.640625 2.882813-3.648437 3.617187-5.859375zm0 0" fill="#ffe1ba"/><path d="m303.359375 314.707031c1.652344-1.640625 2.882813-3.648437 3.617187-5.859375l20.402344-61.210937-31.5-31.507813-77.359375 77.359375c20.800781 20.800781 48.15625 30.941407 75.417969 30.636719zm0 0" fill="#ffc473"/><path d="m327.375 247.636719 10.175781-30.527344 11.839844-35.535156c1.804687-5.390625.398437-11.332031-3.613281-15.347657-4.015625-4-9.976563-5.476562-15.351563-3.617187l-35.539062 11.84375-30.507813 10.167969c-1.148437.941406-2.371094 1.738281-3.441406 2.808594-17.570312 17.574218-17.570312 46.0625 0 63.636718 17.574219 17.570313 46.066406 17.570313 63.636719 0 1.070312-1.070312 1.863281-2.285156 2.800781-3.429687zm0 0" fill="#676e74"/><path d="m324.578125 251.0625c1.066406-1.066406 1.859375-2.28125 2.800781-3.425781l10.171875-30.527344 11.84375-35.535156c1.800781-5.390625.394531-11.332031-3.617187-15.347657l-84.835938 84.835938c17.570313 17.574219 46.0625 17.574219 63.636719 0zm0 0" fill="#474f54"/><path d="m89.246094 422.757812-53.03125-53.035156-31.820313 31.820313c-5.859375 5.859375-5.859375 15.351562 0 21.210937l84.855469 84.855469c2.929688 2.929687 6.765625 4.390625 10.601562 4.390625 3.839844.003906 7.679688-1.464844 10.605469-4.390625l31.820313-31.820313zm0 0" fill="#676e74"/><path d="m99.851562 512c3.839844 0 7.675782-1.464844 10.605469-4.394531l31.816407-31.816407-53.027344-53.03125-42.421875 42.425782 42.421875 42.421875c2.929687 2.929687 6.769531 4.394531 10.605468 4.394531zm0 0" fill="#474f54"/><path d="m471.285156 171.445312c-4.734375-6.839843-14.105468-8.539062-20.859375-3.808593-12.566406 8.6875-28.195312 12.347656-43.488281 12.347656-20.65625 0-39.386719-8.398437-52.964844-21.957031-13.601562-13.582032-22.03125-32.339844-22.03125-53.035156 0-41.351563 33.644532-74.996094 74.996094-74.996094 20.691406 0 39.457031 8.429687 53.039062 22.03125 13.558594 13.578125 21.957032 32.308594 21.957032 52.964844 0 8.273437-6.726563 14.996093-15 14.996093-8.277344 0-15-6.722656-15-14.996093 0-2.078126-.421875-4.054688-1.183594-5.851563-1.347656-9.867187-6.078125-18.488281-12.582031-25.308594-7.949219-8.335937-18.722657-13.839843-31.230469-13.839843-24.8125 0-44.996094 20.183593-45 44.996093 0 12.429688 5.070312 23.683594 13.242188 31.832031 8.144531 8.128907 19.371093 13.164063 31.757812 13.167969 11.621094 0 22.003906-4.71875 29.996094-11.976562 7.996094 7.261719 18.378906 11.976562 30 11.976562 24.8125 0 44.996094-20.183593 44.996094-44.996093 0-28.921876-11.761719-55.152344-30.753907-74.164063-19.015625-19.03125-45.277343-30.828125-74.238281-30.828125-57.886719 0-104.992188 47.105469-104.992188 104.992188 0 28.960937 11.796876 55.222656 30.832032 74.238281 19.007812 18.992187 45.234375 30.753906 74.160156 30.753906 21.414062 0 42.945312-5.507813 60.539062-17.679687 6.824219-4.699219 8.523438-14.046876 3.808594-20.859376zm-64.347656-51.453124c-4.117188 0-7.847656-1.671876-10.558594-4.367188-2.738281-2.714844-4.441406-6.476562-4.4375-10.632812 0-8.277344 6.722656-15 15-15 4.152344 0 7.914063 1.703124 10.632813 4.441406 2.691406 2.710937 4.363281 6.4375 4.363281 10.558594 0 8.273437-6.722656 15-15 15zm0 0" fill="#ff9100"/><g fill="#ff641a"><path d="m481.933594 104.992188c0 8.273437-6.726563 15-15 15-8.277344 0-15-6.726563-15-15 0-2.078126-.421875-4.054688-1.183594-5.851563-1.347656-9.867187-6.078125-18.484375-12.582031-25.304687l-20.597657 20.597656c2.695313 2.710937 4.367188 6.4375 4.367188 10.558594 0 8.273437-6.726562 14.996093-15 14.996093-4.121094 0-7.847656-1.667969-10.5625-4.363281l-21.195312 21.199219c8.144531 8.125 19.371093 13.164062 31.757812 13.164062 11.621094 0 22.003906-4.71875 29.996094-11.976562 7.996094 7.261719 18.378906 11.976562 30 11.976562 24.8125 0 44.996094-20.183593 44.996094-44.996093 0-28.921876-11.761719-55.152344-30.753907-74.164063l-21.199219 21.199219c13.558594 13.578125 21.957032 32.308594 21.957032 52.964844zm0 0"/><path d="m467.476562 192.304688c6.824219-4.703126 8.523438-14.046876 3.808594-20.859376-4.734375-6.839843-14.105468-8.539062-20.859375-3.808593-12.566406 8.6875-28.195312 12.347656-43.488281 12.347656-20.65625 0-39.386719-8.398437-52.964844-21.957031l-21.199218 21.203125c19.011718 18.992187 45.238281 30.753906 74.164062 30.753906 21.414062 0 42.945312-5.507813 60.539062-17.679687zm0 0"/></g></svg>