<svg height="512pt" viewBox="-61 0 512 512" width="512pt" xmlns="http://www.w3.org/2000/svg"><path d="m390 15v421c0 8.398438-6.597656 15-15 15h-300c-8.402344 0-15-6.601562-15-15v-421c0-8.402344 6.597656-15 15-15h300c8.402344 0 15 6.597656 15 15zm0 0" fill="#ff9100"/><path d="m390 15v421c0 8.398438-6.597656 15-15 15h-150v-451h150c8.402344 0 15 6.597656 15 15zm0 0" fill="#ff641a"/><path d="m330 181v316c0 8.398438-6.597656 15-15 15h-300c-8.402344 0-15-6.601562-15-15v-421c0-8.402344 6.597656-15 15-15h195zm0 0" fill="#fff4ca"/><path d="m330 181v316c0 8.398438-6.597656 15-15 15h-150v-451h45zm0 0" fill="#ffe1ba"/><path d="m173.402344 183.398438-8.402344-5.699219-81.597656-54.300781c-4.800782-3-10.503906-3.300782-15.601563-.597657-4.800781 2.695313-7.800781 7.796875-7.800781 13.199219v120c0 5.398438 3 10.496094 7.800781 13.199219 4.796875 2.699219 10.800781 2.398437 15.601563-.601563l81.597656-54.296875 8.402344-5.699219c4.195312-3 6.597656-7.503906 6.597656-12.601562 0-5.101562-2.402344-9.601562-6.597656-12.601562zm0 0" fill="#ff641a"/><path d="m90 316c0 8.285156-6.714844 15-15 15s-15-6.714844-15-15 6.714844-15 15-15 15 6.714844 15 15zm0 0" fill="#ffe1ba"/><path d="m270 436c0 8.285156-6.714844 15-15 15s-15-6.714844-15-15 6.714844-15 15-15 15 6.714844 15 15zm0 0" fill="#ffc473"/><path d="m325.585938 155.375-89.960938-89.960938c-2.832031-2.84375-8.488281-4.414062-10.625-4.414062h-15v105c0 8.285156 6.714844 15 15 15h105v-15c0-2.519531-1.742188-7.960938-4.414062-10.625zm0 0" fill="#ffc473"/><g fill="#ffe1ba"><path d="m270 316c0 8.398438-6.597656 15-15 15h-120c-8.402344 0-15-6.601562-15-15 0-8.402344 6.597656-15 15-15h120c8.402344 0 15 6.597656 15 15zm0 0"/><path d="m270 376c0 8.398438-6.597656 15-15 15h-180c-8.402344 0-15-6.601562-15-15 0-8.402344 6.597656-15 15-15h180c8.402344 0 15 6.597656 15 15zm0 0"/><path d="m210 436c0 8.398438-6.597656 15-15 15h-120c-8.402344 0-15-6.601562-15-15 0-8.402344 6.597656-15 15-15h120c8.402344 0 15 6.597656 15 15zm0 0"/></g><path d="m173.402344 208.597656-8.402344 5.703125v-36.601562l8.402344 5.699219c4.195312 3 6.597656 7.5 6.597656 12.601562 0 5.097656-2.402344 9.601562-6.597656 12.597656zm0 0" fill="#f03800"/><path d="m210 436c0 8.398438-6.597656 15-15 15h-30v-30h30c8.402344 0 15 6.597656 15 15zm0 0" fill="#ffc473"/><path d="m270 376c0 8.398438-6.597656 15-15 15h-90v-30h90c8.402344 0 15 6.597656 15 15zm0 0" fill="#ffc473"/><path d="m255 331h-90v-30h90c8.402344 0 15 6.597656 15 15 0 8.398438-6.597656 15-15 15zm0 0" fill="#ffc473"/></svg>