<svg height="512pt" viewBox="0 0 512 512" width="512pt" xmlns="http://www.w3.org/2000/svg"><path d="m381.699219 57-35.097657 48.898438c-3.902343 5.402343-11.402343 8.703124-20.101562 3.902343-21.300781-12.902343-45.898438-19.203125-70.5-19.203125-24.597656 0-49.199219 6.300782-70.496094 19.203125-6.902344 4.199219-15.601562 2.398438-20.101562-3.902343l-35.101563-48.898438c35.097657-26.402344 78.597657-42 125.699219-42s90.601562 15.597656 125.699219 42zm0 0" fill="#ff641a"/><path d="m381.699219 57-35.097657 48.898438c-3.902343 5.402343-11.402343 8.703124-20.101562 3.902343-21.300781-12.902343-45.898438-19.203125-70.5-19.203125v-75.597656c47.101562 0 90.601562 15.597656 125.699219 42zm0 0" fill="#f03800"/><path d="m481 225v15c0 8.398438-6.597656 15-15 15s-15-6.601562-15-15v-15c0-107.402344-87.597656-195-195-195s-195 87.597656-195 195v15c0 8.398438-6.597656 15-15 15s-15-6.601562-15-15v-15c0-124.199219 100.800781-225 225-225s225 100.800781 225 225zm0 0" fill="#676e74"/><path d="m361 240v137c0 8.398438-6.597656 15-15 15h-180c-8.402344 0-15-6.601562-15-15v-242c0-8.402344 6.597656-15 15-15h75zm0 0" fill="#fff4ca"/><path d="m361 240v137c0 8.398438-6.597656 15-15 15h-90v-257zm0 0" fill="#ffe1ba"/><path d="m361 225v15h-105c-8.402344 0-15-6.601562-15-15v-105h15c3.898438.902344 7.5 1.5 10.5 4.5l90 90c3.300781 3 3.898438 7.199219 4.5 10.5zm0 0" fill="#ffe1ba"/><path d="m361 225v15h-105v-120c3.898438.902344 7.5 1.5 10.5 4.5l90 90c3.300781 3 3.898438 7.199219 4.5 10.5zm0 0" fill="#ffc473"/><path d="m436 360.507812c-8.289062 0-15 6.707032-15 15v61.492188c0 24.8125-20.1875 45-45 45h-105l30 30h75c41.351562 0 75-33.648438 75-75v-61.492188c0-8.292968-6.710938-15-15-15zm0 0" fill="#474f54"/><path d="m481 225v15c0 8.398438-6.597656 15-15 15s-15-6.601562-15-15v-15c0-107.402344-87.597656-195-195-195v-30c124.199219 0 225 100.800781 225 225zm0 0" fill="#474f54"/><path d="m106 392h-15c-49.628906 0-91-41.371094-91-91s41.371094-91 91-91h15c8.289062 0 15 6.710938 15 15v152c0 8.289062-6.710938 15-15 15zm0 0" fill="#ff641a"/><path d="m421 392h-15c-8.289062 0-15-6.710938-15-15v-152c0-8.289062 6.710938-15 15-15h15c49.628906 0 91 41.371094 91 91s-41.371094 91-91 91zm0-30h.292969zm0 0" fill="#f03800"/><path d="m301 467v45h-75c-8.402344 0-15-6.601562-15-15v-30c0-24.902344 20.097656-45 45-45s45 20.097656 45 45zm0 0" fill="#ff641a"/><path d="m301 467v45h-45v-90c24.902344 0 45 20.097656 45 45zm0 0" fill="#f03800"/></svg>