<svg height="512pt" viewBox="0 0 512 512" width="512pt" xmlns="http://www.w3.org/2000/svg"><path d="m497 0h-482c-8.402344 0-15 6.597656-15 15v482c0 8.398438 6.597656 15 15 15h482c8.402344 0 15-6.601562 15-15v-482c0-8.402344-6.597656-15-15-15zm0 0" fill="#ff641a"/><path d="m512 15v482c0 8.398438-6.597656 15-15 15h-241v-512h241c8.402344 0 15 6.597656 15 15zm0 0" fill="#f03800"/><path d="m452 75v241c0 8.398438-6.597656 15-15 15h-46l-15-30-15 30h-30l-30-30h-90l-30 30h-30l-15-30-15 30h-45c-8.402344 0-15-6.601562-15-15v-241c0-8.402344 6.597656-15 15-15h361c8.402344 0 15 6.597656 15 15zm0 0" fill="#deecf1"/><path d="m452 75v241c0 8.398438-6.597656 15-15 15h-46l-15-30-15 30h-30l-30-30h-45v-241h181c8.402344 0 15 6.597656 15 15zm0 0" fill="#c6e2e7"/><path d="m76 451c-8.289062 0-15-6.710938-15-15v-60c0-8.289062 6.710938-15 15-15s15 6.710938 15 15v60c0 8.289062-6.710938 15-15 15zm0 0" fill="#fff4ca"/><path d="m136 451c-8.289062 0-15-6.710938-15-15v-60c0-8.289062 6.710938-15 15-15s15 6.710938 15 15v60c0 8.289062-6.710938 15-15 15zm0 0" fill="#fff4ca"/><path d="m256 211c-41.398438 0-75 33.601562-75 75v45h150v-45c0-41.398438-33.601562-75-75-75zm0 0" fill="#64e1dc"/><path d="m176.605469 215.394531c-5.859375-5.859375-15.351563-5.859375-21.210938 0l-30 30c-2.8125 2.8125-4.394531 6.621094-4.394531 10.605469v75h30v-68.789062l25.605469-25.605469c5.859375-5.859375 5.859375-15.351563 0-21.210938zm0 0" fill="#676e74"/><path d="m386.605469 245.394531-30-30c-5.859375-5.859375-15.351563-5.859375-21.210938 0s-5.859375 15.351563 0 21.210938l25.605469 25.605469v68.789062h30v-75c0-3.984375-1.582031-7.792969-4.394531-10.605469zm0 0" fill="#474f54"/><path d="m331 286v45h-75v-120c41.398438 0 75 33.601562 75 75zm0 0" fill="#00c8c8"/><path d="m256 121c-24.902344 0-45 20.097656-45 45 0 24.898438 20.097656 45 45 45s45-20.101562 45-45c0-24.902344-20.097656-45-45-45zm0 0" fill="#64e1dc"/><path d="m256 211v-90c24.902344 0 45 20.097656 45 45 0 24.898438-20.097656 45-45 45zm0 0" fill="#00c8c8"/><path d="m452 406c0 8.398438-6.597656 15-15 15h-241c-8.402344 0-15-6.601562-15-15 0-8.402344 6.597656-15 15-15h241c8.402344 0 15 6.597656 15 15zm0 0" fill="#474f54"/><path d="m452 406c0 8.398438-6.597656 15-15 15h-181v-30h181c8.402344 0 15 6.597656 15 15zm0 0" fill="#32393f"/><path d="m271 376v60c0 8.398438-6.597656 15-15 15s-15-6.601562-15-15v-60c0-8.402344 6.597656-15 15-15s15 6.597656 15 15zm0 0" fill="#fff4ca"/><path d="m271 376v60c0 8.398438-6.597656 15-15 15v-90c8.402344 0 15 6.597656 15 15zm0 0" fill="#ffe1ba"/></svg>