<svg height="512pt" viewBox="0 0 512 512" width="512pt" xmlns="http://www.w3.org/2000/svg"><path d="m482 91v90l-20.699219 30h-69.300781v-98.699219l30-21.300781c0-16.5 13.5-30 30-30s30 13.5 30 30zm0 0" fill="#fdbf00"/><path d="m482 91v90l-20.699219 30h-9.300781v-150c16.5 0 30 13.5 30 30zm0 0" fill="#ff9100"/><path d="m422 91v120h-60v-120c0-16.5 13.5-30 30-30s30 13.5 30 30zm0 0" fill="#ff641a"/><path d="m422 91v120h-30v-150c16.5 0 30 13.5 30 30zm0 0" fill="#f03800"/><path d="m482 181v90h-120l-30-30c-16.5 0-30-13.5-30-30s13.5-30 30-30zm0 0" fill="#676e74"/><path d="m482 211v60h-120l-30-30c-16.5 0-30-13.5-30-30zm0 0" fill="#474f54"/><path d="m362 421-30 30h-287c-8.402344 0-15-6.601562-15-15 0-8.402344 6.597656-15 15-15zm0 0" fill="#ff9100"/><path d="m332 271v150h-166v30h166v46c0 8.289062 6.710938 15 15 15s15-6.710938 15-15v-46h90v46c0 8.289062 6.710938 15 15 15s15-6.710938 15-15v-226zm0 0" fill="#ff641a"/><path d="m121 181h90v90h-90zm0 0" fill="#c6e2e7"/><path d="m166 181h45v90h-45zm0 0" fill="#a8d3d8"/><path d="m287 0h-242c-8.402344 0-15 6.597656-15 15v181c0 8.398438 6.597656 15 15 15h242c8.402344 0 15-6.601562 15-15v-181c0-8.402344-6.597656-15-15-15zm0 0" fill="#64e1dc"/><g fill="#ff9100"><path d="m45 512c-8.289062 0-15-6.710938-15-15v-211c0-8.289062 6.710938-15 15-15s15 6.710938 15 15v211c0 8.289062-6.710938 15-15 15zm0 0"/><path d="m362 331h90v30h-90zm0 0"/><path d="m362 391h90v30h-90zm0 0"/></g><path d="m287 0h-121v211h121c8.402344 0 15-6.601562 15-15v-181c0-8.402344-6.597656-15-15-15zm0 0" fill="#00c8c8"/><path d="m497 241h-482c-8.402344 0-15 6.597656-15 15v30c0 8.398438 6.597656 15 15 15h482c8.402344 0 15-6.601562 15-15v-30c0-8.402344-6.597656-15-15-15zm0 0" fill="#fdbf00"/><path d="m512 256v30c0 8.398438-6.597656 15-15 15h-331v-60h331c8.402344 0 15 6.597656 15 15zm0 0" fill="#ff9100"/></svg>