<svg height="512pt" viewBox="0 -16 512 512" width="512pt" xmlns="http://www.w3.org/2000/svg"><path d="m482 120v30l-31 30-43.199219 30h-251.101562l-42.699219-30h-24l-30-30v-30l30-30h361zm0 0" fill="#ff641a"/><path d="m482 135v15l-31 30-43.199219 30h-251.101562l-42.699219-30h-24l-30-30v-15zm0 0" fill="#f03800"/><path d="m451 90v90h46c8.402344 0 15-6.597656 15-15v-60c0-8.402344-6.597656-15-15-15zm0 0" fill="#676e74"/><path d="m512 135h-61v45h46c8.402344 0 15-6.597656 15-15zm0 0" fill="#474f54"/><path d="m451 93.601562v98.097657c0 38.699219-14.398438 103.5-30 168.300781l-30 30h-180l-30-30c0-85.199219-16.601562-116.101562-104.800781-119.699219-4.5-.300781-8.699219-2.402343-11.398438-6-2.699219-3.601562-3.898437-8.101562-2.699219-12.601562 6.300782-25.800781 26.097657-41.699219 51.898438-41.699219h67v-116.398438c0-18.601562 15-33.601562 33.601562-33.601562 18.898438 0 33.898438 15 33.898438 33.601562v-30c0-18.601562 15-33.601562 33.898438-33.601562 18.601562 0 33.601562 15 33.601562 33.601562v30c0-18.601562 15-33.601562 33.601562-33.601562 18.898438 0 33.898438 15 33.898438 33.601562v30c0-18.601562 15-33.601562 33.898438-33.601562 18.601562 0 33.601562 15 33.601562 33.601562zm0 0" fill="#ffe1ba"/><path d="m451 93.601562v98.097657c0 38.699219-14.398438 103.5-30 168.300781l-30 30h-75v-326.398438c0-18.601562 15-33.601562 33.601562-33.601562 18.898438 0 33.898438 15 33.898438 33.601562v30c0-18.601562 15-33.601562 33.898438-33.601562 18.601562 0 33.601562 15 33.601562 33.601562zm0 0" fill="#ffc473"/><path d="m271 164.992188c0 8.285156-6.714844 15-15 15s-15-6.714844-15-15c0-8.28125 6.714844-15 15-15s15 6.71875 15 15zm0 0" fill="#fff4ca"/><path d="m331 165c0 8.398438-6.597656 15-15 15s-15-6.601562-15-15c0-8.402344 6.597656-15 15-15s15 6.597656 15 15zm0 0" fill="#fff4ca"/><path d="m391 164.992188c0 8.285156-6.714844 15-15 15s-15-6.714844-15-15c0-8.28125 6.714844-15 15-15s15 6.71875 15 15zm0 0" fill="#ffe1ba"/><path d="m316 180v-30c8.402344 0 15 6.597656 15 15 0 8.398438-6.597656 15-15 15zm0 0" fill="#ffe1ba"/><path d="m421 360v105c0 8.398438-6.597656 15-15 15h-210c-8.402344 0-15-6.601562-15-15v-105zm0 0" fill="#fdbf00"/><path d="m421 360v105c0 8.398438-6.597656 15-15 15h-90v-120zm0 0" fill="#ff9100"/><path d="m361 404.992188c0 8.285156-6.714844 15-15 15s-15-6.714844-15-15c0-8.28125 6.714844-15 15-15s15 6.71875 15 15zm0 0" fill="#676e74"/><path d="m0 135c0 5.699219 3.300781 10.800781 8.402344 13.5l60 30c2.097656.898438 4.199218 1.5 6.597656 1.5h15v-90h-15c-2.402344 0-4.5.601562-6.597656 1.5l-60 30c-5.101563 2.699219-8.402344 7.800781-8.402344 13.5zm0 0" fill="#ffe1ba"/><path d="m0 135c0 5.699219 3.300781 10.800781 8.402344 13.5l60 30c2.097656.898438 4.199218 1.5 6.597656 1.5h15v-45zm0 0" fill="#ffc473"/></svg>