<svg height="512pt" viewBox="0 -16 512 512" width="512pt" xmlns="http://www.w3.org/2000/svg"><path d="m497 0h-301c-8.402344 0-15 6.597656-15 15v90c0 8.398438 6.597656 15 15 15h50.699219l25.800781 51.597656c2.699219 5.101563 7.800781 8.402344 13.5 8.402344s10.800781-3.300781 13.5-8.402344l25.800781-51.597656h171.699219c8.402344 0 15-6.601562 15-15v-90c0-8.402344-6.597656-15-15-15zm0 0" fill="#fff4ca"/><path d="m136 0h-121c-8.402344 0-15 6.597656-15 15v90c0 8.398438 6.597656 15 15 15h121c8.402344 0 15-6.601562 15-15v-90c0-8.402344-6.597656-15-15-15zm0 0" fill="#ff9100"/><path d="m0 60h151v45c0 8.398438-6.597656 15-15 15h-121c-8.402344 0-15-6.601562-15-15zm0 0" fill="#ff641a"/><path d="m512 60v45c0 8.398438-6.597656 15-15 15h-171.699219l-25.800781 51.597656c-2.699219 5.101563-7.800781 8.402344-13.5 8.402344s-10.800781-3.300781-13.5-8.402344l-25.800781-51.597656h-50.699219c-8.402344 0-15-6.601562-15-15v-45zm0 0" fill="#ffe1ba"/><path d="m497 150h-301c-8.402344 0-15 6.597656-15 15v90c0 8.398438 6.597656 15 15 15h50.699219l25.800781 51.597656c2.699219 5.101563 7.800781 8.402344 13.5 8.402344s10.800781-3.300781 13.5-8.402344l25.800781-51.597656h171.699219c8.402344 0 15-6.601562 15-15v-90c0-8.402344-6.597656-15-15-15zm0 0" fill="#fff4ca"/><path d="m136 150h-121c-8.402344 0-15 6.597656-15 15v90c0 8.398438 6.597656 15 15 15h121c8.402344 0 15-6.601562 15-15v-90c0-8.402344-6.597656-15-15-15zm0 0" fill="#ff9100"/><path d="m0 210h151v45c0 8.398438-6.597656 15-15 15h-121c-8.402344 0-15-6.601562-15-15zm0 0" fill="#ff641a"/><path d="m512 210v45c0 8.398438-6.597656 15-15 15h-171.699219l-25.800781 51.597656c-2.699219 5.101563-7.800781 8.402344-13.5 8.402344s-10.800781-3.300781-13.5-8.402344l-25.800781-51.597656h-50.699219c-8.402344 0-15-6.601562-15-15v-45zm0 0" fill="#ffe1ba"/><path d="m497 300h-301c-8.402344 0-15 6.597656-15 15v90c0 8.398438 6.597656 15 15 15h50.699219l25.800781 51.597656c2.699219 5.101563 7.800781 8.402344 13.5 8.402344s10.800781-3.300781 13.5-8.402344l25.800781-51.597656h171.699219c8.402344 0 15-6.601562 15-15v-90c0-8.402344-6.597656-15-15-15zm0 0" fill="#fff4ca"/><path d="m136 300h-121c-8.402344 0-15 6.597656-15 15v90c0 8.398438 6.597656 15 15 15h121c8.402344 0 15-6.601562 15-15v-90c0-8.402344-6.597656-15-15-15zm0 0" fill="#ff9100"/><path d="m0 360h151v45c0 8.398438-6.597656 15-15 15h-121c-8.402344 0-15-6.601562-15-15zm0 0" fill="#ff641a"/><path d="m512 360v45c0 8.398438-6.597656 15-15 15h-171.699219l-25.800781 51.597656c-2.699219 5.101563-7.800781 8.402344-13.5 8.402344s-10.800781-3.300781-13.5-8.402344l-25.800781-51.597656h-50.699219c-8.402344 0-15-6.601562-15-15v-45zm0 0" fill="#ffe1ba"/></svg>