<svg height="512pt" viewBox="-61 0 512 512" width="512pt" xmlns="http://www.w3.org/2000/svg"><path d="m390 497c0 8.398438-6.597656 15-15 15h-360c-8.402344 0-15-6.601562-15-15v-45l30-30h285l45 60h15c8.402344 0 15 6.597656 15 15zm0 0" fill="#474f54"/><path d="m390 497c0 8.398438-6.597656 15-15 15h-150v-90h90l45 60h15c8.402344 0 15 6.597656 15 15zm0 0" fill="#32393f"/><path d="m30 361h330v121h-330zm0 0" fill="#fff4ca"/><path d="m225 361h135v121h-135zm0 0" fill="#ffe1ba"/><path d="m390 15v422c0 8.398438-6.597656 15-15 15h-315l-30-30v-392l30-30h315c8.402344 0 15 6.597656 15 15zm0 0" fill="#676e74"/><path d="m390 15v422c0 8.398438-6.597656 15-15 15h-150v-452h150c8.402344 0 15 6.597656 15 15zm0 0" fill="#474f54"/><path d="m15 0c-8.285156 0-15 6.714844-15 15v437h60v-452zm0 0" fill="#32393f"/><path d="m315 151h-45v-15c0-24.898438-20.097656-45-45-45s-45 20.101562-45 45v15h-45c-8.402344 0-15 6.597656-15 15v30c0 52.808594 39.183594 96.625 90 103.925781v31.074219h-15c-8.402344 0-15 6.597656-15 15 0 8.398438 6.597656 15 15 15h60c8.402344 0 15-6.601562 15-15 0-8.402344-6.597656-15-15-15h-15v-31.074219c50.816406-7.304687 90-51.117187 90-103.925781v-30c0-8.402344-6.597656-15-15-15zm-165 45v-15h30v15c0 19.636719 12.503906 36.277344 30 42.441406v31.050782c-34.21875-6.953126-60-37.230469-60-73.492188zm150 0c0 36.261719-25.78125 66.539062-60 73.496094v-31.054688c17.496094-6.164062 30-22.804687 30-42.441406v-15h30zm0 0" fill="#deecf1"/><path d="m315 151h-45v-15c0-24.898438-20.097656-45-45-45v270h30c8.402344 0 15-6.601562 15-15 0-8.402344-6.597656-15-15-15h-15v-31.074219c50.816406-7.304687 90-51.117187 90-103.925781v-30c0-8.402344-6.597656-15-15-15zm-15 45c0 36.261719-25.78125 66.539062-60 73.496094v-31.054688c17.496094-6.164062 30-22.804687 30-42.441406v-15h30zm0 0" fill="#c6e2e7"/></svg>