<svg height="512pt" viewBox="-1 0 512 512.0007" width="512pt" xmlns="http://www.w3.org/2000/svg"><path d="m445.574219 267.980469c-7.800781-1.5-15.898438 3.300781-17.699219 11.402343l-7.199219 32.398438c-15.898437 70.792969-77.398437 124.191406-149.691406 124.191406h-30c-4.878906 0-9.707031-.25-14.480469-.726562 8.238282-7.054688 15.679688-16.320313 18.832032-28.085938 8.261718-30.816406-17.546876-61.5625-20.507813-64.960937-4.027344-4.597657-10.472656-6.3125-16.152344-4.335938-4.277343 1.464844-41.996093 15.160157-50.257812 46.007813-2.457031 9.179687-1.886719 18.34375.191406 26.785156-11.855469-7.9375-22.621094-17.515625-31.992187-28.429688 12.679687-3.324218 26.855468-9.847656 35.8125-22.640624 18.3125-26.144532 4.558593-63.847657 2.929687-68.066407-2.195313-5.683593-7.601563-9.476562-13.695313-9.59375-4.261718.042969-42.75-.054687-61.609374 24.265625l-3.804688-17.117187c9.0625-10.625 24.414062-32.707031 20.199219-56.585938-5.539063-31.433593-41.90625-48.378906-46.039063-50.210937-5.625-2.503906-12.082031-1.347656-16.476562 2.898437-3.253906 3.136719-31.640625 31.492188-26.101563 62.941407 4.296875 24.40625 27.183594 40.074218 39.132813 46.71875l5.230468 23.542968c.460938 2.089844.96875 4.167969 1.496094 6.234375-28.394531-2.972656-55.433594 19.125-58.542968 21.859375-4.601563 4.015625-6.3125 10.402344-4.335938 16.171875 1.464844 4.261719 16.1875 41.980469 47.007812 50.242188 18.1875 4.863281 38.253907-1.988281 54.578126-12.757813 8.113281 9.683594 17.148437 18.523438 26.96875 26.355469-.707032.4375-1.414063.886719-2.105469 1.371094-26.160157 18.308593-26.144531 59.457031-26.058594 63.96875.117187 6.09375 3.910156 11.5 9.59375 13.695312 20.757813 8.066407 49.335937 10.179688 68.066406-2.941406 14.324219-10.027344 20.792969-26.890625 23.707031-40.84375 12.402344 2.769531 25.253907 4.234375 38.414063 4.234375h29.996094c86.695312 0 160.191406-63.296875 178.792969-147.589844l7.199218-32.398437c1.800782-8.097657-3.296875-16.199219-11.398437-18zm0 0" fill="#fdbf00"/><path d="m300.984375 126.890625v69.097656c0 3.898438-1.5 7.800781-4.503906 10.496094l-29.996094 30c-2.699219 3-6.597656 4.5-10.5 4.5-3.898437 0-7.796875-1.5-10.496094-4.5l-30-30c-3-2.695313-4.5-6.597656-4.5-10.496094v-69.097656zm0 0" fill="#ff641a"/><path d="m255.984375 126.890625h45v69.097656c0 3.898438-1.5 7.800781-4.503906 10.496094l-29.996094 30c-2.699219 3-6.597656 4.5-10.5 4.5zm0 0" fill="#f03800"/><path d="m48.019531.132812c-6.296875-.734374-12.566406 2.417969-15.4375 8.15625-20.886719 41.777344-20.886719 91.636719 0 133.410157 2.5625 5.128906 7.792969 8.292969 13.417969 8.292969.660156 0 1.347656-.046876 2.019531-.132813l163.363281-22.234375v-105.257812zm0 0" fill="#fff4ca"/><path d="m479.390625 8.289062c-2.871094-5.726562-9.066406-8.964843-15.4375-8.15625l-163.363281 22.234376v105.257812l163.363281 22.234375c.671875.085937 1.347656.132813 2.019531.132813 5.625 0 10.851563-3.164063 13.417969-8.292969 20.886719-41.773438 20.886719-91.632813 0-133.410157zm0 0" fill="#ffe1ba"/><path d="m506.824219 346.476562c-3.125-2.734374-30.257813-24.796874-58.546875-21.859374.53125-2.066407 1.035156-4.144532 1.5-6.238282l5.230468-23.539062c11.949219-6.644532 34.835938-22.316406 39.148438-46.738282 5.519531-31.433593-22.867188-59.789062-26.117188-62.925781-4.394531-4.246093-10.914062-5.402343-16.476562-2.898437-4.132812 1.832031-40.503906 18.777344-46.039062 50.210937-4.214844 23.878907 11.136718 45.960938 20.199218 56.589844l-3.804687 17.113281c-18.851563-24.335937-57.179688-24.253906-61.613281-24.265625-6.09375.117188-11.496094 3.910157-13.695313 9.59375-1.625 4.21875-15.378906 41.921875 2.933594 68.066407 8.957031 12.796874 23.132812 19.320312 35.8125 22.640624-9.371094 10.914063-20.140625 20.492188-31.992188 28.433594 2.078125-8.445312 2.648438-17.609375.191407-26.789062-8.261719-30.847656-45.980469-44.542969-50.257813-46.007813-5.695313-1.933593-12.128906-.246093-16.15625 4.335938-2.957031 3.398437-28.765625 34.144531-20.503906 64.964843 3.152343 11.765626 10.59375 21.03125 18.828125 28.082032-4.769532.476562-9.597656.726562-14.480469.726562h-14.996094v30h14.996094c13.160156 0 26.011719-1.46875 38.414063-4.234375 2.910156 13.953125 9.375 30.816407 23.695312 40.839844 18.929688 13.242187 47.617188 10.898437 68.082031 2.945313 5.683594-2.195313 9.476563-7.601563 9.59375-13.695313.085938-4.511719.101563-45.660156-26.058593-63.96875-.691407-.484375-1.398438-.933594-2.105469-1.371094 9.785156-7.808593 18.796875-16.617187 26.890625-26.265625 16.191406 10.722656 36.734375 17.515625 54.644531 12.667969 30.832031-8.261719 45.554687-45.980469 47.019531-50.242187 1.976563-5.773438.261719-12.160157-4.335937-16.171876zm0 0" fill="#ff9100"/><path d="m255.984375 0c-41.394531 0-74.992187 33.597656-74.992187 74.996094 0 41.398437 33.597656 74.996094 74.992187 74.996094 41.398437 0 74.996094-33.597657 74.996094-74.996094 0-41.398438-33.597657-74.996094-74.996094-74.996094zm0 0" fill="#fdbf00"/><path d="m255.984375 149.992188v-149.992188c41.398437 0 74.996094 33.597656 74.996094 74.996094 0 41.398437-33.597657 74.996094-74.996094 74.996094zm0 0" fill="#ff9100"/><path d="m255.984375 30c-24.898437 0-44.996094 20.097656-44.996094 44.996094 0 24.898437 20.097657 44.996094 44.996094 44.996094 24.902344 0 45-20.097657 45-44.996094 0-24.898438-20.097656-44.996094-45-44.996094zm0 0" fill="#ff9100"/><path d="m255.984375 119.992188v-89.992188c24.902344 0 45 20.097656 45 44.996094 0 24.898437-20.097656 44.996094-45 44.996094zm0 0" fill="#ff641a"/><path d="m270.984375 74.996094c0 8.398437-6.597656 15-15 15-8.398437 0-14.996094-6.601563-14.996094-15 0-8.402344 6.597657-15 14.996094-15 8.402344 0 15 6.597656 15 15zm0 0" fill="#fdbf00"/><path d="m270.984375 74.996094c0 8.398437-6.597656 15-15 15v-30c8.402344 0 15 6.597656 15 15zm0 0" fill="#ff9100"/></svg>