<svg height="512pt" viewBox="0 0 512 512" width="512pt" xmlns="http://www.w3.org/2000/svg"><path d="m30 376v61c0 8.398438 6.597656 15 15 15h46v30h-15c-8.289062 0-15 6.710938-15 15s6.710938 15 15 15h60c8.289062 0 15-6.710938 15-15s-6.710938-15-15-15h-15v-30h346c8.402344 0 15-6.601562 15-15v-61zm0 0" fill="#474f54"/><path d="m256 376v76h135v30h-15c-8.289062 0-15 6.710938-15 15s6.710938 15 15 15h60c8.289062 0 15-6.710938 15-15s-6.710938-15-15-15h-15v-30h46c8.402344 0 15-6.601562 15-15v-61zm0 0" fill="#32393f"/><path d="m512 226v150c0 8.398438-6.597656 15-15 15h-482c-8.402344 0-15-6.601562-15-15v-150c0-8.402344 6.597656-15 15-15h482c8.402344 0 15 6.597656 15 15zm0 0" fill="#deecf1"/><path d="m512 226v150c0 8.398438-6.597656 15-15 15h-241v-180h241c8.402344 0 15 6.597656 15 15zm0 0" fill="#c6e2e7"/><path d="m420.699219 18.300781-60.601563 280.597657h-208.195312l-60.601563-280.597657c-2.101562-9.300781 5.097657-18.300781 14.699219-18.300781h135l15 30 15-30h135c9 0 16.5 9.300781 14.699219 18.300781zm0 0" fill="#fff4ca"/><path d="m420.699219 18.300781-60.601563 280.597657h-104.097656v-268.898438l15-30h135c9 0 16.5 9.300781 14.699219 18.300781zm0 0" fill="#ffe1ba"/><path d="m271 0v46c0 8.398438-6.597656 15-15 15s-15-6.601562-15-15v-46zm0 0" fill="#ffe1ba"/><path d="m421 316c0 8.285156-6.714844 15-15 15s-15-6.714844-15-15 6.714844-15 15-15 15 6.714844 15 15zm0 0" fill="#32393f"/><path d="m121 316c0 8.285156-6.714844 15-15 15s-15-6.714844-15-15 6.714844-15 15-15 15 6.714844 15 15zm0 0" fill="#474f54"/><path d="m271 106v30c0 8.398438-6.597656 15-15 15s-15-6.601562-15-15v-30c0-8.402344 6.597656-15 15-15s15 6.597656 15 15zm0 0" fill="#ffe1ba"/><path d="m256 61v-61h15v46c0 8.398438-6.597656 15-15 15zm0 0" fill="#ffc473"/><path d="m256 151v-60c8.402344 0 15 6.597656 15 15v30c0 8.398438-6.597656 15-15 15zm0 0" fill="#ffc473"/><path d="m256 181c-57.898438 0-105 47.101562-105 105 0 3.898438.300781 7.800781.601562 11.398438 5.699219 53.402343 50.699219 93.601562 104.398438 93.601562 27 0 51.597656-10.199219 70.199219-26.699219 18.601562-16.800781 31.199219-40.203125 34.199219-66.898437.300781-3.601563.601562-7.5.601562-11.402344 0-57.898438-47.101562-105-105-105zm0 0" fill="#676e74"/><path d="m361 286c0 3.898438-.300781 7.800781-.601562 11.398438-3 26.699218-15.597657 50.101562-34.199219 66.902343-18.601563 16.5-43.199219 26.699219-70.199219 26.699219v-210c57.898438 0 105 47.101562 105 105zm0 0" fill="#474f54"/><path d="m256 211c-41.398438 0-75 33.601562-75 75s33.601562 75 75 75 75-33.300781 75-75c0-41.398438-33.601562-75-75-75zm0 0" fill="#ffe1ba"/><path d="m331 286c0 41.699219-33.601562 75-75 75v-150c41.398438 0 75 33.601562 75 75zm0 0" fill="#ffc473"/><path d="m271 286c0 8.398438-6.597656 15-15 15s-15-6.601562-15-15c0-8.402344 6.597656-15 15-15s15 6.597656 15 15zm0 0" fill="#fff4ca"/><path d="m271 286c0 8.398438-6.597656 15-15 15v-30c8.402344 0 15 6.597656 15 15zm0 0" fill="#ffe1ba"/></svg>