<svg height="512pt" viewBox="-61 0 512 512" width="512pt" xmlns="http://www.w3.org/2000/svg"><path d="m390 497c0 8.398438-6.597656 15-15 15h-360c-8.402344 0-15-6.601562-15-15 0-42 14.398438-84.402344 40.800781-117.101562l37.5-47.097657h233.398438l37.5 47.097657c26.402343 32.699218 40.800781 75.101562 40.800781 117.101562zm0 0" fill="#ff641a"/><path d="m390 497c0 8.398438-6.597656 15-15 15h-180v-179.199219h116.699219l37.5 47.097657c26.402343 32.699218 40.800781 75.101562 40.800781 117.101562zm0 0" fill="#f03800"/><path d="m390 196c0 107.398438-87.597656 195-195 195s-195-87.601562-195-195c0-81 49.5-151.601562 120-181l30 32.699219 90-9 30-23.699219c70.5 29.398438 120 100 120 181zm0 0" fill="#deecf1"/><path d="m390 196c0 107.398438-87.597656 195-195 195v-347.800781l45-4.5 30-23.699219c70.5 29.398438 120 100 120 181zm0 0" fill="#c6e2e7"/><path d="m210 436c0 8.398438-6.597656 15-15 15s-15-6.601562-15-15c0-8.402344 6.597656-15 15-15s15 6.597656 15 15zm0 0" fill="#ffe1ba"/><path d="m270 436c0 8.285156-6.714844 15-15 15s-15-6.714844-15-15 6.714844-15 15-15 15 6.714844 15 15zm0 0" fill="#ffc473"/><path d="m150 436c0 8.285156-6.714844 15-15 15s-15-6.714844-15-15 6.714844-15 15-15 15 6.714844 15 15zm0 0" fill="#ffe1ba"/><path d="m210 436c0 8.398438-6.597656 15-15 15v-30c8.402344 0 15 6.597656 15 15zm0 0" fill="#ffc473"/><path d="m300 196c0 56.699219-45.902344 105-105 105-60 0-105.902344-47.699219-105-106.800781.300781-11.398438 2.402344-22.800781 6.300781-33.898438 16.5-44.402343 23.699219-79.902343 23.699219-112.601562v-32.699219c23.101562-9.601562 48.300781-15 75-15s51.898438 5.398438 75 15v23.699219c0 46.800781 6.597656 83.800781 20.398438 114.101562 6.300781 13.5 9.601562 28.199219 9.601562 43.199219zm0 0" fill="#474f54"/><path d="m195 301v-301c26.699219 0 51.898438 5.398438 75 15v23.699219c0 46.800781 6.597656 83.800781 20.398438 114.101562 6.300781 13.5 9.601562 28.199219 9.601562 43.199219 0 56.699219-45.902344 105-105 105zm0 0" fill="#32393f"/><path d="m195 151c-24.902344 0-45 20.097656-45 45 0 24.898438 20.097656 45 45 45s45-20.101562 45-45c0-24.902344-20.097656-45-45-45zm0 0" fill="#ffe1ba"/><path d="m240 196c0 24.898438-20.097656 45-45 45v-90c24.902344 0 45 20.097656 45 45zm0 0" fill="#ffc473"/></svg>