<svg height="512pt" viewBox="0 0 512 512" width="512pt" xmlns="http://www.w3.org/2000/svg"><path d="m30 45h452v301h-452zm0 0" fill="#ff641a"/><path d="m256 45h226v301h-226zm0 0" fill="#f03800"/><path d="m512 346c0 8.398438-6.597656 15-15 15h-482c-8.402344 0-15-6.601562-15-15 0-8.402344 6.597656-15 15-15h482c8.402344 0 15 6.597656 15 15zm0 0" fill="#474f54"/><path d="m512 346c0 8.398438-6.597656 15-15 15h-241v-30h241c8.402344 0 15 6.597656 15 15zm0 0" fill="#32393f"/><path d="m324.402344 153.398438-68.402344-45.597657-21.597656-14.402343c-4.800782-3-10.503906-3.300782-15.601563-.597657-4.800781 2.699219-7.800781 7.800781-7.800781 13.199219v120c0 5.398438 3 10.5 7.800781 13.199219 4.796875 2.699219 10.800781 2.398437 15.601563-.601563l90-60c4.195312-2.996094 6.597656-7.5 6.597656-12.597656 0-5.101562-2.402344-9.601562-6.597656-12.601562zm0 0" fill="#deecf1"/><path d="m324.402344 178.597656-68.402344 45.601563v-116.398438l68.402344 45.597657c4.195312 3 6.597656 7.5 6.597656 12.601562 0 5.097656-2.402344 9.601562-6.597656 12.597656zm0 0" fill="#c6e2e7"/><path d="m497 30h-226v-15c0-8.402344-6.597656-15-15-15s-15 6.597656-15 15v15h-226c-8.402344 0-15 6.597656-15 15 0 8.398438 6.597656 15 15 15h482c8.402344 0 15-6.601562 15-15 0-8.402344-6.597656-15-15-15zm0 0" fill="#474f54"/><path d="m497 30h-226v-15c0-8.402344-6.597656-15-15-15v60h241c8.402344 0 15-6.601562 15-15 0-8.402344-6.597656-15-15-15zm0 0" fill="#32393f"/><path d="m136 391c-24.8125 0-45-20.1875-45-45s20.1875-45 45-45 45 20.1875 45 45-20.1875 45-45 45zm0 0" fill="#64e1dc"/><path d="m136 391c-41.351562 0-75 33.648438-75 75v31c0 8.289062 6.710938 15 15 15h105l30-30v-16c0-41.351562-33.648438-75-75-75zm0 0" fill="#64e1dc"/><path d="m376 391c-24.8125 0-45-20.1875-45-45s20.1875-45 45-45 45 20.1875 45 45-20.1875 45-45 45zm0 0" fill="#00c8c8"/><path d="m376 391c-41.351562 0-75 33.648438-75 75v16l30 30h105c8.289062 0 15-6.710938 15-15v-31c0-41.351562-33.648438-75-75-75zm0 0" fill="#00c8c8"/><path d="m331 466v46h-150v-46c0-41.398438 33.601562-75 75-75 20.699219 0 39.601562 8.398438 53.101562 21.898438 13.496094 13.5 21.898438 32.402343 21.898438 53.101562zm0 0" fill="#9bfcff"/><path d="m309.101562 412.898438c13.496094 13.5 21.898438 32.402343 21.898438 53.101562v46h-75v-121c20.699219 0 39.601562 8.398438 53.101562 21.898438zm0 0" fill="#76e2f8"/><path d="m256 301c-24.902344 0-45 20.097656-45 45 0 24.898438 20.097656 45 45 45s45-20.101562 45-45c0-24.902344-20.097656-45-45-45zm0 0" fill="#9bfcff"/><path d="m301 346c0 24.898438-20.097656 45-45 45v-90c24.902344 0 45 20.097656 45 45zm0 0" fill="#76e2f8"/></svg>