<svg height="512pt" viewBox="0 0 512 512" width="512pt" xmlns="http://www.w3.org/2000/svg"><path d="m376 482h-45v-76h-150v76h-45c-8.402344 0-15 6.597656-15 15 0 8.398438 6.597656 15 15 15h240c8.402344 0 15-6.601562 15-15 0-8.402344-6.597656-15-15-15zm0 0" fill="#deecf1"/><path d="m376 482h-45v-76h-75v106h120c8.402344 0 15-6.601562 15-15 0-8.402344-6.597656-15-15-15zm0 0" fill="#c6e2e7"/><path d="m497 0h-482c-8.402344 0-15 6.597656-15 15v391c0 8.398438 6.597656 15 15 15h482c8.402344 0 15-6.601562 15-15v-391c0-8.402344-6.597656-15-15-15zm0 0" fill="#64e1dc"/><path d="m512 15v391c0 8.398438-6.597656 15-15 15h-241v-421h241c8.402344 0 15 6.597656 15 15zm0 0" fill="#00c8c8"/><path d="m421 271v45c0 8.398438-6.597656 15-15 15h-300c-8.402344 0-15-6.601562-15-15v-45l45-30h240zm0 0" fill="#676e74"/><path d="m421 271v45c0 8.398438-6.597656 15-15 15h-150v-90h120zm0 0" fill="#474f54"/><path d="m421 106v165h-105c-24.902344 0-45 20.097656-45 45 0 8.398438-6.597656 15-15 15s-15-6.601562-15-15c0-24.902344-20.097656-45-45-45h-105v-165c0-8.402344 6.597656-15 15-15h90c24.601562 0 46.199219 11.699219 60 30 13.800781-18.300781 35.398438-30 60-30h90c8.402344 0 15 6.597656 15 15zm0 0" fill="#fff4ca"/><path d="m421 106v165h-105c-24.902344 0-45 20.097656-45 45 0 8.398438-6.597656 15-15 15v-210c13.800781-18.300781 35.398438-30 60-30h90c8.402344 0 15 6.597656 15 15zm0 0" fill="#ffe1ba"/></svg>