<svg height="512pt" viewBox="0 0 512 512" width="512pt" xmlns="http://www.w3.org/2000/svg"><path d="m376 482h-45v-76h-150v76h-45c-8.402344 0-15 6.597656-15 15 0 8.398438 6.597656 15 15 15h240c8.402344 0 15-6.601562 15-15 0-8.402344-6.597656-15-15-15zm0 0" fill="#deecf1"/><path d="m376 482h-45v-76h-75v106h120c8.402344 0 15-6.601562 15-15 0-8.402344-6.597656-15-15-15zm0 0" fill="#c6e2e7"/><path d="m497 0h-482c-8.402344 0-15 6.597656-15 15v391c0 8.398438 6.597656 15 15 15h482c8.402344 0 15-6.601562 15-15v-391c0-8.402344-6.597656-15-15-15zm0 0" fill="#64e1dc"/><path d="m512 15v391c0 8.398438-6.597656 15-15 15h-241v-421h241c8.402344 0 15 6.597656 15 15zm0 0" fill="#00c8c8"/><path d="m256 174.699219-15-15v-38.699219h15c8.402344 0 15-6.601562 15-15 0-8.402344-6.597656-15-15-15h-120c-8.402344 0-15 6.597656-15 15 0 8.398438 6.597656 15 15 15h15v38.699219l-13.199219 13.199219c-2.703125 2.703124-5.101562 5.402343-7.5 8.101562l5.699219 30 120 29.097656 3.601562.902344 22.796876-30c-6.898438-13.199219-15.898438-25.5-26.398438-36.300781zm0 0" fill="#deecf1"/><g fill="#c6e2e7"><path d="m436 151h-120c-8.289062 0-15 6.710938-15 15s6.710938 15 15 15h15v105c0 24.8125 20.1875 45 45 45s45-20.1875 45-45v-105h15c8.289062 0 15-6.710938 15-15s-6.710938-15-15-15zm0 0"/><path d="m282.398438 211-22.796876 30-3.601562-.902344v-65.398437c10.5 10.800781 19.5 23.101562 26.398438 36.300781zm0 0"/><path d="m256 121v-30c8.402344 0 15 6.597656 15 15 0 8.398438-6.597656 15-15 15zm0 0"/></g><path d="m301 286c0 24.898438-20.097656 45-45 45h-120c-24.902344 0-45-20.101562-45-45 0-26.398438 6.300781-52.199219 18.601562-75 5.699219-10.5 12.597657-20.699219 20.699219-30h5.699219c19.5 0 45.902344 6 66.597656 16.5 16.503906 8.398438 34.800782 12.898438 53.402344 13.199219 1.199219.300781 2.402344.300781 3.601562.300781h22.796876c5.101562 9.601562 9.300781 19.5 12.003906 30 4.496094 14.398438 6.597656 29.699219 6.597656 45zm0 0" fill="#ff641a"/><path d="m301 286c0 24.898438-20.097656 45-45 45v-120.300781c1.199219.300781 2.402344.300781 3.601562.300781h22.796876c5.101562 9.601562 9.300781 19.5 12.003906 30 4.496094 14.398438 6.597656 29.699219 6.597656 45zm0 0" fill="#f03800"/></svg>