<svg height="512pt" viewBox="0 0 512 512" width="512pt" xmlns="http://www.w3.org/2000/svg"><path d="m377 482h-45v-76h-152v76h-45c-8.402344 0-15 6.597656-15 15 0 8.398438 6.597656 15 15 15h242c8.402344 0 15-6.601562 15-15 0-8.402344-6.597656-15-15-15zm0 0" fill="#deecf1"/><path d="m377 482h-45v-76h-76v106h121c8.402344 0 15-6.601562 15-15 0-8.402344-6.597656-15-15-15zm0 0" fill="#c6e2e7"/><path d="m497 0h-482c-8.402344 0-15 6.597656-15 15v391c0 8.398438 6.597656 15 15 15h482c8.402344 0 15-6.601562 15-15v-391c0-8.402344-6.597656-15-15-15zm0 0" fill="#64e1dc"/><path d="m512 15v391c0 8.398438-6.597656 15-15 15h-241v-421h241c8.402344 0 15 6.597656 15 15zm0 0" fill="#00c8c8"/><path d="m180 151h152v90h-152zm0 0" fill="#deecf1"/><path d="m256 151h76v90h-76zm0 0" fill="#c6e2e7"/><path d="m205.605469 125.394531-30-30c-2.8125-2.8125-6.621094-4.394531-10.605469-4.394531h-15l-15 30-15-30h-15c-3.984375 0-7.792969 1.582031-10.605469 4.394531l-30 30c-2.8125 2.8125-4.394531 6.621094-4.394531 10.605469v120c0 3.984375 1.582031 7.792969 4.394531 10.605469l30 30c2.8125 2.8125 6.621094 4.394531 10.605469 4.394531h15l15-30 15 30h15c3.984375 0 7.792969-1.582031 10.605469-4.394531l30-30c2.8125-2.8125 4.394531-6.621094 4.394531-10.605469v-120c0-3.984375-1.582031-7.792969-4.394531-10.605469zm0 0" fill="#676e74"/><g fill="#474f54"><path d="m135 151c8.289062 0 15-6.710938 15-15v-45h-30v45c0 8.289062 6.710938 15 15 15zm0 0"/><path d="m135 241c-8.289062 0-15 6.710938-15 15v45h30v-45c0-8.289062-6.710938-15-15-15zm0 0"/><path d="m447.605469 125.394531-30-30c-2.8125-2.8125-6.621094-4.394531-10.605469-4.394531h-15l-15 30-15-30h-15c-3.984375 0-7.792969 1.582031-10.605469 4.394531l-30 30c-2.8125 2.8125-4.394531 6.621094-4.394531 10.605469v120c0 3.984375 1.582031 7.792969 4.394531 10.605469l30 30c2.8125 2.8125 6.621094 4.394531 10.605469 4.394531h15l15-30 15 30h15c3.984375 0 7.792969-1.582031 10.605469-4.394531l30-30c2.8125-2.8125 4.394531-6.621094 4.394531-10.605469v-120c0-3.984375-1.582031-7.792969-4.394531-10.605469zm0 0"/></g><path d="m377 151c8.289062 0 15-6.710938 15-15v-45h-30v45c0 8.289062 6.710938 15 15 15zm0 0" fill="#32393f"/><path d="m377 241c-8.289062 0-15 6.710938-15 15v45h30v-45c0-8.289062-6.710938-15-15-15zm0 0" fill="#32393f"/></svg>