<svg height="512pt" viewBox="0 0 512 512" width="512pt" xmlns="http://www.w3.org/2000/svg"><path d="m376 482h-45v-76h-150v76h-45c-8.402344 0-15 6.597656-15 15 0 8.398438 6.597656 15 15 15h240c8.402344 0 15-6.601562 15-15 0-8.402344-6.597656-15-15-15zm0 0" fill="#deecf1"/><path d="m376 482h-45v-76h-75v106h120c8.402344 0 15-6.601562 15-15 0-8.402344-6.597656-15-15-15zm0 0" fill="#c6e2e7"/><path d="m497 0h-482c-8.402344 0-15 6.597656-15 15v391c0 8.398438 6.597656 15 15 15h482c8.402344 0 15-6.601562 15-15v-391c0-8.402344-6.597656-15-15-15zm0 0" fill="#64e1dc"/><path d="m512 15v391c0 8.398438-6.597656 15-15 15h-241v-421h241c8.402344 0 15 6.597656 15 15zm0 0" fill="#00c8c8"/><path d="m271 121c-4.800781 0-9.300781.597656-13.800781 1.800781-.296875-.601562-.597657-.902343-1.199219-1.5-14.097656-18.902343-36-30.300781-60-30.300781-24.601562 0-47.101562 12-61.199219 31.800781-4.5-1.203125-9-1.800781-13.800781-1.800781-33 0-61 27-61 60 0 18.898438 9.300781 37.199219 24.601562 48.300781 10.496094 7.800781 23.796876 11.699219 36.398438 11.699219v75c0 8.398438 6.597656 15 15 15h120c8.402344 0 15-6.601562 15-15v-75c24-.300781 46.199219-14.402344 55.800781-37.5 2.699219-7.199219 4.199219-14.699219 4.199219-22.5 0-33-27-60-60-60zm0 0" fill="#fff4ca"/><path d="m421 316c0 8.289062 6.710938 15 15 15s15-6.710938 15-15v-45l-30-30zm0 0" fill="#b35f49"/><g fill="#ffe1ba"><path d="m256 331v-209.699219c.601562.597657.902344.898438 1.199219 1.5 4.5-1.203125 9-1.800781 13.800781-1.800781 33 0 60 27 60 60 0 7.800781-1.5 15.300781-4.199219 22.5-9.601562 23.097656-31.800781 37.199219-55.800781 37.5v75c0 8.398438-6.597656 15-15 15zm0 0"/><path d="m436 91c-41.351562 0-75 33.648438-75 75v90c0 8.289062 6.710938 15 15 15h75v-165c0-8.289062-6.710938-15-15-15zm0 0"/></g></svg>