<svg height="512pt" viewBox="-31 0 512 512" width="512pt" xmlns="http://www.w3.org/2000/svg"><path d="m448.199219 308.199219c-2.699219 4.800781-7.800781 7.800781-13.199219 7.800781-24.902344 0-45 20.097656-45 45v45c0 24.898438-20.097656 45-45 45h-30c-24.902344 0-45 21.097656-45 46 0 3.898438-1.5 7.800781-4.5 10.5-2.699219 3-6.601562 4.5-10.5 4.5h-150c-8.402344 0-15-6.902344-15-15 0-69-19.800781-136.601562-57.597656-193.300781-21.300782-32.101563-32.402344-69.300781-32.402344-107.699219 0-80.398438 49.199219-151.300781 120-181l45 56.398438 15 19.601562 30-90.402344c92.699219 7.203125 168.601562 81.101563 180 169.300782v34.199218l57.597656 88.5c3.003906 4.800782 3.304688 10.503906.601563 15.601563zm0 0" fill="#ffe1ba"/><path d="m448.199219 308.199219c-2.699219 4.800781-7.800781 7.800781-13.199219 7.800781-24.902344 0-45 20.097656-45 45v45c0 24.898438-20.097656 45-45 45h-30c-24.902344 0-45 21.097656-45 46 0 3.898438-1.5 7.800781-4.5 10.5-2.699219 3-6.601562 4.5-10.5 4.5h-90v-440.601562l15 19.601562 30-90.402344c92.699219 7.203125 168.601562 81.101563 180 169.300782v34.199218l57.597656 88.5c3.003906 4.800782 3.304688 10.503906.601563 15.601563zm0 0" fill="#ffc473"/><path d="m210 .597656v180.402344h-90v-166c14.398438-6 29.398438-10.199219 45-12.601562 9.902344-1.5 19.800781-2.398438 30-2.398438 5.101562 0 9.902344.300781 15 .597656zm0 0" fill="#676e74"/><path d="m210 181h-45v-178.601562c9.902344-1.5 19.800781-2.398438 30-2.398438 5.097656 0 9.902344.300781 15 .597656zm0 0" fill="#474f54"/><path d="m270.300781 342.398438c-1.5 6.902343-7.800781 11.402343-14.398437 11.402343-1.203125 0-2.402344-.300781-3.601563-.601562l-87.300781-21.898438-3.601562-.902343c-6.597657-1.5-11.398438-7.5-11.398438-14.398438v-60c0-8.402344 6.597656-15 15-15s15 6.597656 15 15v48.300781l79.5 19.796875c8.101562 2.101563 12.902344 10.203125 10.800781 18.300782zm0 0" fill="#474f54"/><path d="m270.300781 342.398438c-1.5 6.902343-7.800781 11.402343-14.398437 11.402343-1.203125 0-2.402344-.300781-3.601563-.601562l-87.300781-21.898438v-90.300781c8.402344 0 15 6.597656 15 15v48.300781l79.5 19.796875c8.101562 2.101563 12.902344 10.203125 10.800781 18.300782zm0 0" fill="#32393f"/><path d="m165 121c-41.398438 0-75 33.601562-75 75s33.601562 75 75 75 75-33.601562 75-75-33.601562-75-75-75zm0 0" fill="#ff641a"/><path d="m240 196c0 41.398438-33.601562 75-75 75v-150c41.398438 0 75 33.601562 75 75zm0 0" fill="#f03800"/><path d="m285 391c-24.8125 0-45-20.1875-45-45s20.1875-45 45-45 45 20.1875 45 45-20.183594 45-45 45zm0 0" fill="#474f54"/></svg>