<svg height="511pt" viewBox="-15 1 511 511.99987" width="511pt" xmlns="http://www.w3.org/2000/svg"><path d="m478.097656 292.597656-57.597656-88.5v-34.195312c-12-93.003906-95.402344-170.203125-195-169.902344-10.203125 0-20.097656.898438-30 2.398438-94.199219 14.703124-165 97-165 193.601562 0 38.398438 11.101562 75.597656 32.402344 107.699219 37.796875 56.699219 57.597656 124.300781 57.597656 193.300781 0 8.097656 6.597656 15 15 15h150c3.898438 0 7.800781-1.5 10.5-4.5 3-2.699219 4.5-6.601562 4.5-10.5 0-24.902344 20.097656-46 45-46h30c24.898438 0 45-20.101562 45-45v-45c0-24.902344 20.097656-45 45-45 5.398438 0 10.496094-3 13.199219-7.800781 2.699219-5.097657 2.398437-10.800781-.601563-15.601563zm0 0" fill="#ffe1ba"/><path d="m478.699219 308.199219c-2.703125 4.800781-7.800781 7.800781-13.199219 7.800781-24.902344 0-45 20.097656-45 45v45c0 24.898438-20.101562 45-45 45h-30c-24.902344 0-45 21.097656-45 46 0 3.898438-1.5 7.800781-4.5 10.5-2.699219 3-6.601562 4.5-10.5 4.5h-90v-509.601562c9.902344-1.5 19.796875-2.398438 30-2.398438 99.597656-.300781 183 76.898438 195 169.902344v34.195312l57.597656 88.5c3 4.800782 3.300782 10.503906.601563 15.601563zm0 0" fill="#ffc473"/><path d="m195.5 61h-165c-16.570312 0-30 13.433594-30 30s13.429688 60 30 60h135l45-60v-15c0-8.285156-6.71875-15-15-15zm0 0" fill="#32393f"/><path d="m45.5 91c-8.285156 0-15 6.714844-15 15s6.714844 15 15 15l16.875 30h125.3125l22.8125-30v-30zm0 0" fill="#deecf1"/><path d="m.5 91v225c0 24.851562 20.148438 45 45 45h150c8.285156 0 15-6.714844 15-15v-225h-180c-16.570312 0-30-13.433594-30-30zm0 0" fill="#474f54"/><path d="m268.699219 188.800781c-2.699219-4.800781-7.800781-7.800781-13.199219-7.800781h-15v-45c0-8.398438-6.597656-15-15-15h-60c-8.402344 0-15 6.601562-15 15v45h-15c-5.398438 0-10.5 3-13.199219 7.800781-2.703125 5.097657-2.402343 10.800781.601563 15.597657l60 90c2.996094 4.199218 7.5 6.601562 12.597656 6.601562s9.597656-2.402344 12.597656-6.601562l60-90c3-4.796876 3.304688-10.496094.601563-15.597657zm0 0" fill="#64e1dc"/><path d="m268.097656 204.398438-60 90c-3 4.199218-7.5 6.601562-12.597656 6.601562v-180h30c8.402344 0 15 6.601562 15 15v45h15c5.398438 0 10.5 3 13.199219 7.800781 2.703125 5.101563 2.398437 10.800781-.601563 15.597657zm0 0" fill="#00c8c8"/></svg>