<svg height="512pt" viewBox="0 0 512 512" width="512pt" xmlns="http://www.w3.org/2000/svg"><path d="m376.992188 242c-74.398438 0-135 60.597656-135 135 0 74.398438 60.601562 135 135 135 74.398437 0 135-60.601562 135-135 0-74.402344-60.601563-135-135-135zm0 0" fill="#64e1dc"/><path d="m511.992188 377c0 74.398438-60.601563 135-135 135v-270c74.398437 0 135 60.597656 135 135zm0 0" fill="#00c8c8"/><path d="m439.867188 292.910156c-14.363282-10.769531-30.878907-17.359375-47.878907-19.792968-5.300781-.761719-10.652343 13.886718-15.996093 13.933593-4.679688.046875-9.359376-14.597656-14-13.933593-17 2.433593-33.515626 9.023437-47.878907 19.792968-3.972656 2.957032 2.835938 16.851563-.761719 20.449219-3.601562 3.601563-17.496093-3.210937-20.449218.765625-10.769532 14.359375-17.359375 30.878906-19.792969 47.878906-.761719 5.300782 13.882813 10.648438 13.933594 15.996094.042969 4.679688-14.601563 9.355469-13.933594 13.996094 2.433594 17 9.023437 33.519531 19.792969 47.878906 2.957031 3.976562 16.847656-2.835938 20.449218.765625 3.597657 3.597656-3.210937 17.492187.761719 20.449219 14.363281 10.769531 30.878907 17.359375 47.878907 19.792968 4.640624.664063 9.320312-13.980468 14-13.933593 5.34375.050781 10.695312 14.695312 15.996093 13.933593 17-2.433593 33.515625-9.023437 47.878907-19.792968 3.972656-2.957032-2.835938-16.851563.761718-20.449219 3.601563-3.601563 17.496094 3.210937 20.449219-.765625 10.769531-14.359375 17.359375-30.878906 19.792969-47.878906.667968-4.636719-13.976563-9.316406-13.933594-13.996094.050781-5.347656 14.695312-10.695312 13.933594-15.996094-2.433594-17-9.023438-33.519531-19.792969-47.878906-2.953125-3.976562-16.847656 2.835938-20.449219-.765625-3.597656-3.597656 3.210938-17.492187-.761718-20.449219zm0 0" fill="#deecf1"/><path d="m480.871094 362.003906c-2.429688-17-9.019532-33.519531-19.789063-47.878906-2.957031-3.976562-16.851562 2.835938-20.449219-.765625-3.601562-3.597656 3.207032-17.492187-.765624-20.449219-14.359376-10.769531-30.878907-17.359375-47.878907-19.792968-4.96875-.710938-9.984375 12.117187-14.996093 13.761718v180.242188c5.011718 1.644531 10.027343 14.472656 14.996093 13.761718 17-2.433593 33.519531-9.023437 47.878907-19.792968 3.972656-2.957032-2.835938-16.851563.765624-20.449219 3.597657-3.601563 17.492188 3.210937 20.449219-.765625 10.769531-14.359375 17.359375-30.878906 19.789063-47.878906.667968-4.636719-13.976563-9.316406-13.929688-13.996094.046875-5.347656 14.691406-10.695312 13.929688-15.996094zm0 0" fill="#c6e2e7"/><path d="m450.191406 97.800781c-2.699218-4.800781-7.800781-7.800781-13.199218-7.800781h-16.199219c-4.199219-29.402344-20.398438-54.601562-43.800781-70.800781-17.101563-12-37.800782-19.199219-60-19.199219h-60c-7.5 0-13.5 5.398438-14.699219 12.597656-1.203125 7.203125 2.996093 14.398438 9.898437 16.5l33 11.101563c23.101563 7.800781 39.902344 26.699219 45 49.800781h-13.199218c-5.402344 0-10.5 3-13.199219 7.800781-2.703125 5.097657-2.402344 10.800781.601562 15.597657l60 92c2.996094 4.199218 7.5 6.601562 12.597657 6.601562 5.097656 0 9.597656-2.402344 12.597656-6.601562l60-92c3-4.796876 3.300781-10.5.601562-15.597657zm0 0" fill="#fdbf00"/><path d="m260.789062 482.898438-32.996093-11.097657c-23.101563-7.800781-40.902344-26.703125-46-49.800781h13.199219c5.398437 0 10.5-3 13.199218-7.800781 2.703125-5.097657 2.402344-10.800781-.601562-15.601563l-60-90c-3-4.199218-7.800782-6.296875-12.597656-6.296875-4.800782 0-9.601563 2.097657-12.597657 6.296875l-60 90c-3.003906 4.800782-3.304687 10.503906-.601562 15.601563 2.699219 4.800781 7.796875 7.800781 13.199219 7.800781h16.199218c4.199219 29.398438 20.398438 54.601562 43.800782 70.800781 17.097656 12 37.800781 19.199219 60 19.199219h61c7.5 0 13.5-5.398438 14.699218-12.601562 1.199219-7.199219-3-14.398438-9.902344-16.5zm0 0" fill="#fdbf00"/><path d="m262.292969 157-21.601563-13.601562c.300782-2.699219.300782-5.699219.300782-8.398438s0-5.699219-.300782-8.402344l21.601563-12.597656c7.199219-4.199219 9.898437-13.199219 5.699219-20.398438l-30-52.203124c-2.101563-3.300782-5.402344-5.699219-9.300782-6.898438-3.601562-.898438-8.800781-.601562-12.398437 1.5l-21.902344 12.898438c-4.800781-3.300782-9.300781-6-14.398437-8.398438v-25.5c0-8.402344-6.597657-15-15-15h-60c-8.402344 0-15 6.597656-15 15v25.5c-5.097657 2.398438-9.601563 5.097656-14.398438 8.398438l-21.902344-12.898438c-3.601562-2.101562-8.796875-2.402344-12.402344-1.5-3.894531 1.199219-7.199218 3.597656-9.296874 6.898438l-30 52.203124c-4.199219 7.199219-1.5 16.199219 5.699218 20.398438l21.601563 12.597656c-.300781 2.703125-.300781 5.703125-.300781 8.402344s0 5.699219.300781 8.398438l-21.601563 13.601562c-7.199218 4.199219-9.898437 13.199219-5.699218 20.398438l30 53.203124c2.097656 3.296876 5.402343 5.699219 9.296874 6.898438 3.605469.898438 8.800782.300781 12.402344-1.5l21.898438-12.902344c4.800781 3.300782 9.300781 6 14.402344 8.398438v25.503906c0 8.398438 6.597656 15 15 15h60c8.398437 0 15-6.601562 15-15v-25.5c5.097656-2.398438 9.597656-5.101562 14.398437-8.398438l21.898437 12.898438c3.601563 1.800781 8.800782 2.402344 12.402344 1.5 3.898438-1.199219 7.199219-3.601562 9.300782-6.898438l30-53.199218c4.199218-7.203125 1.5-16.203125-5.699219-20.402344zm-127.300781 24c-24.902344 0-45-21.101562-45-46 0-24.902344 20.097656-45 45-45 24.902343 0 45 20.097656 45 45 0 24.898438-20.101563 46-45 46zm0 0" fill="#deecf1"/><path d="m421.992188 377c0 8.398438-6.597657 15-15 15h-30c-8.402344 0-15-6.601562-15-15v-30c0-8.402344 6.597656-15 15-15 8.402343 0 15 6.597656 15 15v15h15c8.398437 0 15 6.597656 15 15zm0 0" fill="#676e74"/><g fill="#c6e2e7"><path d="m391.992188 273.078125v13.921875c0 8.398438-6.601563 15-15 15-8.402344 0-15-6.601562-15-15v-13.921875c4.898437-.71875 9.910156-1.078125 15-1.078125 5.089843 0 10.097656.359375 15 1.078125zm0 0"/><path d="m391.992188 467v13.921875c-4.902344.71875-9.910157 1.078125-15 1.078125-5.089844 0-10.101563-.359375-15-1.078125v-13.921875c0-8.398438 6.597656-15 15-15 8.398437 0 15 6.601562 15 15zm0 0"/><path d="m323.960938 323.96875c-5.859376 5.859375-15.347657 5.859375-21.210938 0l-9.820312-9.820312c6.023437-8.039063 13.171874-15.1875 21.210937-21.207032l9.820313 9.820313c5.859374 5.859375 5.859374 15.347656 0 21.207031zm0 0"/></g><path d="m461.050781 439.851562c-6.019531 8.039063-13.167969 15.1875-21.210937 21.207032l-9.816406-9.820313c-5.863282-5.859375-5.863282-15.347656 0-21.207031 5.859374-5.859375 15.347656-5.859375 21.207031 0zm0 0" fill="#a8d3d8"/><path d="m301.992188 377c0 8.289062-6.710938 15-15 15h-13.921876c-.71875-4.898438-1.078124-9.910156-1.078124-15s.359374-10.101562 1.078124-15h13.921876c8.289062 0 15 6.710938 15 15zm0 0" fill="#c6e2e7"/><path d="m481.992188 377c0 5.089844-.359376 10.101562-1.082032 15h-13.917968c-8.289063 0-15-6.710938-15-15s6.710937-15 15-15h13.917968c.722656 4.898438 1.082032 9.910156 1.082032 15zm0 0" fill="#a8d3d8"/><path d="m323.960938 451.238281-9.820313 9.820313c-8.039063-6.019532-15.1875-13.167969-21.210937-21.207032l9.820312-9.820312c5.863281-5.859375 15.351562-5.859375 21.210938 0 5.859374 5.859375 5.859374 15.347656 0 21.207031zm0 0" fill="#c6e2e7"/><path d="m461.050781 314.148438-9.820312 9.820312c-5.859375 5.859375-15.347657 5.859375-21.207031 0-5.863282-5.859375-5.863282-15.347656 0-21.207031l9.816406-9.820313c8.042968 6.019532 15.191406 13.167969 21.210937 21.207032zm0 0" fill="#a8d3d8"/><path d="m267.992188 177.398438-30 53.203124c-2.101563 3.296876-5.402344 5.699219-9.300782 6.898438-3.601562.898438-8.800781.300781-12.398437-1.5l-21.902344-12.902344c-4.800781 3.300782-9.300781 6-14.398437 8.398438v25.503906c0 8.398438-6.597657 15-15 15h-30v-91c24.902343 0 45-21.101562 45-46 0-24.902344-20.097657-45-45-45v-90h30c8.402343 0 15 6.597656 15 15v25.5c5.097656 2.398438 9.597656 5.097656 14.398437 8.398438l21.902344-12.898438c3.597656-2.101562 8.796875-2.402344 12.398437-1.5 3.898438 1.199219 7.199219 3.597656 9.300782 6.898438l30 52.203124c4.199218 7.199219 1.5 16.199219-5.699219 20.398438l-21.601563 12.597656c.300782 2.703125.300782 5.703125.300782 8.402344s0 5.699219-.300782 8.398438l21.601563 13.601562c7.199219 4.199219 9.898437 13.199219 5.699219 20.398438zm0 0" fill="#c6e2e7"/><path d="m270.691406 499.398438c-1.199218 7.203124-7.199218 12.601562-14.699218 12.601562h-61c-22.203126 0-42.902344-7.199219-60-19.199219v-190.5c4.796874 0 9.597656 2.097657 12.597656 6.296875l60 90c3 4.800782 3.300781 10.503906.601562 15.601563-2.703125 4.800781-7.800781 7.800781-13.199218 7.800781h-13.203126c5.101563 23.097656 22.902344 42 46 49.800781l33 11.097657c6.902344 2.101562 11.101563 9.300781 9.902344 16.5zm0 0" fill="#ff9100"/><path d="m391.992188 273.078125v13.921875c0 8.398438-6.601563 15-15 15v-30c5.089843 0 10.097656.359375 15 1.078125zm0 0" fill="#a8d3d8"/><path d="m391.992188 467v13.921875c-4.902344.71875-9.910157 1.078125-15 1.078125v-30c8.398437 0 15 6.601562 15 15zm0 0" fill="#a8d3d8"/><path d="m421.992188 377c0 8.398438-6.597657 15-15 15h-30v-60c8.402343 0 15 6.597656 15 15v15h15c8.398437 0 15 6.597656 15 15zm0 0" fill="#474f54"/><path d="m449.589844 113.398438-60 92c-3 4.199218-7.5 6.601562-12.597656 6.601562v-192.800781c23.402343 16.199219 39.597656 41.398437 43.800781 70.800781h16.199219c5.398437 0 10.5 3 13.199218 7.800781 2.699219 5.097657 2.398438 10.800781-.601562 15.597657zm0 0" fill="#ff9100"/></svg>