<svg height="512pt" viewBox="0 0 512 512" width="512pt" xmlns="http://www.w3.org/2000/svg"><path d="m436 482h-15v-45h-90v45h-15c-8.402344 0-15 6.597656-15 15 0 8.398438 6.597656 15 15 15h120c8.402344 0 15-6.601562 15-15 0-8.402344-6.597656-15-15-15zm0 0" fill="#deecf1"/><path d="m436 482h-15v-45h-45v75h60c8.402344 0 15-6.601562 15-15 0-8.402344-6.597656-15-15-15zm0 0" fill="#c6e2e7"/><path d="m497 241h-241c-8.402344 0-15 6.597656-15 15v181c0 8.398438 6.597656 15 15 15h241c8.402344 0 15-6.601562 15-15v-181c0-8.402344-6.597656-15-15-15zm0 0" fill="#64e1dc"/><path d="m512 256v181c0 8.398438-6.597656 15-15 15h-121v-211h121c8.402344 0 15 6.597656 15 15zm0 0" fill="#00c8c8"/><path d="m211 15v15l-45 60h-136c-16.5 0-30-43.5-30-60s13.5-30 30-30h166c8.402344 0 15 6.597656 15 15zm0 0" fill="#474f54"/><path d="m211 15v15l-45 60h-60v-90h90c8.402344 0 15 6.597656 15 15zm0 0" fill="#32393f"/><path d="m211 30v30l-22.800781 30h-126.398438l-16.800781-30c-8.402344 0-15-6.601562-15-15 0-8.402344 6.597656-15 15-15zm0 0" fill="#deecf1"/><path d="m211 30v30l-22.800781 30h-82.199219v-60zm0 0" fill="#c6e2e7"/><path d="m211 60v226c0 8.398438-6.597656 15-15 15h-151c-24.902344 0-45-20.101562-45-45v-226c0 16.5 13.5 30 30 30h91l15 30 15-30zm0 0" fill="#676e74"/><path d="m211 60v226c0 8.398438-6.597656 15-15 15h-90v-241h15l15 30 15-30zm0 0" fill="#474f54"/><path d="m136 151c8.289062 0 15-6.710938 15-15v-76h-30v76c0 8.289062 6.710938 15 15 15zm0 0" fill="#f03800"/><path d="m449.199219 158.800781c-2.699219-4.800781-7.800781-7.800781-13.199219-7.800781h-16.199219c-4.199219-29.402344-20.398437-54.601562-43.800781-70.800781-17.101562-12-37.800781-19.199219-60-19.199219h-60c-7.5 0-13.5 5.398438-14.699219 12.597656-1.203125 7.203125 3 14.398438 9.898438 16.5l33 11.101563c23.101562 7.800781 39.902343 26.699219 45 49.800781h-13.199219c-5.398438 0-10.5 3-13.199219 7.800781-2.703125 5.097657-2.402343 10.800781.601563 15.597657l60 90c2.996094 4.199218 7.5 6.601562 12.597656 6.601562s9.601562-2.402344 12.597656-6.601562l60-90c3.003906-4.796876 3.304688-10.5.601563-15.597657zm0 0" fill="#fdbf00"/><path d="m230.800781 452.898438-33-11.097657c-23.101562-7.800781-39.902343-27.703125-45-50.800781h13.199219c5.398438 0 10.5-3 13.199219-7.800781 2.703125-5.097657 2.402343-10.800781-.601563-15.601563l-60-90c-2.996094-4.199218-7.796875-6.296875-12.597656-6.296875s-9.601562 2.097657-12.597656 6.296875l-61 90c-3.003906 4.800782-3.304688 10.503906-.601563 15.601563 2.699219 4.800781 7.800781 7.800781 13.199219 7.800781h16.199219c4.199219 29.398438 21.398437 55.601562 44.800781 71.800781 17.101562 12 37.800781 19.199219 60 19.199219h60c7.5 0 13.5-5.398438 14.699219-12.601562 1.203125-7.199219-3-14.398438-9.898438-16.5zm0 0" fill="#fdbf00"/><g fill="#ff9100"><path d="m240.699219 469.398438c-1.199219 7.203124-7.199219 12.601562-14.699219 12.601562h-60c-22.199219 0-42.898438-7.199219-60-19.199219v-191.5c4.800781 0 9.601562 2.097657 12.597656 6.296875l60 90c3.003906 4.800782 3.300782 10.503906.601563 15.601563-2.699219 4.800781-7.800781 7.800781-13.199219 7.800781h-13.199219c5.097657 23.097656 21.898438 43 45 50.800781l33 11.097657c6.898438 2.101562 11.101563 9.300781 9.898438 16.5zm0 0"/><path d="m448.597656 174.398438-60 90c-2.996094 4.199218-7.5 6.601562-12.597656 6.601562v-190.800781c23.402344 16.199219 39.601562 41.398437 43.800781 70.800781h16.199219c5.398438 0 10.5 3 13.199219 7.800781 2.703125 5.097657 2.402343 10.800781-.601563 15.597657zm0 0"/></g></svg>