<svg height="512pt" viewBox="0 0 512 512" width="512pt" xmlns="http://www.w3.org/2000/svg"><path d="m512 225v242c0 24.898438-20.097656 45-45 45s-45-20.101562-45-45v-122c0-8.402344-6.597656-15-15-15s-15 6.597656-15 15v92c0 13.199219-5.699219 25.199219-15 33.300781-7.800781 7.199219-18.300781 11.699219-30 11.699219-24.902344 0-45-20.101562-45-45 0-8.402344-6.597656-15-15-15h-90c-8.402344 0-15-6.601562-15-15 0-8.402344 6.597656-15 15-15h90c24.902344 0 45 20.097656 45 45 0 8.398438 6.597656 15 15 15s15-6.601562 15-15v-92c0-13.199219 5.699219-25.199219 15-33.300781 7.800781-7.203125 18.300781-11.699219 30-11.699219 24.902344 0 45 20.097656 45 45v122c0 8.398438 6.597656 15 15 15s15-6.601562 15-15v-242c0-8.402344 6.597656-15 15-15s15 6.597656 15 15zm0 0" fill="#deecf1"/><path d="m512 225v242c0 24.898438-20.097656 45-45 45s-45-20.101562-45-45v-122c0-8.402344-6.597656-15-15-15s-15 6.597656-15 15v92c0 13.199219-5.699219 25.199219-15 33.300781v-158.601562c7.800781-7.203125 18.300781-11.699219 30-11.699219 24.902344 0 45 20.097656 45 45v122c0 8.398438 6.597656 15 15 15s15-6.601562 15-15v-242c0-8.402344 6.597656-15 15-15s15 6.597656 15 15zm0 0" fill="#c6e2e7"/><path d="m512 135v60c0 8.398438-6.597656 15-15 15s-15-6.601562-15-15v-60c0-57.898438-47.101562-105-105-105s-105 47.101562-105 105v60c0 8.398438-6.597656 15-15 15s-15-6.601562-15-15v-60c0-74.402344 60.601562-135 135-135s135 60.597656 135 135zm0 0" fill="#474f54"/><path d="m512 135v60c0 8.398438-6.597656 15-15 15s-15-6.601562-15-15v-60c0-57.898438-47.101562-105-105-105v-30c74.398438 0 135 60.597656 135 135zm0 0" fill="#32393f"/><path d="m287 270c-24.8125 0-45-20.1875-45-45v-60c0-24.8125 20.1875-45 45-45s45 20.1875 45 45v60c0 24.8125-20.1875 45-45 45zm0 0" fill="#ff641a"/><path d="m467 270c-24.8125 0-45-20.1875-45-45v-60c0-24.8125 20.1875-45 45-45s45 20.1875 45 45v60c0 24.8125-20.1875 45-45 45zm0 0" fill="#f03800"/><path d="m212 452v45c0 8.398438-6.597656 15-15 15h-182c-8.402344 0-15-6.601562-15-15v-45l30-30h152zm0 0" fill="#deecf1"/><path d="m212 452v45c0 8.398438-6.597656 15-15 15h-91v-90h76zm0 0" fill="#c6e2e7"/><path d="m212 195v257h-212v-257c0-8.402344 6.597656-15 15-15h182c8.402344 0 15 6.597656 15 15zm0 0" fill="#64e1dc"/><path d="m212 195v257h-106v-272h91c8.402344 0 15 6.597656 15 15zm0 0" fill="#00c8c8"/></svg>