<svg height="512pt" viewBox="0 0 512 512" width="512pt" xmlns="http://www.w3.org/2000/svg"><path d="m452 330v45c0 8.398438-6.597656 15-15 15h-422c-8.402344 0-15-6.601562-15-15v-45l30-30h392zm0 0" fill="#676e74"/><path d="m452 330v45c0 8.398438-6.597656 15-15 15h-211v-90h196zm0 0" fill="#474f54"/><path d="m452 15v315h-166c-24.902344 0-45 20.097656-45 45 0 8.398438-6.597656 15-15 15s-15-6.601562-15-15c0-24.902344-20.097656-45-45-45h-166v-315c0-8.402344 6.597656-15 15-15h151c24.601562 0 46.199219 12 60 30.597656 13.800781-18.597656 35.398438-30.597656 60-30.597656h151c8.402344 0 15 6.597656 15 15zm0 0" fill="#fff4ca"/><g fill="#ffe1ba"><path d="m452 15v315h-166c-24.902344 0-45 20.097656-45 45 0 8.398438-6.597656 15-15 15v-359.402344c13.800781-18.597656 35.398438-30.597656 60-30.597656h151c8.402344 0 15 6.597656 15 15zm0 0"/><path d="m166 90h-91c-8.289062 0-15-6.710938-15-15s6.710938-15 15-15h91c8.289062 0 15 6.710938 15 15s-6.710938 15-15 15zm0 0"/><path d="m166 150h-91c-8.289062 0-15-6.710938-15-15s6.710938-15 15-15h91c8.289062 0 15 6.710938 15 15s-6.710938 15-15 15zm0 0"/><path d="m166 210h-91c-8.289062 0-15-6.710938-15-15s6.710938-15 15-15h91c8.289062 0 15 6.710938 15 15s-6.710938 15-15 15zm0 0"/><path d="m166 270h-91c-8.289062 0-15-6.710938-15-15s6.710938-15 15-15h91c8.289062 0 15 6.710938 15 15s-6.710938 15-15 15zm0 0"/></g><path d="m377 90h-91c-8.289062 0-15-6.710938-15-15s6.710938-15 15-15h91c8.289062 0 15 6.710938 15 15s-6.710938 15-15 15zm0 0" fill="#ffc473"/><path d="m377 150h-91c-8.289062 0-15-6.710938-15-15s6.710938-15 15-15h91c8.289062 0 15 6.710938 15 15s-6.710938 15-15 15zm0 0" fill="#ffc473"/><path d="m512 452v45c0 8.398438-6.597656 15-15 15h-180c-8.402344 0-15-6.601562-15-15v-45l30-32h150zm0 0" fill="#deecf1"/><path d="m512 452v45c0 8.398438-6.597656 15-15 15h-90v-92h75zm0 0" fill="#c6e2e7"/><path d="m512 195v257h-210v-257c0-8.402344 6.597656-15 15-15h180c8.402344 0 15 6.597656 15 15zm0 0" fill="#64e1dc"/><path d="m512 195v257h-105v-272h90c8.402344 0 15 6.597656 15 15zm0 0" fill="#00c8c8"/></svg>