<svg height="512pt" viewBox="-61 0 512 512" width="512pt" xmlns="http://www.w3.org/2000/svg"><path d="m120 196-30-30c0 41.351562-33.648438 75-75 75-8.289062 0-15 6.710938-15 15 0 41.351562 33.648438 75 75 75l120-30zm0 0" fill="#fdbf00"/><path d="m375 241c-41.351562 0-75-33.648438-75-75l-30 30-75 105 120 30c41.351562 0 75-33.648438 75-75 0-8.289062-6.710938-15-15-15zm0 0" fill="#ff9100"/><path d="m390 406v91c0 8.398438-6.597656 15-15 15h-360c-8.402344 0-15-6.601562-15-15v-91c0-41.398438 33.601562-75 75-75h240c41.398438 0 75 33.601562 75 75zm0 0" fill="#676e74"/><path d="m390 406v91c0 8.398438-6.597656 15-15 15h-180v-181h120c41.398438 0 75 33.601562 75 75zm0 0" fill="#474f54"/><path d="m300 116.800781v79.199219c0 40.5-23.699219 77.101562-60 94.5v40.5h-90v-40.5c-36.300781-17.398438-60-54-60-94.5v-79.199219zm0 0" fill="#ffe1ba"/><path d="m300 116.800781v79.199219c0 40.5-23.699219 77.101562-60 94.5v40.5h-45v-214.199219zm0 0" fill="#ffc473"/><path d="m235.5 206.5-30 30c-2.699219 3-6.601562 4.5-10.5 4.5s-7.800781-1.5-10.5-4.5l-30-30c-6-5.699219-6-15.300781 0-21 5.699219-6 15.300781-6 21 0l19.5 19.199219 19.503906-19.199219c5.699219-6 15.296875-6 20.996094 0 6 5.699219 6 15.300781 0 21zm0 0" fill="#ff9100"/><path d="m235.5 206.5-30 30c-2.699219 3-6.601562 4.5-10.5 4.5v-36.300781l19.5-19.199219c5.699219-6 15.300781-6 21 0 6 5.699219 6 15.300781 0 21zm0 0" fill="#ff641a"/><path d="m360 15v121c0 8.289062 6.710938 15 15 15s15-6.710938 15-15v-121zm0 0" fill="#ffc473"/><path d="m375 0h-360c-8.402344 0-15 6.597656-15 15s6.597656 15 15 15h75v86.800781l100.199219 33.296875c1.5.601563 3.300781.902344 4.800781.902344s3.300781-.300781 4.800781-.902344l100.199219-33.296875v-86.800781h75c8.402344 0 15-6.597656 15-15s-6.597656-15-15-15zm0 0" fill="#474f54"/><path d="m375 0h-180v151c1.5 0 3.300781-.300781 4.800781-.902344l100.199219-33.296875v-86.800781h75c8.402344 0 15-6.597656 15-15s-6.597656-15-15-15zm0 0" fill="#32393f"/><path d="m315 301h-240c-8.285156 0-15 6.714844-15 15v196h270v-196c0-8.285156-6.714844-15-15-15zm0 0" fill="#deecf1"/><path d="m210 406c0 8.402344-6.597656 15-15 15s-15-6.597656-15-15 6.597656-15 15-15 15 6.597656 15 15zm0 0" fill="#c6e2e7"/><path d="m330 316v196h-135v-211h120c8.285156 0 15 6.714844 15 15zm0 0" fill="#c6e2e7"/><path d="m210 406c0 8.402344-6.597656 15-15 15v-30c8.402344 0 15 6.597656 15 15zm0 0" fill="#a8d3d8"/></svg>