<svg height="512pt" viewBox="-16 0 512 512" width="512pt" xmlns="http://www.w3.org/2000/svg"><path d="m480 75v195c0 33-27 60-60 60s-60-27-60-60v-165c0-41.398438-33.601562-75-75-75s-75 33.601562-75 75v60c0 8.398438-6.597656 15-15 15s-15-6.601562-15-15v-60c0-19.5 5.398438-38.101562 15-53.699219 18.300781-30.601562 51.597656-51.300781 90-51.300781 57.898438 0 105 47.101562 105 105v165c0 16.5 13.5 30 30 30s30-13.5 30-30v-195c0-8.402344 6.597656-15 15-15s15 6.597656 15 15zm0 0" fill="#e0f4ff"/><path d="m480 75v195c0 33-27 60-60 60s-60-27-60-60v-165c0-41.398438-33.601562-75-75-75s-75 33.601562-75 75v60c0 8.398438-6.597656 15-15 15v-128.699219c18.300781-30.601562 51.597656-51.300781 90-51.300781 57.898438 0 105 47.101562 105 105v165c0 16.5 13.5 30 30 30s30-13.5 30-30v-195c0-8.402344 6.597656-15 15-15s15 6.597656 15 15zm0 0" fill="#bbdcff"/><path d="m330 255v15l-30 30h-210l-30-30v-15c0-57.898438 47.101562-105 105-105h15l15 30 15-30h15c57.898438 0 105 47.101562 105 105zm0 0" fill="#e0f4ff"/><path d="m330 255v15l-30 30h-105v-120l15-30h15c57.898438 0 105 47.101562 105 105zm0 0" fill="#bbdcff"/><path d="m180 150h30v150h-30zm0 0" fill="#bbdcff"/><path d="m195 150h15v150h-15zm0 0" fill="#9abadb"/><g fill="#9bfcff"><path d="m105 120c-8.289062 0-15-6.710938-15-15v-30c0-8.289062 6.710938-15 15-15s15 6.710938 15 15v30c0 8.289062-6.710938 15-15 15zm0 0"/><path d="m45 141.210938-21.210938-21.210938c-5.859374-5.859375-5.859374-15.351562 0-21.210938 5.859376-5.859374 15.351563-5.859374 21.210938 0l21.210938 21.210938c5.859374 5.859375 5.859374 15.351562 0 21.210938-5.859376 5.859374-15.351563 5.859374-21.210938 0zm0 0"/><path d="m45 210h-30c-8.289062 0-15-6.710938-15-15s6.710938-15 15-15h30c8.289062 0 15 6.710938 15 15s-6.710938 15-15 15zm0 0"/></g><path d="m330 270v107c0 74.398438-60.601562 135-135 135s-135-60.601562-135-135v-107zm0 0" fill="#ff641a"/><path d="m330 270v107c0 74.398438-60.601562 135-135 135v-242zm0 0" fill="#f03800"/></svg>