<svg height="511pt" viewBox="-15 1 511 511.999" width="511pt" xmlns="http://www.w3.org/2000/svg"><path d="m360.5 60v272l-30 30h-60l-30-30-30-45v-176.902344l30-50.097656 30-30h60zm0 0" fill="#ff641a"/><path d="m360.5 60v272l-30 30h-30v-332h30zm0 0" fill="#f03800"/><path d="m360.5 30v30h-120l-30-17.402344 30-12.597656c0-16.5 13.5-30 30-30h60c16.5 0 30 13.5 30 30zm0 0" fill="#ff9100"/><path d="m360.5 30v30h-60v-60h30c16.5 0 30 13.5 30 30zm0 0" fill="#ff641a"/><path d="m360.5 332v60c0 16.5-13.5 30-30 30h-60c-16.5 0-30-13.5-30-30l-30-30 30-30zm0 0" fill="#ff9100"/><path d="m315.5 166v60c0 8.398438-6.597656 15-15 15s-15-6.601562-15-15v-60c0-8.402344 6.597656-15 15-15s15 6.597656 15 15zm0 0" fill="#ff9100"/><path d="m300.5 241v-90c8.402344 0 15 6.597656 15 15v60c0 8.398438-6.597656 15-15 15zm0 0" fill="#ff641a"/><path d="m300.5 332h60v60c0 16.5-13.5 30-30 30h-30zm0 0" fill="#ff641a"/><path d="m240.5 60v272l-30 30h-60l-30-30-30-45v-176.902344l30-50.097656 30-30h60zm0 0" fill="#474f54"/><path d="m240.5 60v272l-30 30h-30v-332h30zm0 0" fill="#32393f"/><path d="m240.5 30v30h-120l-30-17.402344 30-12.597656c0-16.5 13.5-30 30-30h60c16.5 0 30 13.5 30 30zm0 0" fill="#676e74"/><path d="m240.5 30v30h-60v-60h30c16.5 0 30 13.5 30 30zm0 0" fill="#474f54"/><path d="m240.5 332v60c0 16.5-13.5 30-30 30h-60c-16.5 0-30-13.5-30-30l-30-30 30-30zm0 0" fill="#676e74"/><path d="m195.5 166v60c0 8.398438-6.597656 15-15 15s-15-6.601562-15-15v-60c0-8.402344 6.597656-15 15-15s15 6.597656 15 15zm0 0" fill="#676e74"/><path d="m120.5 60v272l-30 30h-60l-30-30v-272l30-30h60zm0 0" fill="#64e1dc"/><path d="m120.5 60v272l-30 30h-30v-332h30zm0 0" fill="#00c8c8"/><path d="m120.5 332v60c0 16.5-13.5 30-30 30h-60c-16.5 0-30-13.5-30-30v-60zm0 0" fill="#9bfcff"/><path d="m60.5 332h60v60c0 16.5-13.5 30-30 30h-30zm0 0" fill="#76e2f8"/><path d="m476 443.898438-31.800781-31.800782c2.097656-1.796875 8.398437-8.101562 10.800781-10.496094 8.398438-8.703124 3.898438-23.101562-7.800781-25.503906-.601563 0-87-17.097656-105.902344-21-5.097656-.898437-10.199219.300782-13.796875 3.902344-3.300781 3.597656-5.101562 8.699219-3.902344 13.800781 0 .300781 17.101563 86.699219 21 105.898438 2.402344 11.398437 16.203125 15.902343 24.902344 8.402343 0 0 .300781-.300781.601562-.601562 1.800782-2.101562 8.101563-8.398438 10.496094-10.800781 3.304688 3.300781 29.101563 29.101562 31.800782 31.800781 6 6 15.300781 6 21.300781 0l21.300781-21 21-21.300781c6-6 6-15.300781 0-21.300781zm0 0" fill="#64e1dc"/><path d="m476 465.199219-21 21.300781-127.5-127.5c3.597656-3.601562 8.699219-4.800781 13.796875-3.902344 18.902344 3.902344 105.300781 21 105.902344 21 11.699219 2.402344 16.199219 16.800782 7.800781 25.503906-2.402344 2.398438-8.703125 8.699219-10.800781 10.496094l31.800781 31.800782c6 6 6 15.300781 0 21.300781zm0 0" fill="#00c8c8"/><path d="m75.5 166v60c0 8.398438-6.597656 15-15 15s-15-6.601562-15-15v-60c0-8.402344 6.597656-15 15-15s15 6.597656 15 15zm0 0" fill="#9bfcff"/><path d="m60.5 241v-90c8.402344 0 15 6.597656 15 15v60c0 8.398438-6.597656 15-15 15zm0 0" fill="#76e2f8"/><path d="m180.5 241v-90c8.402344 0 15 6.597656 15 15v60c0 8.398438-6.597656 15-15 15zm0 0" fill="#474f54"/><path d="m180.5 332h60v60c0 16.5-13.5 30-30 30h-30zm0 0" fill="#474f54"/><path d="m120.5 30v30h-120v-30c0-16.5 13.5-30 30-30h60c16.5 0 30 13.5 30 30zm0 0" fill="#9bfcff"/><path d="m120.5 30v30h-60v-60h30c16.5 0 30 13.5 30 30zm0 0" fill="#76e2f8"/></svg>