<svg height="512pt" viewBox="0 0 512 512" width="512pt" xmlns="http://www.w3.org/2000/svg"><path d="m332 45v61c0 8.398438-6.597656 15-15 15s-15-6.601562-15-15v-61c0-8.402344-6.597656-15-15-15h-121c-8.402344 0-15 6.597656-15 15v61c0 8.398438-6.597656 15-15 15s-15-6.601562-15-15v-61c0-24.902344 20.097656-45 45-45h121c24.902344 0 45 20.097656 45 45zm0 0" fill="#474f54"/><path d="m332 45v61c0 8.398438-6.597656 15-15 15s-15-6.601562-15-15v-61c0-8.402344-6.597656-15-15-15h-61v-30h61c24.902344 0 45 20.097656 45 45zm0 0" fill="#32393f"/><path d="m452 166v271c0 8.398438-6.597656 15-15 15h-422c-8.402344 0-15-6.601562-15-15v-271zm0 0" fill="#474f54"/><path d="m452 166v271c0 8.398438-6.597656 15-15 15h-211v-286zm0 0" fill="#32393f"/><path d="m437 91h-422c-8.402344 0-15 6.597656-15 15v60c0 57.898438 48.101562 105 106 105h241c57.898438 0 105-47.101562 105-105v-60c0-8.402344-6.597656-15-15-15zm0 0" fill="#676e74"/><path d="m452 106v60c0 57.898438-47.101562 105-105 105h-121v-180h211c8.402344 0 15 6.597656 15 15zm0 0" fill="#474f54"/><path d="m257 211h-61c-8.402344 0-15 6.597656-15 15v60c0 8.398438 6.597656 15 15 15h61c8.402344 0 15-6.601562 15-15v-60c0-8.402344-6.597656-15-15-15zm0 0" fill="#fdbf00"/><path d="m507.5 443.898438-31.800781-31.800782c2.101562-1.796875 8.402343-8.101562 10.800781-10.496094 8.398438-8.703124 3.898438-23.101562-7.800781-25.503906-.601563 0-87-17.097656-105.898438-21-5.101562-.898437-10.199219.300782-13.800781 3.902344-3.300781 3.597656-5.101562 8.699219-3.898438 13.800781 0 .300781 17.097657 86.699219 20.996094 105.898438 2.402344 11.398437 16.203125 15.902343 24.902344 8.402343 0 0 .300781-.300781.601562-.601562 1.800782-2.101562 8.101563-8.398438 10.5-10.800781 3.300782 3.300781 29.097657 29.101562 31.796876 31.800781 6 6 15.300781 6 21.300781 0l21.304687-21 20.996094-21.300781c6-6 6-15.300781 0-21.300781zm0 0" fill="#64e1dc"/><path d="m507.5 465.199219-21 21.300781-127.5-127.5c3.601562-3.601562 8.699219-4.800781 13.800781-3.902344 18.898438 3.902344 105.296875 21 105.898438 21 11.699219 2.402344 16.199219 16.800782 7.800781 25.503906-2.402344 2.398438-8.699219 8.699219-10.800781 10.496094l31.800781 31.800782c6 6 6 15.300781 0 21.300781zm0 0" fill="#00c8c8"/><path d="m272 226v60c0 8.398438-6.597656 15-15 15h-31v-90h31c8.402344 0 15 6.597656 15 15zm0 0" fill="#ff9100"/></svg>