<svg height="512pt" viewBox="-16 0 512 512" width="512pt" xmlns="http://www.w3.org/2000/svg"><path d="m445.5 124.5-40.5 326.5h-390c-8.402344 0-15-6.601562-15-15v-316l37.5-30h337.5l66.300781 30zm0 0" fill="#fff4ca"/><path d="m445.5 124.5-40.5 326.5h-195v-361h165l66.300781 30zm0 0" fill="#ffe1ba"/><path d="m315 120h-315v-105c0-8.402344 6.597656-15 15-15h285zm0 0" fill="#64e1dc"/><path d="m315 120h-105v-120h90zm0 0" fill="#00c8c8"/><path d="m105 60c0 8.285156-6.714844 15-15 15s-15-6.714844-15-15 6.714844-15 15-15 15 6.714844 15 15zm0 0" fill="#deecf1"/><path d="m165 60c0 8.285156-6.714844 15-15 15s-15-6.714844-15-15 6.714844-15 15-15 15 6.714844 15 15zm0 0" fill="#deecf1"/><path d="m225 60c0 8.398438-6.597656 15-15 15s-15-6.601562-15-15c0-8.402344 6.597656-15 15-15s15 6.597656 15 15zm0 0" fill="#deecf1"/><path d="m105 271c-3.839844 0-7.675781-1.464844-10.605469-4.394531l-30-30c-5.859375-5.859375-5.859375-15.351563 0-21.210938s15.351563-5.859375 21.210938 0l19.394531 19.394531 49.394531-49.394531c5.859375-5.859375 15.351563-5.859375 21.210938 0s5.859375 15.351563 0 21.210938l-60 60c-2.929688 2.929687-6.765625 4.394531-10.605469 4.394531zm0 0" fill="#64e1dc"/><path d="m126.210938 346 19.394531-19.394531c5.859375-5.859375 5.859375-15.351563 0-21.210938s-15.351563-5.859375-21.210938 0l-19.394531 19.394531-19.394531-19.394531c-5.859375-5.859375-15.351563-5.859375-21.210938 0s-5.859375 15.351563 0 21.210938l19.394531 19.394531-19.394531 19.394531c-5.859375 5.859375-5.859375 15.351563 0 21.210938s15.351563 5.859375 21.210938 0l19.394531-19.394531 19.394531 19.394531c5.859375 5.859375 15.351563 5.859375 21.210938 0s5.859375-15.351563 0-21.210938zm0 0" fill="#ff641a"/><g fill="#ffc473"><path d="m345 211h-120c-8.289062 0-15-6.710938-15-15s6.710938-15 15-15h120c8.289062 0 15 6.710938 15 15s-6.710938 15-15 15zm0 0"/><path d="m345 271h-90c-8.289062 0-15-6.710938-15-15s6.710938-15 15-15h90c8.289062 0 15 6.710938 15 15s-6.710938 15-15 15zm0 0"/><path d="m345 331h-120c-8.289062 0-15-6.710938-15-15s6.710938-15 15-15h120c8.289062 0 15 6.710938 15 15s-6.710938 15-15 15zm0 0"/><path d="m345 391h-90c-8.289062 0-15-6.710938-15-15s6.710938-15 15-15h90c8.289062 0 15 6.710938 15 15s-6.710938 15-15 15zm0 0"/></g><path d="m480 181v240l-30 30h-30l-30-30v-240l30-31h30zm0 0" fill="#ff641a"/><path d="m480 181v240l-30 30h-15v-301h15zm0 0" fill="#f03800"/><path d="m480 135v46h-90v-46c0-8.402344 6.597656-15 15-15h60c8.402344 0 15 6.597656 15 15zm0 0" fill="#676e74"/><path d="m390 421v15c0 2.398438.601562 4.5 1.5 6.597656l30 61c2.699219 5.101563 7.800781 8.402344 13.5 8.402344s10.800781-3.300781 13.5-8.402344l30-61c.898438-2.097656 1.5-4.199218 1.5-6.597656v-15zm0 0" fill="#ffe1ba"/><path d="m480 135v46h-45v-61h30c8.402344 0 15 6.597656 15 15zm0 0" fill="#474f54"/><path d="m435 421h45v15c0 2.398438-.601562 4.5-1.5 6.597656l-30 61c-2.699219 5.101563-7.800781 8.402344-13.5 8.402344zm0 0" fill="#ffc473"/><path d="m225 60c0 8.398438-6.597656 15-15 15v-30c8.402344 0 15 6.597656 15 15zm0 0" fill="#c6e2e7"/><path d="m318.832031.773438c-.652343-.179688-1.230469-.296876-1.898437-.382813-.664063-.089844-1.25-.390625-1.933594-.390625h-15v105c0 8.285156 6.714844 15 15 15h126.210938l-115.585938-115.585938c-1.828125-1.835937-4.222656-2.945312-6.792969-3.640624zm0 0" fill="#ffc473"/></svg>