<svg height="512pt" viewBox="-31 0 512 512" width="512pt" xmlns="http://www.w3.org/2000/svg"><path d="m420 15c0 41.398438-33.601562 75-75 75h-210c-24.902344 0-45 20.097656-45 45 0 8.398438-6.597656 15-15 15s-15-6.601562-15-15c0-41.398438 33.601562-75 75-75h210c24.902344 0 45-20.101562 45-45 0-8.402344 6.597656-15 15-15s15 6.597656 15 15zm0 0" fill="#c6e2e7"/><path d="m420 15c0 41.398438-33.601562 75-75 75h-120v-30h120c24.902344 0 45-20.101562 45-45 0-8.402344 6.597656-15 15-15s15 6.597656 15 15zm0 0" fill="#a8d3d8"/><path d="m435 120h-420c-8.402344 0-15 6.597656-15 15v242c0 8.398438 6.597656 15 15 15h420c8.402344 0 15-6.601562 15-15v-242c0-8.402344-6.597656-15-15-15zm0 0" fill="#deecf1"/><g fill="#c6e2e7"><path d="m450 135v242c0 8.398438-6.597656 15-15 15h-210v-272h210c8.402344 0 15 6.597656 15 15zm0 0"/><path d="m105 211h-30c-8.289062 0-15-6.710938-15-15s6.710938-15 15-15h30c8.289062 0 15 6.710938 15 15s-6.710938 15-15 15zm0 0"/><path d="m195 211h-30c-8.289062 0-15-6.710938-15-15s6.710938-15 15-15h30c8.289062 0 15 6.710938 15 15s-6.710938 15-15 15zm0 0"/></g><path d="m285 211h-30c-8.289062 0-15-6.710938-15-15s6.710938-15 15-15h30c8.289062 0 15 6.710938 15 15s-6.710938 15-15 15zm0 0" fill="#a8d3d8"/><path d="m375 211h-30c-8.289062 0-15-6.710938-15-15s6.710938-15 15-15h30c8.289062 0 15 6.710938 15 15s-6.710938 15-15 15zm0 0" fill="#a8d3d8"/><path d="m105 271h-30c-8.289062 0-15-6.710938-15-15s6.710938-15 15-15h30c8.289062 0 15 6.710938 15 15s-6.710938 15-15 15zm0 0" fill="#c6e2e7"/><path d="m195 271h-30c-8.289062 0-15-6.710938-15-15s6.710938-15 15-15h30c8.289062 0 15 6.710938 15 15s-6.710938 15-15 15zm0 0" fill="#c6e2e7"/><path d="m285 271h-30c-8.289062 0-15-6.710938-15-15s6.710938-15 15-15h30c8.289062 0 15 6.710938 15 15s-6.710938 15-15 15zm0 0" fill="#a8d3d8"/><path d="m375 271h-30c-8.289062 0-15-6.710938-15-15s6.710938-15 15-15h30c8.289062 0 15 6.710938 15 15s-6.710938 15-15 15zm0 0" fill="#a8d3d8"/><path d="m105 331h-30c-8.289062 0-15-6.710938-15-15s6.710938-15 15-15h30c8.289062 0 15 6.710938 15 15s-6.710938 15-15 15zm0 0" fill="#9bfcff"/><path d="m300 316c0 8.398438-6.597656 15-15 15h-120c-8.402344 0-15-6.601562-15-15 0-8.402344 6.597656-15 15-15h120c8.402344 0 15 6.597656 15 15zm0 0" fill="#9bfcff"/><path d="m375 331h-30c-8.289062 0-15-6.710938-15-15s6.710938-15 15-15h30c8.289062 0 15 6.710938 15 15s-6.710938 15-15 15zm0 0" fill="#76e2f8"/><path d="m360 452v30l-30 30h-240l-30-30v-30l30-30h240zm0 0" fill="#ff641a"/><path d="m360 467v15l-30 30h-240l-30-30v-15zm0 0" fill="#f03800"/><path d="m90 422v90h-45c-8.402344 0-15-6.597656-15-15v-60c0-8.402344 6.597656-15 15-15zm0 0" fill="#676e74"/><path d="m420 467c0 5.699219-3.300781 10.800781-8.402344 13.5l-60 30c-2.097656.898438-4.199218 1.5-6.597656 1.5h-15v-90h15c2.402344 0 4.5.601562 6.597656 1.5l60 30c5.101563 2.699219 8.402344 7.800781 8.402344 13.5zm0 0" fill="#ffe1ba"/><path d="m30 467h60v45h-45c-8.402344 0-15-6.597656-15-15zm0 0" fill="#474f54"/><path d="m420 467c0 5.699219-3.300781 10.800781-8.402344 13.5l-60 30c-2.097656.898438-4.199218 1.5-6.597656 1.5h-15v-45zm0 0" fill="#ffc473"/><path d="m300 316c0 8.398438-6.597656 15-15 15h-60v-30h60c8.402344 0 15 6.597656 15 15zm0 0" fill="#76e2f8"/></svg>