<svg height="512pt" viewBox="0 0 512 512" width="512pt" xmlns="http://www.w3.org/2000/svg"><path d="m256 0c-140.699219 0-256 115.300781-256 256s115.300781 256 256 256 256-115.300781 256-256-115.300781-256-256-256zm0 0" fill="#9bfcff"/><path d="m512 256c0 140.699219-115.300781 256-256 256v-512c140.699219 0 256 115.300781 256 256zm0 0" fill="#76e2f8"/><path d="m256 30c-124.199219 0-226 101.800781-226 226s101.800781 226 226 226 226-101.800781 226-226-101.800781-226-226-226zm0 0" fill="#64e1dc"/><path d="m482 256c0 124.199219-101.800781 226-226 226v-452c124.199219 0 226 101.800781 226 226zm0 0" fill="#00c8c8"/><path d="m271 15v482c0 8.398438-6.597656 15-15 15s-15-6.601562-15-15v-482c0-8.402344 6.597656-15 15-15s15 6.597656 15 15zm0 0" fill="#9bfcff"/><path d="m464.890625 391h-73.890625c-8.289062 0-15-6.710938-15-15s6.710938-15 15-15h73.890625c8.292969 0 15 6.710938 15 15s-6.707031 15-15 15zm0 0" fill="#76e2f8"/><path d="m346 376c0 8.398438-6.597656 15-15 15h-283.898438c-8.402343 0-15-6.601562-15-15 0-8.402344 6.597657-15 15-15h283.898438c8.402344 0 15 6.597656 15 15zm0 0" fill="#9bfcff"/><path d="m346 136c0 8.398438-6.597656 15-15 15h-283.898438c-8.402343 0-15-6.601562-15-15 0-8.402344 6.597657-15 15-15h283.898438c8.402344 0 15 6.597656 15 15zm0 0" fill="#9bfcff"/><path d="m464.890625 151h-73.890625c-8.289062 0-15-6.710938-15-15s6.710938-15 15-15h73.890625c8.292969 0 15 6.710938 15 15s-6.707031 15-15 15zm0 0" fill="#76e2f8"/><path d="m106 271h-91c-8.289062 0-15-6.710938-15-15s6.710938-15 15-15h91c8.289062 0 15 6.710938 15 15s-6.710938 15-15 15zm0 0" fill="#9bfcff"/><path d="m512 256c0 8.398438-6.597656 15-15 15h-331c-8.402344 0-15-6.601562-15-15 0-8.402344 6.597656-15 15-15h331c8.402344 0 15 6.597656 15 15zm0 0" fill="#9bfcff"/><path d="m256 0c-74.699219 0-135 115.300781-135 256s60.300781 256 135 256 135-115.300781 135-256-60.300781-256-135-256zm0 482c-49.800781 0-105-93.402344-105-226 0-132.601562 55.199219-226 105-226s105 93.398438 105 226c0 132.597656-55.199219 226-105 226zm0 0" fill="#9bfcff"/><g fill="#76e2f8"><path d="m391 256c0 140.699219-60.300781 256-135 256v-30c49.800781 0 105-93.402344 105-226 0-132.601562-55.199219-226-105-226v-30c74.699219 0 135 115.300781 135 256zm0 0"/><path d="m346 376c0 8.398438-6.597656 15-15 15h-75v-30h75c8.402344 0 15 6.597656 15 15zm0 0"/><path d="m331 151h-75v-30h75c8.402344 0 15 6.597656 15 15 0 8.398438-6.597656 15-15 15zm0 0"/><path d="m512 256c0 8.398438-6.597656 15-15 15h-241v-30h241c8.402344 0 15 6.597656 15 15zm0 0"/><path d="m271 15v482c0 8.398438-6.597656 15-15 15v-512c8.402344 0 15 6.597656 15 15zm0 0"/></g><path d="m136 301c-24.8125 0-45-20.1875-45-45s20.1875-45 45-45 45 20.1875 45 45-20.1875 45-45 45zm0 0" fill="#deecf1"/><path d="m361 421c-24.8125 0-45-20.1875-45-45s20.1875-45 45-45 45 20.1875 45 45-20.1875 45-45 45zm0 0" fill="#c6e2e7"/><path d="m361 181c-24.8125 0-45-20.1875-45-45s20.1875-45 45-45 45 20.1875 45 45-20.1875 45-45 45zm0 0" fill="#c6e2e7"/></svg>