<svg height="512pt" viewBox="0 0 512 512" width="512pt" xmlns="http://www.w3.org/2000/svg"><path d="m375 0c-74.398438 0-136 61.597656-136 136 0 30.898438 11.5 60.300781 30.398438 84.300781l-25.898438 25.199219c-4.5 4.199219-5.699219 10.5-3.300781 16.199219 2.402343 5.699219 7.800781 9.300781 13.800781 9.300781h121c74.398438 0 136-60.601562 136-135 0-74.402344-61.601562-136-136-136zm0 0" fill="#fdbf00"/><path d="m511 136c0 74.398438-61.601562 135-136 135v-271c74.398438 0 136 61.597656 136 136zm0 0" fill="#ff9100"/><path d="m164 482h-45v-76c0-8.402344-6.597656-15-15-15s-15 6.597656-15 15v76h-45c-8.402344 0-15 6.597656-15 15 0 8.398438 6.597656 15 15 15h120c8.402344 0 15-6.601562 15-15 0-8.402344-6.597656-15-15-15zm0 0" fill="#676e74"/><path d="m164 482h-45v-76c0-8.402344-6.597656-15-15-15v121h60c8.402344 0 15-6.601562 15-15 0-8.402344-6.597656-15-15-15zm0 0" fill="#474f54"/><path d="m209 241-30 15 30 15v30l-30 15 28.5 15c-7.5 50.699219-50.699219 90-103.5 90s-95-39.300781-102.5-90l27.5-15-29-15v-30l29-15-29-15v-30l29-15-27.5-15c7.5-50.699219 49.699219-90 102.5-90s96 39.300781 103.5 90l-28.5 15 30 15zm0 0" fill="#deecf1"/><g fill="#c6e2e7"><path d="m209 241-30 15 30 15v30l-30 15 28.5 15c-7.5 50.699219-50.699219 90-103.5 90v-330c52.800781 0 96 39.300781 103.5 90l-28.5 15 30 15zm0 0"/><path d="m59 196c0-8.289062-6.710938-15-15-15h-42.484375c-.714844 4.941406-1.515625 9.863281-1.515625 15v15h44c8.289062 0 15-6.710938 15-15zm0 0"/><path d="m59 256c0-8.289062-6.710938-15-15-15h-44v30h44c8.289062 0 15-6.710938 15-15zm0 0"/><path d="m59 316c0-8.289062-6.710938-15-15-15h-44v15c0 5.136719.800781 10.058594 1.515625 15h42.484375c8.289062 0 15-6.710938 15-15zm0 0"/></g><path d="m149 196c0 8.289062 6.710938 15 15 15h45v-15c0-5.136719-.800781-10.058594-1.515625-15h-43.484375c-8.289062 0-15 6.710938-15 15zm0 0" fill="#a8d3d8"/><path d="m149 256c0 8.289062 6.710938 15 15 15h45v-30h-45c-8.289062 0-15 6.710938-15 15zm0 0" fill="#a8d3d8"/><path d="m149 316c0 8.289062 6.710938 15 15 15h43.484375c.714844-4.941406 1.515625-9.863281 1.515625-15v-15h-45c-8.289062 0-15 6.710938-15 15zm0 0" fill="#a8d3d8"/><path d="m450 136c0 8.285156-6.714844 15-15 15s-15-6.714844-15-15 6.714844-15 15-15 15 6.714844 15 15zm0 0" fill="#474f54"/><path d="m390 136c0 8.398438-6.597656 15-15 15s-15-6.601562-15-15c0-8.402344 6.597656-15 15-15s15 6.597656 15 15zm0 0" fill="#676e74"/><path d="m330 136c0 8.285156-6.714844 15-15 15s-15-6.714844-15-15 6.714844-15 15-15 15 6.714844 15 15zm0 0" fill="#676e74"/><path d="m119 196v120c0 8.398438-6.597656 15-15 15s-15-6.601562-15-15v-120c0-8.402344 6.597656-15 15-15s15 6.597656 15 15zm0 0" fill="#c6e2e7"/><path d="m119 196v120c0 8.398438-6.597656 15-15 15v-150c8.402344 0 15 6.597656 15 15zm0 0" fill="#a8d3d8"/><path d="m390 136c0 8.398438-6.597656 15-15 15v-30c8.402344 0 15 6.597656 15 15zm0 0" fill="#474f54"/></svg>