<svg width="239" height="239" viewBox="0 0 239 239" fill="none" xmlns="http://www.w3.org/2000/svg">
	<g clip-path="url(#clip0)">
		<path d="M186.994 213.795L185.566 221.04C185.381 221.983 184.558 222.66 183.601 222.66H162.319C161.111 222.66 160.168 221.616 160.284 220.417L161.447 208.361L167.423 146.481L191.475 143.23L179.254 205.231C179.204 205.472 179.194 205.712 179.234 205.948C179.304 206.48 179.591 206.962 180.037 207.288L186.208 211.783C186.839 212.239 187.15 213.027 186.994 213.795Z" fill="#AB8C4F"/>
		<path d="M121.935 222.66H104.794C104.057 222.66 103.38 222.263 103.019 221.626L96.3862 209.961L86.8659 193.22C86.7861 193.079 86.7254 192.924 86.6806 192.768L81.8726 175.841L77.2957 157.473L112.545 150.825L105.251 186.08C105.176 186.431 105.196 186.793 105.311 187.134L111.267 205.255C111.278 205.29 111.292 205.325 111.307 205.361C111.483 205.822 111.824 206.199 112.255 206.429L120.933 210.985C121.45 211.255 121.821 211.733 121.966 212.299L123.916 220.116C124.241 221.411 123.263 222.66 121.935 222.66Z" fill="#AB8C4F"/>
		<path d="M121.935 222.66H104.794C104.057 222.66 103.38 222.263 103.019 221.626L96.3862 209.961L111.306 205.361C111.482 205.822 111.823 206.199 112.254 206.43L120.932 210.985C121.449 211.256 121.819 211.733 121.964 212.3L123.914 220.117C124.241 221.411 123.263 222.66 121.935 222.66Z" fill="#F2E5CB"/>
		<path d="M186.994 213.795L185.566 221.039C185.381 221.983 184.558 222.66 183.601 222.66H162.319C161.111 222.66 160.168 221.616 160.284 220.417L161.447 208.361L179.234 205.948C179.304 206.48 179.591 206.962 180.037 207.288L186.208 211.783C186.839 212.239 187.15 213.027 186.994 213.795Z" fill="#F2E5CB"/>
		<path d="M67.0862 131.153H54.2315C24.3281 131.153 0 106.807 0 76.8824C0 46.9574 24.3281 22.6116 54.2315 22.6116H97.8528C100.982 22.6116 103.518 25.1505 103.518 28.2813C103.518 31.4126 100.982 33.9511 97.8528 33.9511H54.2315C30.5757 33.9511 11.331 53.2102 11.331 76.8828C11.331 100.555 30.5766 119.814 54.2315 119.814H67.0862C70.2151 119.814 72.7512 122.353 72.7512 125.484C72.7517 128.614 70.2151 131.153 67.0862 131.153Z" fill="#CCA75E"/>
		<path d="M239 46.0593V56.1641C239 64.3414 232.378 70.969 224.207 70.969H216.071L210.008 124.718C209.49 129.328 209.526 133.977 210.109 138.582L211.658 149.401L219.332 202.879C219.352 203.03 219.387 203.176 219.438 203.312C219.599 203.749 219.901 204.127 220.308 204.374L230.109 210.156C230.723 210.523 231.1 211.192 231.1 211.907L229.792 220.612C229.792 221.744 228.877 222.66 227.75 222.66H206.225C205.284 222.66 204.459 222.006 204.243 221.09L201.244 208.57C201.244 208.57 194.477 182.287 189.415 159.184C189.415 159.184 189.39 159.189 189.339 159.199C154.133 165.791 133.876 157.091 133.876 157.091C133.876 157.091 95.6262 161.791 94.8462 162.364L82.8962 178.055C77.9351 184.576 70.2115 188.406 62.0201 188.406H50.4725C49.3452 188.406 48.4298 189.322 48.4298 190.449V206.813C48.4298 207.024 48.4648 207.236 48.5301 207.433C48.6562 207.835 48.9078 208.193 49.2448 208.45L53.9795 211.997C54.3572 212.279 54.6232 212.682 54.7339 213.139L56.4802 220.119C56.8023 221.412 55.8309 222.66 54.4981 222.66H37.7014C36.5741 222.66 35.6587 221.744 35.6587 220.618V176.923C35.6587 176.133 36.1166 175.408 36.8313 175.076L50.8296 168.509C51.5489 168.172 52.0069 167.447 52.0069 166.657V138.809C52.0069 122.157 64.3844 108.102 80.8885 106.01L145.433 97.822C154.903 96.6195 162.938 90.2841 166.324 81.352L185.49 30.7582L209.41 28.9013C215.372 28.4382 221.139 31.1909 224.514 36.1376C225.747 37.9441 226.547 39.2875 226.547 39.2875C227.654 39.2861 239 44.9526 239 46.0593Z" fill="#FBD476"/>
		<path d="M195.091 30.0122L185.487 30.7581L166.323 81.351C163.913 87.713 159.144 92.7553 153.177 95.5659L155.076 95.325C164.548 94.1235 172.584 90.2846 175.967 81.351C175.967 81.3515 195.115 30.2615 195.091 30.0122Z" fill="#CCA75E"/>
		<path d="M213.884 221.09L210.886 208.572C210.886 208.572 204.118 182.286 199.058 159.186C195.822 159.793 192.713 160.271 189.733 160.637C194.754 183.373 201.242 208.572 201.242 208.572L204.24 221.09C204.456 222.008 205.283 222.66 206.225 222.66H215.869C214.927 222.66 214.1 222.008 213.884 221.09Z" fill="#CCA75E"/>
		<path d="M45.3032 220.618V176.925C45.3032 176.132 45.7592 175.41 46.4762 175.074L60.4736 168.506C61.1906 168.17 61.6513 167.448 61.6513 166.655V138.811C61.6513 125.026 70.1382 111.317 82.4219 105.815L80.8894 106.01C64.3854 108.102 52.0069 122.16 52.0069 138.811V166.655C52.0069 167.448 51.5457 168.17 50.8291 168.506L36.8318 175.074C36.1148 175.41 35.6587 176.132 35.6587 176.925V220.618C35.6587 221.746 36.5722 222.66 37.6991 222.66H47.3431C46.2162 222.66 45.3032 221.746 45.3032 220.618Z" fill="#CCA75E"/>
		<path d="M54.4993 222.66H37.6993C36.5711 222.66 35.6589 221.742 35.6589 220.613V209.069L48.5285 207.433C48.6541 207.834 48.9048 208.19 49.2455 208.446L53.9784 211.998C54.3546 212.279 54.6254 212.681 54.7355 213.137L56.4804 220.116C56.8006 221.411 55.8278 222.66 54.4993 222.66Z" fill="#F2E5CB"/>
		<path d="M210.109 138.582L211.659 149.401C203.528 151.836 194.747 155.148 189.414 159.184C189.414 159.184 189.389 159.189 189.338 159.199C154.132 165.791 133.875 157.091 133.875 157.091C133.875 157.091 95.625 161.791 94.845 162.364L110.182 149.693C110.182 149.693 140.13 144.053 156.231 144.983C163.972 145.433 172.813 145.334 179.908 145.11C187.743 144.862 194.414 139.349 196.145 131.702C199.934 114.958 206.106 86.3822 206.798 74.9653C206.798 74.9653 210.753 70.9695 216.071 70.9695L210.007 124.719C209.49 129.328 209.525 133.977 210.109 138.582Z" fill="#F2E5CB"/>
		<path d="M204.24 221.09L201.242 208.572L219.436 203.31C219.597 203.751 219.902 204.128 220.308 204.374L230.109 210.153C230.721 210.524 231.102 211.192 231.102 211.909L229.793 220.613C229.793 221.742 228.876 222.66 227.748 222.66H206.225C205.283 222.66 204.456 222.008 204.24 221.09Z" fill="#F2E5CB"/>
		<path d="M214.847 45.2098C216.931 45.2098 218.62 43.5203 218.62 41.4362C218.62 39.3521 216.931 37.6626 214.847 37.6626C212.762 37.6626 211.073 39.3521 211.073 41.4362C211.073 43.5203 212.762 45.2098 214.847 45.2098Z" fill="#AB8C4F"/>
		<path d="M186.171 72.7466C188.255 72.7466 189.945 71.0571 189.945 68.973C189.945 66.8889 188.255 65.1994 186.171 65.1994C184.087 65.1994 182.398 66.8889 182.398 68.973C182.398 71.0571 184.087 72.7466 186.171 72.7466Z" fill="#AB8C4F"/>
		<path d="M196.965 91.8717C199.05 91.8717 200.739 90.1822 200.739 88.0981C200.739 86.014 199.05 84.3245 196.965 84.3245C194.881 84.3245 193.192 86.014 193.192 88.0981C193.192 90.1822 194.881 91.8717 196.965 91.8717Z" fill="#AB8C4F"/>
		<path d="M172.1 99.4175C174.184 99.4175 175.873 97.728 175.873 95.6439C175.873 93.5598 174.184 91.8703 172.1 91.8703C170.016 91.8703 168.326 93.5598 168.326 95.6439C168.326 97.728 170.016 99.4175 172.1 99.4175Z" fill="#AB8C4F"/>
		<path d="M147.424 115.269C149.508 115.269 151.198 113.58 151.198 111.496C151.198 109.412 149.508 107.722 147.424 107.722C145.34 107.722 143.65 109.412 143.65 111.496C143.65 113.58 145.34 115.269 147.424 115.269Z" fill="#AB8C4F"/>
		<path d="M111.701 119.044C113.785 119.044 115.474 117.355 115.474 115.271C115.474 113.187 113.785 111.497 111.701 111.497C109.617 111.497 107.927 113.187 107.927 115.271C107.927 117.355 109.617 119.044 111.701 119.044Z" fill="#AB8C4F"/>
		<path d="M94.0929 138.696C96.177 138.696 97.8665 137.007 97.8665 134.923C97.8665 132.838 96.177 131.149 94.0929 131.149C92.0088 131.149 90.3193 132.838 90.3193 134.923C90.3193 137.007 92.0088 138.696 94.0929 138.696Z" fill="#AB8C4F"/>
		<path d="M68.1786 148.256C70.2627 148.256 71.9522 146.567 71.9522 144.483C71.9522 142.398 70.2627 140.709 68.1786 140.709C66.0945 140.709 64.405 142.398 64.405 144.483C64.405 146.567 66.0945 148.256 68.1786 148.256Z" fill="#AB8C4F"/>
		<path d="M186.171 119.044C188.255 119.044 189.945 117.355 189.945 115.271C189.945 113.187 188.255 111.497 186.171 111.497C184.087 111.497 182.398 113.187 182.398 115.271C182.398 117.355 184.087 119.044 186.171 119.044Z" fill="#AB8C4F"/>
		<path d="M172.1 136.657C174.184 136.657 175.873 134.968 175.873 132.884C175.873 130.799 174.184 129.11 172.1 129.11C170.016 129.11 168.326 130.799 168.326 132.884C168.326 134.968 170.016 136.657 172.1 136.657Z" fill="#AB8C4F"/>
		<path d="M135.601 136.657C137.685 136.657 139.374 134.968 139.374 132.884C139.374 130.799 137.685 129.11 135.601 129.11C133.517 129.11 131.827 130.799 131.827 132.884C131.827 134.968 133.517 136.657 135.601 136.657Z" fill="#AB8C4F"/>
		<path d="M198.485 19.001L200.519 28.7439C201.826 35.0083 197.16 41.6537 189.765 44.0614L186.974 44.9698C184.524 45.7675 182.127 44.0222 182.42 41.6527L184.087 28.1567C185.076 17.4839 196.513 13.0572 198.485 19.001Z" fill="#CCA75E"/>
		<path d="M196.057 22.3853L197.392 28.7038C198.25 32.7664 195.317 37.0488 190.63 38.5752L188.861 39.1507C187.308 39.6567 185.777 38.515 185.953 36.982L186.951 28.2496C187.532 21.3429 194.777 18.5281 196.057 22.3853Z" fill="#AB8C4F"/>
	</g>
	<defs>
		<clipPath id="clip0">
			<rect width="239" height="239" fill="white"/>
		</clipPath>
	</defs>
</svg>
