<?xml version="1.0" encoding="iso-8859-1"?>
<!-- Generator: Adobe Illustrator 19.0.0, SVG Export Plug-In . SVG Version: 6.00 Build 0)  -->
<svg version="1.1" id="Capa_1" xmlns="http://www.w3.org/2000/svg" xmlns:xlink="http://www.w3.org/1999/xlink" x="0px" y="0px"
	 viewBox="0 0 511.999 511.999" style="enable-background:new 0 0 511.999 511.999;" xml:space="preserve">
<circle style="fill:#ABFFDB;" cx="256" cy="307.306" r="196.676"/>
<path style="fill:#92E0C0;" d="M187.59,264.55c0-62.268,28.971-117.739,74.132-153.776c-1.906-0.055-3.804-0.144-5.723-0.144
	c-108.622,0-196.676,88.054-196.676,196.676c0,108.621,88.054,196.676,196.676,196.676c46.353,0,88.927-16.075,122.544-42.9
	C272.576,458.047,187.59,371.253,187.59,264.55z"/>
<path style="fill:#C3C8D1;" d="M354.338,42.22H157.661l-9.955,79.641c-1.631,13.05,6.872,25.222,19.687,28.178l77.069,17.785
	c7.592,1.752,15.482,1.752,23.074,0l77.069-17.785c12.815-2.958,21.318-15.128,19.687-28.178L354.338,42.22z"/>
<path style="fill:#ABB0B7;" d="M361.559,99.989l-7.221-57.768H157.661l-9.955,79.641c-1.631,13.05,6.872,25.222,19.687,28.178
	l77.07,17.785c3.796,0.875,7.666,1.314,11.537,1.314v-49.958L361.559,99.989z"/>
<path style="fill:#E4EAF8;" d="M256,8.016L55.47,45.151c-6.234,1.154-6.234,10.087,0,11.242L256,93.527l200.53-37.135
	c6.234-1.154,6.234-10.087,0-11.242L256,8.016z"/>
<g>
	<circle style="fill:#FFC850;" cx="418.493" cy="153.385" r="17.102"/>
	<path style="fill:#FFC850;" d="M418.494,170.488L418.494,170.488c-9.446,0-17.102,7.656-17.102,17.102v42.756h34.205V187.59
		C435.596,178.145,427.939,170.488,418.494,170.488z"/>
</g>
<path style="fill:#FFFFFF;" d="M361.209,210.545c10.787-2.22,24.714-5.577,35.352-8.482l0.04-16.66
	c-12.368,3.494-28.057,7.323-40.637,9.858c-4.868-12.881-10.602-24.851-17.13-35.662l-10.683-4.522l-5.834,8.334
	c6.736,10.383,12.644,22.077,17.639,34.798c-25.054,4.213-50.43,6.544-75.938,6.946v-28.57c-3.207-4.316-4.029-6.224-6.814-6.365
	c-4.109-0.207-9.219,6.365-9.219,6.365v28.565c-25.524-0.402-50.89-2.729-75.936-6.942c4.995-12.72,10.901-24.415,17.636-34.797
	l-4.764-9.936l-11.75,6.126c-6.526,10.807-12.258,22.773-17.125,35.65c-14.567-2.936-29.013-6.504-43.301-10.728l-11.555,2.802
	l0.951,10.726c16.036,4.952,32.268,9.119,48.654,12.492c-8.37,27.049-13.174,57.319-13.875,88.749H57.908l-0.006,16.033h79.013
	c0.694,31.447,5.462,61.66,13.861,88.752c-16.342,3.364-32.531,7.518-48.522,12.453l-1.671,11.321l12.272,2.206
	c14.243-4.206,28.644-7.76,43.165-10.689c4.167,11,8.977,21.367,14.396,30.954c8.328,14.734,17.744,27.008,27.958,36.632
	c0,0,23.528,17.598,59.367,17.021c16.457-0.265,34.665-10.102,55.886-17.021c10.214-9.624,19.63-21.898,27.958-36.632
	c5.419-9.587,10.229-19.954,14.396-30.954c14.52,2.928,28.921,6.485,43.163,10.69l12.623-2.658l-2.019-10.871
	c-15.993-4.935-32.181-9.088-48.522-12.453c8.398-27.092,13.167-57.306,13.86-88.752h79.014v-16.033h-79.017
	C374.38,267.859,369.578,237.591,361.209,210.545z M247.983,495.381c-23.723-3.412-46.063-21.904-63.61-52.949
	c-4.578-8.099-8.688-16.813-12.316-26.031c25.042-4.211,50.406-6.537,75.926-6.939V495.381z M247.983,393.429
	c-27.359,0.418-54.55,2.961-81.373,7.621c-8.259-25.981-12.958-55.196-13.659-85.727h95.032V393.429z M247.983,299.289h-95.028
	c0.709-30.537,5.45-59.808,13.671-85.726c26.817,4.659,54.002,7.202,81.358,7.62v78.106H247.983z M264.016,221.189
	c27.337-0.418,54.527-2.983,81.353-7.642c8.223,25.921,12.967,55.196,13.674,85.742h-95.028V221.189z M327.626,442.432
	c-17.547,31.045-39.887,49.537-63.61,52.949v-85.919c25.52,0.402,50.884,2.729,75.925,6.94
	C336.314,425.62,332.204,434.333,327.626,442.432z M345.389,401.051c-26.823-4.661-54.012-7.205-81.372-7.622v-78.106h95.032
	C358.347,345.856,353.648,375.071,345.389,401.051z"/>
<path style="fill:#474D54;" d="M457.99,64.275c6.613-1.225,11.232-6.778,11.232-13.503s-4.619-12.278-11.232-13.503L257.46,0.134
	c-0.965-0.179-1.954-0.179-2.919,0L54.01,37.268c-6.613,1.225-11.232,6.778-11.232,13.503S47.396,63.05,54.01,64.275l90.716,16.8
	l-4.975,39.793c-0.728,5.818,0.068,11.486,2.089,16.594c-56.783,38.19-90.533,101.284-90.533,169.845
	c0,112.869,91.825,204.693,204.693,204.693s204.693-91.824,204.693-204.693c0-28.526-5.763-56.075-17.102-81.951V187.59
	c0-6.603-2.564-12.614-6.745-17.102c4.18-4.488,6.745-10.5,6.745-17.102c0-11.047-7.172-20.445-17.102-23.8V70.108L457.99,64.275z
	 M444.478,299.289v16.033c-1.581,37.604-14.208,72.399-34.73,101.206l-10.603,13.529c-22.463,26.158-51.955,46.105-85.517,56.896
	c-67.433,21.985-115.253,0-115.253,0c-33.562-10.792-63.055-30.739-85.518-56.897l-10.601-13.528
	c-20.525-28.807-33.152-63.602-34.733-101.206l0.006-16.033c1.547-36.986,13.753-71.954,34.612-101.24l10.603-13.527
	c11.04-12.833,23.904-24.287,38.393-33.987c4.027,3.473,8.928,6.041,14.455,7.317l7.577,1.749l16.514,3.811l52.978,12.226
	c1.756,0.405,3.535,0.707,5.323,0.948c0,0,9.486,2.758,16.033,0c1.788-0.243,3.567-0.543,5.323-0.948l52.977-12.226l16.515-3.812
	l7.577-1.749c5.523-1.274,10.423-3.841,14.448-7.31c12.374,8.291,23.724,18.011,33.836,28.971c-0.723,2.12-1.173,4.363-1.3,6.692
	l-0.041,16.66v27.481c0,4.427,3.589,8.017,8.017,8.017h30.287C439.319,257.812,443.608,278.236,444.478,299.289z M155.66,122.857
	l4.857-38.857l87.465,16.196v60.163c-0.574-0.108-1.149-0.213-1.718-0.344l-77.069-17.785
	C160.354,140.188,154.536,131.86,155.66,122.857z M264.016,160.359v-60.164l87.465-16.197l4.857,38.857
	c1.126,9.003-4.693,17.332-13.535,19.373l-77.069,17.785C265.165,160.145,264.59,160.251,264.016,160.359z M393.352,153.385
	c0,0.79,0.042,1.57,0.113,2.341c-7.317-6.637-15.108-12.733-23.31-18.256c2.023-5.11,2.821-10.782,2.093-16.604l-4.975-39.794
	l43.181-7.995v56.508C400.525,132.941,393.352,142.338,393.352,153.385z M409.386,187.59c0-5.01,4.076-9.086,9.086-9.086
	s9.086,4.076,9.086,9.086v34.739h-18.171V187.59z M427.557,153.385c0,5.01-4.076,9.086-9.086,9.086s-9.086-4.076-9.086-9.086
	s4.076-9.086,9.086-9.086S427.557,148.376,427.557,153.385z M256,85.375L69.145,50.772L256,16.169l186.855,34.602L256,85.375z"/>
<g>
</g>
<g>
</g>
<g>
</g>
<g>
</g>
<g>
</g>
<g>
</g>
<g>
</g>
<g>
</g>
<g>
</g>
<g>
</g>
<g>
</g>
<g>
</g>
<g>
</g>
<g>
</g>
<g>
</g>
</svg>
