<svg height="512pt" viewBox="0 -31 512.00087 512" width="512pt" xmlns="http://www.w3.org/2000/svg"><path d="m184.507812 124.5c-4.5 4.199219-5.699218 10.496094-3.300781 16.199219 2.402344 5.699219 7.800781 9.296875 13.800781 9.296875h241.996094c41.398438 0 74.996094-33.597656 74.996094-74.996094s-33.597656-75-74.996094-75h-241.996094c-6 0-11.398437 3.601562-13.800781 9.300781-2.398437 5.699219-1.199219 12 3.300781 16.199219 1.199219 1.5 2.398438 3 3.601563 4.5l36.898437 30v30l-36.898437 29.996094c-1.203125 1.5-2.402344 3-3.601563 4.503906zm0 0" fill="#ff641a"/><path d="m181.207031 140.699219c2.402344 5.699219 7.800781 9.300781 13.800781 9.300781h241.996094c41.398438 0 74.996094-33.601562 74.996094-75h-286.992188v15l-36.898437 30c-1.203125 1.5-2.402344 2.996094-3.601563 4.5-4.5 4.199219-5.699218 10.5-3.300781 16.199219zm0 0" fill="#f03800"/><path d="m202.808594 90c-2.402344 10.800781-7.199219 21-14.699219 30h248.890625c24.902344 0 45-20.101562 45-45 0-24.902344-20.097656-45-45-45h-248.890625c7.5 9 12.296875 19.199219 14.699219 30l37.199218 15zm0 0" fill="#fff4ca"/><path d="m188.109375 120h248.890625c24.902344 0 45-20.101562 45-45h-241.996094l-37.199218 15c-2.398438 10.796875-7.195313 21-14.695313 30zm0 0" fill="#ffe1ba"/><path d="m204.304688 75c0 5.097656-.296876 10.199219-1.5 15h204.199218c8.398438 0 14.996094-6.597656 14.996094-15s-6.597656-15-14.996094-15h-204.199218c1.203124 4.800781 1.5 9.898438 1.5 15zm0 0" fill="#ffe1ba"/><path d="m202.808594 90h204.195312c8.398438 0 15-6.597656 15-15h-217.695312c-.003906 5.097656-.300782 10.199219-1.5 15zm0 0" fill="#ffc473"/><path d="m64.511719 274.496094c-4.503907 4.199218-5.699219 10.5-3.300781 16.199218 2.398437 5.699219 7.796874 9.296876 13.800781 9.296876h361.992187c41.398438 0 74.996094-33.597657 74.996094-74.996094 0-41.398438-33.597656-75-74.996094-75h-361.992187c-6 0-11.402344 3.601562-13.800781 9.300781-2.398438 5.699219-1.199219 12 3.300781 16.199219 1.199219 1.5 2.398437 3 3.597656 4.5l36.898437 30v30l-36.898437 30c-1.199219 1.5-2.398437 3-3.597656 4.5zm0 0" fill="#474f54"/><path d="m61.210938 290.695312c2.398437 5.699219 7.796874 9.300782 13.800781 9.300782h361.992187c41.398438 0 74.996094-33.601563 74.996094-75h-406.992188v15l-36.894531 30c-1.203125 1.5-2.402343 3-3.601562 4.5-4.503907 4.199218-5.699219 10.5-3.300781 16.199218zm0 0" fill="#32393f"/><path d="m82.808594 239.996094c-2.398438 10.800781-7.199219 21-14.699219 30h368.890625c24.902344 0 45-20.097656 45-45 0-24.898438-20.097656-45-45-45h-368.890625c7.5 9 12.300781 19.199218 14.699219 30l37.199218 15zm0 0" fill="#fff4ca"/><path d="m68.109375 269.996094h368.890625c24.902344 0 45-20.097656 45-45h-361.992188l-37.199218 15c-2.398438 10.800781-7.199219 21-14.699219 30zm0 0" fill="#ffe1ba"/><path d="m84.308594 224.996094c0 5.097656-.300782 10.203125-1.5 15h324.195312c8.398438 0 14.996094-6.597656 14.996094-15 0-8.398438-6.597656-15-14.996094-15h-324.195312c1.199218 4.800781 1.5 9.902344 1.5 15zm0 0" fill="#ffe1ba"/><path d="m82.808594 239.996094h324.195312c8.398438 0 15-6.597656 15-15h-337.695312c0 5.097656-.300782 10.199218-1.5 15zm0 0" fill="#ffc473"/><path d="m4.511719 424.492188c-4.5000002 4.199218-5.699219 10.5-3.300781 16.199218 2.402343 5.699219 7.800781 9.300782 13.800781 9.300782h421.992187c41.398438 0 74.996094-33.601563 74.996094-75 0-41.398438-33.597656-75-74.996094-75h-421.992187c-6 0-11.398438 3.601562-13.800781 9.300781-2.398438 5.699219-1.1992192 12 3.300781 16.199219 1.199219 1.5 2.398437 3 3.601562 4.5l36.898438 30v30l-36.898438 30c-1.203125 1.5-2.402343 3-3.601562 4.5zm0 0" fill="#ff641a"/><path d="m1.210938 440.691406c2.402343 5.699219 7.800781 9.300782 13.800781 9.300782h421.992187c41.398438 0 74.996094-33.601563 74.996094-75h-466.988281v15l-36.898438 30c-1.203125 1.5-2.402343 3-3.601562 4.5-4.5000002 4.199218-5.699219 10.5-3.300781 16.199218zm0 0" fill="#f03800"/><path d="m22.8125 389.992188c-2.402344 10.800781-7.199219 21-14.699219 30h428.886719c24.902344 0 45-20.097657 45-45 0-24.898438-20.097656-44.996094-45-44.996094h-428.886719c7.5 9 12.296875 19.199218 14.699219 29.996094l37.199219 15zm0 0" fill="#fff4ca"/><path d="m8.113281 419.992188h428.886719c24.902344 0 45-20.097657 45-45h-421.992188l-37.199218 15c-2.398438 10.800781-7.195313 21-14.695313 30zm0 0" fill="#ffe1ba"/><path d="m24.308594 374.992188c0 5.101562-.296875 10.203124-1.5 15h384.195312c8.398438 0 14.996094-6.597657 14.996094-15 0-8.398438-6.597656-15-14.996094-15h-384.195312c1.203125 4.800781 1.5 9.902343 1.5 15zm0 0" fill="#ffe1ba"/><path d="m22.8125 389.992188h384.191406c8.398438 0 15-6.597657 15-15h-397.691406c-.003906 5.101562-.300781 10.199218-1.5 15zm0 0" fill="#ffc473"/></svg>