<svg height="512pt" viewBox="0 0 512 512" width="512pt" xmlns="http://www.w3.org/2000/svg"><path d="m452 151v316c0 8.398438-6.597656 15-15 15h-422c-8.402344 0-15-6.601562-15-15v-316l30-30h392zm0 0" fill="#fff4ca"/><path d="m452 151v316c0 8.398438-6.597656 15-15 15h-211v-361h196zm0 0" fill="#ffe1ba"/><path d="m452 45v106h-452v-106c0-8.402344 6.597656-15 15-15h422c8.402344 0 15 6.597656 15 15zm0 0" fill="#ff641a"/><path d="m452 45v106h-226v-121h211c8.402344 0 15 6.597656 15 15zm0 0" fill="#f03800"/><path d="m136 121h-60c-8.289062 0-15-6.710938-15-15s6.710938-15 15-15h60c8.289062 0 15 6.710938 15 15s-6.710938 15-15 15zm0 0" fill="#676e74"/><path d="m271 106c0 8.398438-6.597656 15-15 15h-60c-8.402344 0-15-6.601562-15-15 0-8.402344 6.597656-15 15-15h60c8.402344 0 15 6.597656 15 15zm0 0" fill="#676e74"/><path d="m377 121h-60c-8.289062 0-15-6.710938-15-15s6.710938-15 15-15h60c8.289062 0 15 6.710938 15 15s-6.710938 15-15 15zm0 0" fill="#32393f"/><path d="m256 121h-30v-30h30c8.402344 0 15 6.597656 15 15 0 8.398438-6.597656 15-15 15zm0 0" fill="#32393f"/><path d="m106 121c-8.289062 0-15-6.710938-15-15v-91c0-8.289062 6.710938-15 15-15s15 6.710938 15 15v91c0 8.289062-6.710938 15-15 15zm0 0" fill="#deecf1"/><path d="m241 15v91c0 8.398438-6.597656 15-15 15s-15-6.601562-15-15v-91c0-8.402344 6.597656-15 15-15s15 6.597656 15 15zm0 0" fill="#deecf1"/><path d="m347 121c-8.289062 0-15-6.710938-15-15v-91c0-8.289062 6.710938-15 15-15s15 6.710938 15 15v91c0 8.289062-6.710938 15-15 15zm0 0" fill="#c6e2e7"/><g fill="#ffe1ba"><path d="m136 302h-60c-8.289062 0-15-6.710938-15-15v-60c0-8.289062 6.710938-15 15-15h60c8.289062 0 15 6.710938 15 15v60c0 8.289062-6.710938 15-15 15zm0 0"/><path d="m136 422h-60c-8.289062 0-15-6.710938-15-15v-60c0-8.289062 6.710938-15 15-15h60c8.289062 0 15 6.710938 15 15v60c0 8.289062-6.710938 15-15 15zm0 0"/><path d="m256 212h-60c-8.402344 0-15 6.597656-15 15v60c0 8.398438 6.597656 15 15 15h60c8.402344 0 15-6.601562 15-15v-60c0-8.402344-6.597656-15-15-15zm0 0"/><path d="m256 332h-60c-8.402344 0-15 6.597656-15 15v60c0 8.398438 6.597656 15 15 15h60c8.402344 0 15-6.601562 15-15v-60c0-8.402344-6.597656-15-15-15zm0 0"/></g><path d="m377 302h-60c-8.289062 0-15-6.710938-15-15v-60c0-8.289062 6.710938-15 15-15h60c8.289062 0 15 6.710938 15 15v60c0 8.289062-6.710938 15-15 15zm0 0" fill="#ffc473"/><path d="m271 227v60c0 8.398438-6.597656 15-15 15h-30v-90h30c8.402344 0 15 6.597656 15 15zm0 0" fill="#ffc473"/><path d="m271 347v60c0 8.398438-6.597656 15-15 15h-30v-90h30c8.402344 0 15 6.597656 15 15zm0 0" fill="#ffc473"/><path d="m241 15v91c0 8.398438-6.597656 15-15 15v-121c8.402344 0 15 6.597656 15 15zm0 0" fill="#c6e2e7"/><path d="m407 302c-57.898438 0-105 47.101562-105 105s47.101562 105 105 105 105-47.101562 105-105-47.101562-105-105-105zm0 0" fill="#64e1dc"/><path d="m512 407c0 57.898438-47.101562 105-105 105v-210c57.898438 0 105 47.101562 105 105zm0 0" fill="#00c8c8"/><path d="m407 332c-41.398438 0-75 33.601562-75 75s33.601562 75 75 75 75-33.601562 75-75-33.601562-75-75-75zm0 0" fill="#deecf1"/><path d="m482 407c0 41.398438-33.601562 75-75 75v-150c41.398438 0 75 33.601562 75 75zm0 0" fill="#c6e2e7"/><path d="m452 407c0 8.398438-6.597656 15-15 15h-30c-8.402344 0-15-6.601562-15-15v-30c0-8.402344 6.597656-15 15-15s15 6.597656 15 15v15h15c8.402344 0 15 6.597656 15 15zm0 0" fill="#676e74"/><path d="m452 407c0 8.398438-6.597656 15-15 15h-30v-60c8.402344 0 15 6.597656 15 15v15h15c8.402344 0 15 6.597656 15 15zm0 0" fill="#474f54"/></svg>