<svg height="512pt" viewBox="0 0 512 512" width="512pt" xmlns="http://www.w3.org/2000/svg"><path d="m30 45h452v302h-452zm0 0" fill="#ff641a"/><path d="m256 45h226v302h-226zm0 0" fill="#f03800"/><path d="m324.402344 153.398438-68.402344-45.597657-21.597656-14.402343c-4.800782-3-10.503906-3.300782-15.601563-.597657-4.800781 2.699219-7.800781 7.800781-7.800781 13.199219v121c0 5.398438 3 10.5 7.800781 13.199219 4.796875 2.699219 10.800781 2.398437 15.601563-.601563l90-61c4.195312-2.996094 6.597656-7.5 6.597656-12.597656 0-5.101562-2.402344-9.601562-6.597656-12.601562zm0 0" fill="#fff4ca"/><path d="m324.402344 178.597656-68.402344 46.601563v-117.398438l68.402344 45.597657c4.195312 3 6.597656 7.5 6.597656 12.601562 0 5.097656-2.402344 9.601562-6.597656 12.597656zm0 0" fill="#ffe1ba"/><path d="m497 332h-482c-8.402344 0-15 6.597656-15 15 0 8.398438 6.597656 15 15 15h209.851562l-96.050781 120h-22.800781c-8.402344 0-15 6.597656-15 15 0 8.398438 6.597656 15 15 15h30c4.5 0 9-2.101562 11.699219-5.699219l93.300781-116.5625v107.261719c0 8.398438 6.597656 15 15 15s15-6.601562 15-15v-107.261719l93.300781 116.5625c2.699219 3.597657 7.199219 5.699219 11.699219 5.699219h30c8.402344 0 15-6.601562 15-15 0-8.402344-6.597656-15-15-15h-22.800781l-96.050781-120h209.851562c8.402344 0 15-6.601562 15-15 0-8.402344-6.597656-15-15-15zm0 0" fill="#676e74"/><path d="m15 60h482c8.402344 0 15-6.601562 15-15 0-8.402344-6.597656-15-15-15h-226v-15c0-8.402344-6.597656-15-15-15s-15 6.597656-15 15v15h-226c-8.402344 0-15 6.597656-15 15 0 8.398438 6.597656 15 15 15zm0 0" fill="#676e74"/><path d="m497 332h-241v180c8.402344 0 15-6.601562 15-15v-107.261719l93.300781 116.5625c2.699219 3.597657 7.199219 5.699219 11.699219 5.699219h30c8.402344 0 15-6.601562 15-15 0-8.402344-6.597656-15-15-15h-22.800781l-96.050781-120h209.851562c8.402344 0 15-6.601562 15-15 0-8.402344-6.597656-15-15-15zm0 0" fill="#32393f"/><path d="m512 45c0-8.402344-6.597656-15-15-15h-226v-15c0-8.402344-6.597656-15-15-15v60h241c8.402344 0 15-6.601562 15-15zm0 0" fill="#32393f"/><path d="m121 287c0 8.285156-6.714844 15-15 15s-15-6.714844-15-15 6.714844-15 15-15 15 6.714844 15 15zm0 0" fill="#474f54"/><path d="m421 287c0 8.398438-6.597656 15-15 15h-240c-8.402344 0-15-6.601562-15-15 0-8.402344 6.597656-15 15-15h240c8.402344 0 15 6.597656 15 15zm0 0" fill="#474f54"/><path d="m406 302h-150v-30h150c8.402344 0 15 6.597656 15 15 0 8.398438-6.597656 15-15 15zm0 0" fill="#32393f"/></svg>