<?xml version="1.0" encoding="iso-8859-1"?>
<!-- Generator: Adobe Illustrator 19.0.0, SVG Export Plug-In . SVG Version: 6.00 Build 0)  -->
<svg version="1.1" id="Layer_1" xmlns="http://www.w3.org/2000/svg" xmlns:xlink="http://www.w3.org/1999/xlink" x="0px" y="0px"
	 viewBox="0 0 512 512" style="enable-background:new 0 0 512 512;" xml:space="preserve">
<g>
	<path style="fill:#AB8C4F;" d="M400.59,458.004l-3.06,15.52c-0.397,2.021-2.159,3.471-4.21,3.471h-45.591
		c-2.588,0-4.608-2.235-4.36-4.804l2.492-25.827l12.802-132.563l51.525-6.966l-26.179,132.823c-0.108,0.516-0.129,1.031-0.043,1.537
		c0.15,1.139,0.763,2.171,1.719,2.869l13.221,9.63C400.258,454.672,400.923,456.36,400.59,458.004z"/>
	<path style="fill:#AB8C4F;" d="M261.216,476.995h-36.72c-1.579,0-3.029-0.849-3.802-2.214l-14.21-24.989l-20.395-35.865
		c-0.171-0.301-0.301-0.634-0.397-0.968l-10.3-36.263l-9.805-39.348l75.514-14.241l-15.626,75.525
		c-0.161,0.752-0.118,1.527,0.129,2.257l12.759,38.821c0.022,0.075,0.053,0.15,0.086,0.226c0.376,0.988,1.107,1.795,2.03,2.289
		l18.591,9.759c1.107,0.58,1.901,1.602,2.212,2.816l4.178,16.746C266.157,474.319,264.062,476.995,261.216,476.995z"/>
</g>
<g>
	<path style="fill:#F2E5CB;" d="M261.216,476.995h-36.72c-1.579,0-3.029-0.849-3.802-2.214l-14.21-24.989l31.962-9.855
		c0.376,0.988,1.107,1.795,2.03,2.289l18.591,9.759c1.107,0.58,1.901,1.602,2.212,2.816l4.177,16.746
		C266.157,474.319,264.062,476.995,261.216,476.995z"/>
	<path style="fill:#F2E5CB;" d="M400.59,458.004l-3.06,15.52c-0.397,2.021-2.159,3.471-4.21,3.471h-45.591
		c-2.588,0-4.608-2.235-4.36-4.804l2.492-25.827l38.105-5.169c0.15,1.139,0.763,2.171,1.719,2.869l13.221,9.63
		C400.258,454.672,400.923,456.36,400.59,458.004z"/>
</g>
<path style="fill:#CCA75E;" d="M143.716,280.963h-27.538C52.117,280.963,0,228.809,0,164.702S52.117,48.44,116.178,48.44h93.448
	c6.703,0,12.137,5.439,12.137,12.146c0,6.708-5.433,12.146-12.137,12.146h-93.448c-50.677,0-91.904,41.258-91.904,91.971
	c0,50.712,41.229,91.97,91.904,91.97h27.538c6.703,0,12.136,5.439,12.136,12.146C155.853,275.524,150.419,280.963,143.716,280.963z"
	/>
<path style="fill:#FBD476;" d="M512,98.671v21.647c0,17.518-14.186,31.716-31.69,31.716h-17.43l-12.988,115.145
	c-1.111,9.875-1.034,19.835,0.215,29.699l3.32,23.178l16.438,114.563c0.043,0.323,0.119,0.636,0.227,0.927
	c0.345,0.938,0.992,1.746,1.865,2.275l20.997,12.387c1.314,0.787,2.123,2.22,2.123,3.751l-2.802,18.649
	c0,2.425-1.961,4.388-4.376,4.388h-46.112c-2.016,0-3.784-1.401-4.246-3.363l-6.424-26.822c0,0-14.498-56.306-25.341-105.797
	c0,0-0.053,0.01-0.162,0.031c-75.421,14.123-118.816-4.516-118.816-4.516s-81.942,10.069-83.613,11.297l-25.6,33.613
	c-10.628,13.971-27.174,22.175-44.722,22.175h-24.738c-2.415,0-4.376,1.962-4.376,4.377v35.057c0,0.452,0.075,0.905,0.215,1.327
	c0.27,0.862,0.809,1.628,1.531,2.178l10.143,7.6c0.809,0.604,1.379,1.467,1.616,2.447l3.741,14.952
	c0.69,2.77-1.391,5.444-4.246,5.444H80.766c-2.415,0-4.376-1.962-4.376-4.376v-93.605c0-1.693,0.981-3.245,2.512-3.956l29.988-14.07
	c1.541-0.722,2.522-2.274,2.522-3.966v-59.658c0-35.672,26.516-65.782,61.872-70.265l138.272-17.54
	c20.286-2.576,37.5-16.148,44.754-35.283l41.057-108.385l51.243-3.978c12.773-0.992,25.126,4.905,32.358,15.502
	c2.64,3.87,4.355,6.748,4.355,6.748C487.694,84.161,512,96.3,512,98.671z"/>
<g>
	<path style="fill:#CCA75E;" d="M417.935,64.294l-20.574,1.598l-41.053,108.383c-5.163,13.629-15.381,24.431-28.162,30.452
		l4.068-0.516c20.291-2.574,37.505-10.798,44.754-29.936C376.968,174.276,417.987,64.828,417.935,64.294z"/>
	<path style="fill:#CCA75E;" d="M458.195,473.632l-6.423-26.816c0,0-14.499-56.313-25.339-105.799
		c-6.932,1.301-13.592,2.324-19.975,3.11c10.755,48.706,24.654,102.689,24.654,102.689l6.423,26.816
		c0.462,1.966,2.234,3.363,4.253,3.363h20.66C460.429,476.995,458.657,475.598,458.195,473.632z"/>
	<path style="fill:#CCA75E;" d="M97.051,472.621v-93.602c0-1.699,0.977-3.246,2.513-3.966l29.986-14.069
		c1.536-0.72,2.523-2.268,2.523-3.965v-59.65c0-29.531,18.181-58.899,44.496-70.685l-3.283,0.416
		c-35.356,4.483-61.874,34.598-61.874,70.269v59.65c0,1.697-0.988,3.245-2.523,3.965l-29.986,14.069
		c-1.536,0.72-2.513,2.267-2.513,3.966v93.602c0,2.416,1.957,4.374,4.371,4.374h20.66C99.007,476.995,97.051,475.037,97.051,472.621
		z"/>
</g>
<g>
	<path style="fill:#F2E5CB;" d="M116.752,476.995H80.762c-2.417,0-4.371-1.966-4.371-4.385v-24.731l27.57-3.504
		c0.269,0.86,0.806,1.623,1.536,2.171l10.139,7.609c0.806,0.602,1.386,1.462,1.622,2.44l3.738,14.95
		C121.682,474.319,119.598,476.995,116.752,476.995z"/>
	<path style="fill:#F2E5CB;" d="M450.108,296.878l3.32,23.178c-17.418,5.217-36.228,12.311-47.654,20.958
		c0,0-0.053,0.01-0.162,0.031c-75.421,14.123-118.816-4.516-118.816-4.516s-81.942,10.069-83.613,11.297l32.855-27.144
		c0,0,64.157-12.084,98.649-10.091c16.584,0.964,35.524,0.752,50.722,0.272c16.785-0.531,31.077-12.342,34.785-28.723
		c8.118-35.871,21.339-97.087,22.821-121.545c0,0,8.472-8.56,19.866-8.56L449.891,267.18
		C448.782,277.054,448.857,287.014,450.108,296.878z"/>
	<path style="fill:#F2E5CB;" d="M437.536,473.632l-6.423-26.816l38.976-11.274c0.344,0.946,0.999,1.752,1.868,2.279l20.997,12.381
		c1.31,0.795,2.126,2.225,2.126,3.762l-2.803,18.647c0,2.418-1.965,4.385-4.382,4.385h-46.107
		C439.769,476.995,437.998,475.598,437.536,473.632"/>
</g>
<g>
	<circle style="fill:#AB8C4F;" cx="460.257" cy="88.767" r="8.084"/>
	<circle style="fill:#AB8C4F;" cx="398.827" cy="147.758" r="8.084"/>
	<circle style="fill:#AB8C4F;" cx="421.951" cy="188.729" r="8.084"/>
	<circle style="fill:#AB8C4F;" cx="368.682" cy="204.894" r="8.084"/>
	<circle style="fill:#AB8C4F;" cx="315.82" cy="238.853" r="8.084"/>
	<circle style="fill:#AB8C4F;" cx="239.292" cy="246.94" r="8.084"/>
	<circle style="fill:#AB8C4F;" cx="201.571" cy="289.039" r="8.084"/>
	<circle style="fill:#AB8C4F;" cx="146.056" cy="309.519" r="8.084"/>
	<circle style="fill:#AB8C4F;" cx="398.827" cy="246.94" r="8.084"/>
	<circle style="fill:#AB8C4F;" cx="368.682" cy="284.671" r="8.084"/>
	<circle style="fill:#AB8C4F;" cx="290.492" cy="284.671" r="8.084"/>
</g>
<path style="fill:#CCA75E;" d="M425.207,40.705l4.356,20.872c2.8,13.42-7.194,27.656-23.037,32.814l-5.978,1.946
	c-5.25,1.709-10.384-2.03-9.756-7.106l3.571-28.912C396.481,37.455,420.981,27.972,425.207,40.705z"/>
<path style="fill:#AB8C4F;" d="M420.004,47.955l2.861,13.536c1.839,8.703-4.446,17.877-14.487,21.147l-3.789,1.233
	c-3.327,1.084-6.606-1.362-6.23-4.646l2.139-18.707C401.742,45.722,417.263,39.692,420.004,47.955z"/>
<g>
</g>
<g>
</g>
<g>
</g>
<g>
</g>
<g>
</g>
<g>
</g>
<g>
</g>
<g>
</g>
<g>
</g>
<g>
</g>
<g>
</g>
<g>
</g>
<g>
</g>
<g>
</g>
<g>
</g>
</svg>
