<svg width="371" height="144" viewBox="0 0 371 144" fill="none" xmlns="http://www.w3.org/2000/svg">
    <path d="M30.392 124.416C26.84 124.416 23.72 124.128 21.032 123.552C18.344 122.976 15.992 121.584 13.976 119.376C12.056 117.168 11.096 113.76 11.096 109.152C11.096 102.72 13.016 94.08 16.856 83.232C20.792 72.384 25.928 61.488 32.264 50.544C27.464 50.832 23.672 51.552 20.888 52.704C18.104 53.856 16.28 55.632 15.416 58.032C15.8 58.032 16.184 58.512 16.568 59.472C17.048 60.432 17.288 61.44 17.288 62.496C17.288 64.224 16.52 65.616 14.984 66.672C13.448 67.632 11.528 68.112 9.224 68.112C6.536 68.112 4.376 67.392 2.744 65.952C1.112 64.512 0.296 62.448 0.296 59.76C0.296 56.496 1.544 53.52 4.04 50.832C6.632 48.144 10.184 46.032 14.696 44.496C19.208 42.864 24.2 42.048 29.672 42.048C31.688 42.048 34.184 42.192 37.16 42.48C45.032 30 53.336 19.824 62.072 11.952C70.904 3.98399 79.304 -8.58307e-06 87.272 -8.58307e-06C91.88 -8.58307e-06 95.672 0.671991 98.648 2.01599L76.04 108H55.304L66.392 55.728C62.84 54.096 59.576 52.896 56.6 52.128C53.624 51.36 50.456 50.832 47.096 50.544C41.624 62.352 37.112 74.448 33.56 86.832C30.104 99.12 28.376 108.96 28.376 116.352C28.376 120 29.048 122.688 30.392 124.416ZM76.04 10.224C71.912 12.432 67.592 16.56 63.08 22.608C58.664 28.56 54.344 35.808 50.12 44.352C57.032 45.696 62.888 47.376 67.688 49.392L76.04 10.224ZM120.676 144C116.068 144 112.228 142.8 109.156 140.4C106.084 138 104.548 134.544 104.548 130.032C104.548 124.56 106.756 120.144 111.172 116.784C115.588 113.52 121.204 110.784 128.02 108.576L129.748 100.944C124.852 106.224 119.092 108.864 112.468 108.864C106.996 108.864 102.436 106.992 98.7875 103.248C95.1395 99.504 93.3155 93.648 93.3155 85.68C93.3155 78.576 94.7075 71.136 97.4915 63.36C100.372 55.488 104.596 48.864 110.164 43.488C115.828 38.016 122.548 35.28 130.324 35.28C134.26 35.28 137.188 35.952 139.108 37.296C141.028 38.64 141.988 40.416 141.988 42.624V43.488L143.572 36H164.308L150.052 102.816C154.66 101.28 158.356 98.976 161.14 95.904C163.924 92.832 166.276 88.272 168.196 82.224H174.244C171.652 90.768 168.148 97.056 163.732 101.088C159.316 105.024 154.324 107.712 148.756 109.152L146.596 119.52C144.676 128.832 141.364 135.216 136.66 138.672C131.956 142.224 126.628 144 120.676 144ZM121.828 94.896C124.036 94.896 126.292 93.888 128.596 91.872C130.9 89.856 132.484 87.12 133.348 83.664L140.692 49.536C140.692 48.384 140.212 47.232 139.252 46.08C138.292 44.832 136.804 44.208 134.788 44.208C130.948 44.208 127.492 46.464 124.42 50.976C121.348 55.392 118.948 60.768 117.22 67.104C115.492 73.344 114.628 78.864 114.628 83.664C114.628 88.464 115.3 91.536 116.644 92.88C118.084 94.224 119.812 94.896 121.828 94.896ZM117.364 132.768C118.996 132.768 120.58 131.664 122.116 129.456C123.652 127.248 124.852 124.08 125.716 119.952L126.58 115.776C117.172 119.232 112.468 123.312 112.468 128.016C112.468 129.264 112.9 130.368 113.764 131.328C114.628 132.288 115.828 132.768 117.364 132.768ZM192.22 28.224C189.052 28.224 186.364 27.12 184.156 24.912C181.948 22.704 180.844 20.016 180.844 16.848C180.844 13.68 181.948 10.992 184.156 8.784C186.364 6.47999 189.052 5.32799 192.22 5.32799C195.388 5.32799 198.076 6.47999 200.284 8.784C202.588 10.992 203.74 13.68 203.74 16.848C203.74 20.016 202.588 22.704 200.284 24.912C198.076 27.12 195.388 28.224 192.22 28.224ZM182.428 108.864C177.82 108.864 174.076 107.424 171.196 104.544C168.412 101.664 167.02 97.344 167.02 91.584C167.02 89.184 167.404 86.064 168.172 82.224L177.964 36H198.7L188.332 84.96C187.948 86.4 187.756 87.936 187.756 89.568C187.756 91.488 188.188 92.88 189.052 93.744C190.012 94.512 191.548 94.896 193.66 94.896C196.444 94.896 199.036 93.744 201.436 91.44C203.836 89.04 205.564 85.968 206.62 82.224H212.668C209.116 92.592 204.556 99.648 198.988 103.392C193.42 107.04 187.9 108.864 182.428 108.864ZM220.819 108.864C216.211 108.864 212.467 107.424 209.587 104.544C206.803 101.664 205.41 97.344 205.41 91.584C205.41 89.184 205.794 86.064 206.562 82.224L221.971 10.08L243.283 7.19999L226.723 84.96C226.339 86.4 226.147 87.936 226.147 89.568C226.147 91.488 226.579 92.88 227.443 93.744C228.403 94.512 229.939 94.896 232.051 94.896C234.835 94.896 237.427 93.744 239.827 91.44C242.227 89.04 243.955 85.968 245.011 82.224H251.059C247.507 92.592 242.947 99.648 237.379 103.392C231.811 107.04 226.291 108.864 220.819 108.864ZM265.545 108.864C258.441 108.864 252.921 107.04 248.985 103.392C245.049 99.648 243.081 93.84 243.081 85.968C243.081 79.344 244.377 72.048 246.969 64.08C249.561 56.112 253.785 49.248 259.641 43.488C265.497 37.632 272.937 34.704 281.961 34.704C292.521 34.704 297.801 39.312 297.801 48.528C297.801 53.904 296.265 58.848 293.193 63.36C290.121 67.872 286.041 71.52 280.953 74.304C275.865 76.992 270.441 78.528 264.681 78.912C264.489 81.792 264.393 83.712 264.393 84.672C264.393 89.376 265.209 92.592 266.841 94.32C268.473 95.952 271.113 96.768 274.761 96.768C279.945 96.768 284.361 95.568 288.009 93.168C291.753 90.768 295.833 87.12 300.249 82.224H305.145C294.489 99.984 281.289 108.864 265.545 108.864ZM265.833 72C269.385 71.808 272.745 70.56 275.913 68.256C279.177 65.952 281.769 63.024 283.689 59.472C285.705 55.92 286.713 52.176 286.713 48.24C286.713 44.304 285.513 42.336 283.113 42.336C279.657 42.336 276.249 45.36 272.889 51.408C269.625 57.456 267.273 64.32 265.833 72ZM321.243 108.576C314.139 108.576 308.523 106.752 304.395 103.104C300.267 99.456 298.203 93.696 298.203 85.824C298.203 79.2 299.499 71.952 302.091 64.08C304.683 56.112 308.907 49.248 314.763 43.488C320.619 37.632 328.107 34.704 337.227 34.704C348.555 34.704 354.651 41.184 355.515 54.144C357.627 53.664 359.499 52.512 361.131 50.688C362.763 48.768 364.299 46.608 365.739 44.208H370.347C367.755 49.392 365.451 53.472 363.435 56.448C361.419 59.328 358.779 61.68 355.515 63.504C354.939 72.528 353.067 80.448 349.899 87.264C346.827 94.08 342.795 99.36 337.803 103.104C332.811 106.752 327.291 108.576 321.243 108.576ZM327.003 95.616C330.555 95.616 333.867 92.736 336.939 86.976C340.011 81.216 342.123 74.112 343.275 65.664C340.971 64.8 339.819 62.64 339.819 59.184C339.819 55.44 341.163 52.944 343.851 51.696C343.659 48.624 343.131 46.512 342.267 45.36C341.499 44.112 340.203 43.488 338.379 43.488C335.211 43.488 332.187 45.792 329.307 50.4C326.427 54.912 324.075 60.432 322.251 66.96C320.523 73.392 319.659 79.056 319.659 83.952C319.659 88.56 320.187 91.68 321.243 93.312C322.299 94.848 324.219 95.616 327.003 95.616Z" fill="#FCC116"/>
</svg>
